{"glyphs":{"0":{"ha":588,"x_min":61,"x_max":525,"o":"m 365 160 l 365 717 q 357 747 365 739 q 325 754 349 754 l 261 754 q 231 747 239 754 q 222 717 222 739 l 222 160 q 231 130 222 138 q 261 122 239 122 l 325 122 q 357 130 349 122 q 365 160 365 138 m 525 739 l 525 138 q 374 0 525 0 l 213 0 q 61 138 61 0 l 61 739 q 213 876 61 876 l 374 876 q 525 739 525 876 z "},"1":{"ha":361,"x_min":26,"x_max":294,"o":"m 294 876 l 294 0 l 135 0 l 135 754 l 26 754 l 26 876 l 294 876 z "},"2":{"ha":513,"x_min":33,"x_max":475,"o":"m 193 717 l 193 586 l 33 586 l 33 739 q 185 876 33 876 l 318 876 q 471 739 471 876 l 471 640 q 408 440 471 538 l 226 122 l 475 122 l 475 0 l 38 0 l 38 115 l 264 482 q 313 643 313 556 l 313 717 q 304 747 313 739 q 274 754 296 754 l 233 754 q 201 747 210 754 q 193 717 193 739 z "},"3":{"ha":542,"x_min":39,"x_max":482,"o":"m 199 717 l 199 599 l 39 599 l 39 739 q 190 876 39 876 l 331 876 q 482 739 482 876 l 482 551 q 424 446 482 465 q 482 346 482 426 l 482 138 q 331 0 482 0 l 190 0 q 39 138 39 0 l 39 276 l 199 276 l 199 160 q 207 130 199 138 q 238 122 215 122 l 285 122 q 315 130 307 122 q 324 160 324 138 l 324 347 q 316 378 324 369 q 285 386 308 386 l 178 386 l 178 503 l 285 503 q 315 510 307 503 q 324 540 324 518 l 324 717 q 315 747 324 739 q 285 754 307 754 l 238 754 q 207 747 215 754 q 199 717 199 739 z "},"4":{"ha":563,"x_min":10,"x_max":563,"o":"m 563 293 l 563 169 l 479 169 l 479 0 l 328 0 l 328 169 l 10 169 l 10 306 l 285 876 l 444 876 l 156 293 l 328 293 l 328 463 l 479 463 l 479 293 l 563 293 z "},"5":{"ha":554,"x_min":56,"x_max":507,"o":"m 219 557 l 356 557 q 507 419 507 557 l 507 138 q 356 0 507 0 l 207 0 q 56 138 56 0 l 56 288 l 217 288 l 217 160 q 225 130 217 138 q 256 122 233 122 l 308 122 q 340 130 332 122 q 349 160 349 138 l 349 397 q 340 427 349 419 q 308 435 332 435 l 61 435 l 61 876 l 501 876 l 501 754 l 219 754 l 219 557 z "},"6":{"ha":575,"x_min":61,"x_max":522,"o":"m 219 510 l 371 510 q 522 372 522 510 l 522 138 q 371 0 522 0 l 213 0 q 61 138 61 0 l 61 739 q 213 876 61 876 l 364 876 q 515 739 515 876 l 515 604 l 358 604 l 358 717 q 350 747 358 739 q 319 754 342 754 l 258 754 q 228 747 236 754 q 219 717 219 739 l 219 510 m 365 160 l 365 353 q 357 383 365 375 q 325 390 349 390 l 219 390 l 219 160 q 228 130 219 138 q 258 122 236 122 l 325 122 q 357 130 349 122 q 365 160 365 138 z "},"7":{"ha":457,"x_min":10,"x_max":450,"o":"m 450 876 l 450 782 l 206 0 l 42 0 l 279 747 l 10 747 l 10 876 l 450 876 z "},"8":{"ha":585,"x_min":60,"x_max":524,"o":"m 524 739 l 524 549 q 465 443 524 463 q 524 343 524 424 l 524 138 q 372 0 524 0 l 211 0 q 60 138 60 0 l 60 343 q 118 443 60 424 q 60 549 60 463 l 60 739 q 211 876 60 876 l 372 876 q 524 739 524 876 m 369 158 l 369 350 q 361 380 369 372 q 329 388 353 388 l 254 388 q 224 380 232 388 q 215 350 215 372 l 215 158 q 224 128 215 136 q 254 121 232 121 l 329 121 q 361 128 353 121 q 369 158 369 136 m 369 535 l 369 718 q 361 748 369 740 q 329 756 353 756 l 254 756 q 224 748 232 756 q 215 718 215 740 l 215 535 q 224 505 215 513 q 254 497 232 497 l 329 497 q 361 505 353 497 q 369 535 369 513 z "},"9":{"ha":572,"x_min":50,"x_max":510,"o":"m 201 876 l 358 876 q 510 739 510 876 l 510 138 q 358 0 510 0 l 207 0 q 56 138 56 0 l 56 269 l 213 269 l 213 160 q 221 130 213 138 q 251 122 229 122 l 314 122 q 344 130 336 122 q 353 160 353 138 l 353 353 l 201 353 q 50 490 50 353 l 50 739 q 201 876 50 876 m 246 468 l 353 468 l 353 717 q 344 747 353 739 q 314 754 336 754 l 246 754 q 215 747 224 754 q 207 717 207 739 l 207 506 q 215 476 207 483 q 246 468 224 468 z "},"\u0000":{"ha":0,"x_min":0,"x_max":0,"o":""},"\r":{"ha":0,"x_min":0,"x_max":0,"o":""}," ":{"ha":224,"x_min":0,"x_max":0,"o":""},"!":{"ha":325,"x_min":69,"x_max":256,"o":"m 78 0 l 78 188 l 246 188 l 246 0 l 78 0 m 69 876 l 256 876 l 228 294 l 97 294 l 69 876 z "},"\"":{"ha":463,"x_min":51,"x_max":411,"o":"m 268 876 l 411 876 l 411 549 l 268 549 l 268 876 m 51 876 l 194 876 l 194 549 l 51 549 l 51 876 z "},"#":{"ha":763,"x_min":42,"x_max":721,"o":"m 721 547 l 617 547 l 574 328 l 669 328 l 669 215 l 553 215 l 511 0 l 374 0 l 415 215 l 263 215 l 221 0 l 83 0 l 125 215 l 42 215 l 42 328 l 146 328 l 189 547 l 93 547 l 93 660 l 210 660 l 251 875 l 389 875 l 347 660 l 500 660 l 542 875 l 679 875 l 638 660 l 721 660 l 721 547 m 436 328 l 479 547 l 326 547 l 283 328 l 436 328 z "},"$":{"ha":554,"x_min":50,"x_max":506,"o":"m 250 503 l 360 503 q 506 367 506 503 l 506 138 q 354 0 506 0 l 353 0 l 353 -110 l 201 -110 l 201 0 q 53 138 53 1 l 53 258 l 213 258 l 213 160 q 221 130 213 138 q 253 122 229 122 l 306 122 q 336 130 328 122 q 344 160 344 138 l 344 347 q 336 377 344 369 q 306 385 328 385 l 193 385 q 50 524 50 385 l 50 739 q 200 876 50 876 l 201 876 l 201 986 l 353 986 l 353 876 q 503 739 503 876 l 503 617 l 342 617 l 342 717 q 333 747 342 739 q 303 754 325 754 l 250 754 q 218 747 226 754 q 210 717 210 739 l 210 540 q 218 510 210 518 q 250 503 226 503 z "},"%":{"ha":994,"x_min":39,"x_max":956,"o":"m 651 876 l 776 876 l 343 0 l 219 0 l 651 876 m 826 136 l 826 351 q 819 379 826 372 q 792 386 813 386 l 764 386 q 737 379 743 386 q 731 351 731 372 l 731 136 q 737 108 731 115 q 764 101 743 101 l 792 101 q 819 108 813 101 q 826 136 826 115 m 264 524 l 264 740 q 258 768 264 761 q 231 775 251 775 l 203 775 q 175 767 182 775 q 168 740 168 760 l 168 524 q 175 497 168 504 q 203 490 182 490 l 231 490 q 258 497 251 490 q 264 524 264 504 m 956 371 l 956 117 q 832 0 956 0 l 725 0 q 601 117 601 0 l 601 371 q 631 458 601 429 q 725 488 660 488 l 832 488 q 956 371 956 488 m 393 760 l 393 504 q 269 389 393 389 l 163 389 q 39 504 39 389 l 39 760 q 163 876 39 876 l 269 876 q 393 760 393 876 z "},"&":{"ha":707,"x_min":50,"x_max":774,"o":"m 513 0 l 201 0 q 50 138 50 0 l 50 263 q 71 347 50 315 q 147 411 92 378 l 183 436 q 133 500 150 476 q 88 617 88 563 l 88 739 q 239 876 88 876 l 382 876 q 531 739 531 876 l 531 621 q 503 508 531 549 q 383 408 474 464 l 540 224 l 540 328 l 668 328 l 668 138 q 660 83 668 108 l 774 -49 l 610 -49 l 563 4 q 513 0 539 0 m 244 724 l 244 608 q 294 510 244 567 q 360 563 344 543 q 376 618 376 583 l 376 724 q 369 753 376 746 q 338 761 361 761 l 283 761 q 252 753 260 761 q 244 724 244 746 m 243 117 l 464 117 l 271 336 q 212 290 221 306 q 203 247 203 275 l 203 154 q 211 124 203 132 q 243 117 219 117 z "},"'":{"ha":257,"x_min":51,"x_max":206,"o":"m 51 876 l 206 876 l 206 549 l 51 549 l 51 876 z "},"(":{"ha":396,"x_min":63,"x_max":411,"o":"m 63 569 q 147 968 63 829 q 393 1107 231 1107 l 411 1107 l 411 974 l 394 972 q 222 572 222 964 l 222 294 q 394 -106 222 -97 l 411 -107 l 411 -240 l 393 -240 q 147 -101 231 -240 q 63 297 63 38 l 63 569 z "},")":{"ha":396,"x_min":-17,"x_max":332,"o":"m 332 297 q 248 -101 332 38 q 1 -240 164 -240 l -17 -240 l -17 -107 l 0 -106 q 172 294 172 -97 l 172 572 q 0 972 172 964 l -17 974 l -17 1107 l 1 1107 q 248 968 164 1107 q 332 569 332 829 l 332 297 z "},"*":{"ha":474,"x_min":22,"x_max":451,"o":"m 175 835 l 175 876 l 299 876 l 299 833 q 288 742 299 782 q 374 781 326 767 l 413 793 l 451 675 q 319 644 358 647 q 383 576 350 622 l 408 542 l 308 468 q 238 585 257 539 q 167 468 219 539 l 65 542 q 154 644 122 617 q 63 663 107 647 l 22 675 l 61 793 l 101 781 q 186 740 147 767 q 175 835 175 790 z "},"+":{"ha":610,"x_min":29,"x_max":581,"o":"m 581 499 l 581 375 l 382 375 l 382 164 l 228 164 l 228 375 l 29 375 l 29 499 l 228 499 l 228 710 l 382 710 l 382 499 l 581 499 z "},",":{"ha":264,"x_min":47,"x_max":217,"o":"m 47 188 l 217 188 l 217 88 l 100 -197 l 47 -197 l 47 188 z "},"-":{"ha":449,"x_min":56,"x_max":393,"o":"m 56 354 l 56 469 l 393 469 l 393 354 l 56 354 z "},".":{"ha":264,"x_min":47,"x_max":217,"o":"m 47 0 l 47 188 l 217 188 l 217 0 l 47 0 z "},"/":{"ha":550,"x_min":-6,"x_max":528,"o":"m 388 972 l 528 972 l 135 -143 l -6 -143 l 388 972 z "},":":{"ha":264,"x_min":47,"x_max":217,"o":"m 47 478 l 217 478 l 217 204 l 47 204 l 47 478 z "},";":{"ha":264,"x_min":47,"x_max":217,"o":"m 47 494 l 47 682 l 217 682 l 217 494 l 47 494 m 47 188 l 217 188 l 217 88 l 100 -197 l 47 -197 l 47 188 z "},"<":{"ha":629,"x_min":39,"x_max":590,"o":"m 590 556 l 190 439 l 590 321 l 590 188 l 39 365 l 39 515 l 590 689 l 590 556 z "},"=":{"ha":629,"x_min":39,"x_max":590,"o":"m 39 242 l 39 369 l 590 369 l 590 242 l 39 242 m 39 506 l 39 632 l 590 632 l 590 506 l 39 506 z "},">":{"ha":629,"x_min":39,"x_max":590,"o":"m 439 439 l 39 556 l 39 689 l 590 515 l 590 365 l 39 188 l 39 321 l 439 439 z "},"?":{"ha":526,"x_min":28,"x_max":479,"o":"m 179 876 l 328 876 q 479 740 479 876 l 479 521 q 328 385 479 385 l 317 385 l 310 294 l 176 294 l 163 486 l 282 486 q 310 494 303 486 q 318 525 318 503 l 318 722 q 310 753 318 744 q 282 761 303 761 l 226 761 q 197 753 204 761 q 189 722 189 744 l 189 624 l 28 624 l 28 740 q 179 876 28 876 m 157 0 l 157 188 l 326 188 l 326 0 l 157 0 z "},"@":{"ha":1033,"x_min":90,"x_max":969,"o":"m 472 453 l 472 258 q 480 229 472 236 q 510 222 488 222 l 549 222 q 589 267 589 222 l 589 444 q 549 489 589 489 l 510 489 q 480 482 488 489 q 472 453 472 475 m 329 468 q 464 599 329 599 l 497 599 q 592 538 572 599 l 592 599 l 726 599 l 726 221 l 789 221 q 819 228 811 221 q 828 258 828 236 l 828 660 q 819 691 828 683 q 789 699 811 699 l 275 699 q 244 691 253 699 q 236 660 236 683 l 236 44 q 244 15 236 22 q 275 7 253 7 l 728 7 l 728 -111 l 233 -111 q 90 26 90 -111 l 90 679 q 233 817 90 817 l 828 817 q 969 679 969 817 l 969 249 q 828 113 969 113 l 597 113 l 597 188 q 497 113 585 113 l 464 113 q 329 243 329 113 l 329 468 z "},"A":{"ha":599,"x_min":11,"x_max":588,"o":"m 426 0 l 393 182 l 201 182 l 171 0 l 11 0 l 188 876 l 403 876 l 588 0 l 426 0 m 222 303 l 371 303 l 294 722 l 222 303 z "},"B":{"ha":611,"x_min":67,"x_max":551,"o":"m 393 539 l 393 722 q 385 752 393 744 q 353 760 376 760 l 226 760 l 226 501 l 353 501 q 385 509 376 501 q 393 539 393 517 m 393 154 l 393 347 q 385 377 393 369 q 353 385 376 385 l 226 385 l 226 117 l 353 117 q 385 124 376 117 q 393 154 393 132 m 67 876 l 400 876 q 551 739 551 876 l 551 550 q 493 443 551 463 q 551 343 551 424 l 551 138 q 400 0 551 0 l 67 0 l 67 876 z "},"C":{"ha":571,"x_min":60,"x_max":525,"o":"m 525 586 l 364 586 l 364 722 q 356 752 364 744 q 325 760 347 760 l 260 760 q 229 752 238 760 q 221 722 221 744 l 221 153 q 229 123 221 131 q 260 115 238 115 l 325 115 q 356 123 347 115 q 364 153 364 131 l 364 286 l 525 286 l 525 136 q 374 -1 525 -1 l 211 -1 q 60 136 60 -1 l 60 739 q 211 876 60 876 l 374 876 q 525 739 525 876 l 525 586 z "},"D":{"ha":619,"x_min":74,"x_max":558,"o":"m 74 876 l 407 876 q 558 739 558 876 l 558 138 q 407 0 558 0 l 74 0 l 74 876 m 397 154 l 397 722 q 389 752 397 744 q 358 760 381 760 l 233 760 l 233 117 l 358 117 q 389 124 381 117 q 397 154 397 132 z "},"E":{"ha":519,"x_min":67,"x_max":494,"o":"m 228 122 l 494 122 l 494 0 l 67 0 l 67 876 l 483 876 l 483 754 l 228 754 l 228 511 l 443 511 l 443 388 l 228 388 l 228 122 z "},"F":{"ha":504,"x_min":67,"x_max":492,"o":"m 492 754 l 228 754 l 228 488 l 443 488 l 443 371 l 228 371 l 228 0 l 67 0 l 67 876 l 492 876 l 492 754 z "},"G":{"ha":578,"x_min":60,"x_max":525,"o":"m 525 607 l 364 607 l 364 722 q 356 752 364 744 q 325 760 347 760 l 260 760 q 229 752 238 760 q 221 722 221 744 l 221 153 q 229 123 221 131 q 260 115 238 115 l 325 115 q 356 123 347 115 q 364 153 364 131 l 364 347 l 294 347 l 294 460 l 525 460 l 525 136 q 374 -1 525 -1 l 211 -1 q 60 136 60 -1 l 60 739 q 211 876 60 876 l 374 876 q 525 739 525 876 l 525 607 z "},"H":{"ha":633,"x_min":67,"x_max":567,"o":"m 407 876 l 567 876 l 567 0 l 407 0 l 407 374 l 226 374 l 226 0 l 67 0 l 67 876 l 226 876 l 226 496 l 407 496 l 407 876 z "},"I":{"ha":310,"x_min":75,"x_max":235,"o":"m 75 876 l 235 876 l 235 0 l 75 0 l 75 876 z "},"J":{"ha":514,"x_min":18,"x_max":451,"o":"m 18 307 l 178 307 l 178 160 q 186 130 178 138 q 218 122 194 122 l 251 122 q 282 130 274 122 q 290 160 290 138 l 290 876 l 451 876 l 451 138 q 300 0 451 0 l 169 0 q 18 138 18 0 l 18 307 z "},"K":{"ha":592,"x_min":67,"x_max":581,"o":"m 581 876 l 400 440 l 579 0 l 407 0 l 233 440 l 408 876 l 581 876 m 67 0 l 67 876 l 226 876 l 226 0 l 67 0 z "},"L":{"ha":464,"x_min":67,"x_max":460,"o":"m 226 122 l 460 122 l 460 0 l 67 0 l 67 876 l 226 876 l 226 122 z "},"M":{"ha":779,"x_min":67,"x_max":711,"o":"m 208 0 l 67 0 l 67 876 l 242 876 l 389 356 l 536 876 l 711 876 l 711 0 l 571 0 l 571 615 l 454 190 l 325 190 l 208 614 l 208 0 z "},"N":{"ha":619,"x_min":67,"x_max":551,"o":"m 406 876 l 551 876 l 551 0 l 401 0 l 214 581 l 214 0 l 67 0 l 67 876 l 221 876 l 406 304 l 406 876 z "},"O":{"ha":596,"x_min":61,"x_max":533,"o":"m 213 876 l 382 876 q 533 739 533 876 l 533 138 q 382 0 533 0 l 213 0 q 61 138 61 0 l 61 739 q 213 876 61 876 m 374 160 l 374 717 q 365 747 374 739 q 335 754 357 754 l 261 754 q 229 747 238 754 q 221 717 221 739 l 221 160 q 229 130 221 138 q 261 122 238 122 l 335 122 q 365 130 357 122 q 374 160 374 138 z "},"P":{"ha":576,"x_min":67,"x_max":540,"o":"m 67 876 l 389 876 q 540 739 540 876 l 540 460 q 389 322 540 322 l 226 322 l 226 0 l 67 0 l 67 876 m 381 482 l 381 717 q 372 747 381 739 q 342 754 364 754 l 226 754 l 226 444 l 342 444 q 372 452 364 444 q 381 482 381 460 z "},"Q":{"ha":596,"x_min":61,"x_max":571,"o":"m 213 0 q 61 138 61 0 l 61 739 q 213 876 61 876 l 382 876 q 533 739 533 876 l 533 138 q 464 14 533 43 l 571 -117 l 396 -117 l 303 0 l 213 0 m 221 717 l 221 160 q 229 130 221 138 q 261 122 238 122 l 335 122 q 365 130 357 122 q 374 160 374 138 l 374 717 q 365 747 374 739 q 335 754 357 754 l 261 754 q 229 747 238 754 q 221 717 221 739 z "},"R":{"ha":597,"x_min":67,"x_max":585,"o":"m 226 342 l 226 0 l 67 0 l 67 876 l 389 876 q 540 739 540 876 l 540 479 q 439 346 540 365 l 585 0 l 413 0 l 279 342 l 226 342 m 226 754 l 226 460 l 342 460 q 372 467 364 460 q 381 497 381 475 l 381 717 q 372 747 381 739 q 342 754 364 754 l 226 754 z "},"S":{"ha":554,"x_min":50,"x_max":506,"o":"m 344 160 l 344 347 q 336 377 344 369 q 306 385 328 385 l 193 385 q 50 524 50 385 l 50 739 q 200 876 50 876 l 353 876 q 503 739 503 876 l 503 617 l 342 617 l 342 717 q 333 747 342 739 q 303 754 325 754 l 250 754 q 218 747 226 754 q 210 717 210 739 l 210 540 q 218 510 210 518 q 250 503 226 503 l 360 503 q 506 367 506 503 l 506 138 q 354 0 506 0 l 204 0 q 53 138 53 0 l 53 258 l 213 258 l 213 160 q 221 130 213 138 q 253 122 229 122 l 306 122 q 336 130 328 122 q 344 160 344 138 z "},"T":{"ha":481,"x_min":7,"x_max":474,"o":"m 474 876 l 474 754 l 319 754 l 319 0 l 160 0 l 160 754 l 7 754 l 7 876 l 474 876 z "},"U":{"ha":603,"x_min":65,"x_max":538,"o":"m 378 876 l 538 876 l 538 138 q 386 0 538 0 l 217 0 q 65 138 65 0 l 65 876 l 225 876 l 225 160 q 233 130 225 138 q 264 122 242 122 l 338 122 q 369 130 361 122 q 378 160 378 138 l 378 876 z "},"V":{"ha":574,"x_min":8,"x_max":565,"o":"m 401 876 l 565 876 l 392 0 l 182 0 l 8 876 l 174 876 l 286 168 l 401 876 z "},"W":{"ha":938,"x_min":14,"x_max":924,"o":"m 765 876 l 924 876 l 769 0 l 567 0 l 468 618 l 371 0 l 168 0 l 14 876 l 179 876 l 269 165 l 385 876 l 553 876 l 667 165 l 765 876 z "},"X":{"ha":578,"x_min":4,"x_max":574,"o":"m 374 447 l 574 0 l 396 0 l 286 307 l 175 0 l 4 0 l 197 447 l 14 876 l 193 876 l 286 588 l 379 876 l 551 876 l 374 447 z "},"Y":{"ha":565,"x_min":4,"x_max":561,"o":"m 368 0 l 208 0 l 208 278 l 4 876 l 167 876 l 286 426 l 399 876 l 561 876 l 368 282 l 368 0 z "},"Z":{"ha":496,"x_min":17,"x_max":479,"o":"m 479 876 l 479 754 l 181 122 l 472 122 l 472 0 l 17 0 l 17 122 l 315 754 l 32 754 l 32 876 l 479 876 z "},"[":{"ha":435,"x_min":74,"x_max":369,"o":"m 369 968 l 235 968 l 235 -104 l 369 -104 l 369 -226 l 74 -226 l 74 1090 l 369 1090 l 369 968 z "},"\\":{"ha":550,"x_min":22,"x_max":557,"o":"m 22 972 l 164 972 l 557 -143 l 415 -143 l 22 972 z "},"]":{"ha":435,"x_min":47,"x_max":343,"o":"m 343 1090 l 343 -226 l 47 -226 l 47 -104 l 182 -104 l 182 968 l 47 968 l 47 1090 l 343 1090 z "},"^":{"ha":775,"x_min":92,"x_max":657,"o":"m 271 931 l 478 931 l 657 425 l 493 425 l 374 790 l 256 425 l 92 425 l 271 931 z "},"_":{"ha":658,"x_min":0,"x_max":658,"o":"m 0 -175 l 0 -58 l 658 -58 l 658 -175 l 0 -175 z "},"`":{"ha":617,"x_min":153,"x_max":440,"o":"m 321 917 l 440 726 l 310 726 l 153 917 l 321 917 z "},"a":{"ha":547,"x_min":50,"x_max":489,"o":"m 333 682 l 489 682 l 489 0 l 331 0 l 331 58 q 235 0 310 0 l 192 0 q 50 138 50 0 l 50 544 q 192 682 50 682 l 235 682 q 333 615 317 682 l 333 682 m 246 122 l 288 122 q 331 168 331 122 l 331 514 q 288 560 331 560 l 246 560 q 215 552 224 560 q 207 522 207 544 l 207 160 q 215 130 207 138 q 246 122 224 122 z "},"b":{"ha":547,"x_min":60,"x_max":499,"o":"m 314 683 l 356 683 q 499 546 499 683 l 499 138 q 356 0 499 0 l 314 0 q 215 63 235 0 l 215 0 l 60 0 l 60 929 l 217 929 l 217 625 q 314 683 238 683 m 340 160 l 340 524 q 332 553 340 546 q 301 561 324 561 l 260 561 q 217 514 217 561 l 217 168 q 260 122 217 122 l 301 122 q 332 130 324 122 q 340 160 340 138 z "},"c":{"ha":528,"x_min":50,"x_max":489,"o":"m 489 453 l 335 453 l 335 522 q 326 552 335 544 q 296 560 318 560 l 246 560 q 215 552 224 560 q 207 522 207 544 l 207 160 q 215 130 207 138 q 246 122 224 122 l 296 122 q 326 130 318 122 q 335 160 335 138 l 335 231 l 489 231 l 489 138 q 338 0 489 0 l 201 0 q 50 138 50 0 l 50 544 q 201 682 50 682 l 338 682 q 489 544 489 682 l 489 453 z "},"d":{"ha":547,"x_min":50,"x_max":489,"o":"m 331 929 l 489 929 l 489 0 l 333 0 l 333 68 q 235 0 317 0 l 192 0 q 50 138 50 0 l 50 546 q 192 683 50 683 l 235 683 q 331 625 310 683 l 331 929 m 246 122 l 288 122 q 331 168 331 122 l 331 514 q 321 551 331 540 q 288 561 311 561 l 246 561 q 215 553 224 561 q 207 524 207 546 l 207 160 q 215 130 207 138 q 246 122 224 122 z "},"e":{"ha":544,"x_min":53,"x_max":501,"o":"m 204 682 l 351 682 q 501 544 501 682 l 501 296 l 206 296 l 206 156 q 213 126 206 133 q 244 118 221 118 l 308 118 q 339 126 331 118 q 347 156 347 133 l 347 207 l 500 207 l 500 138 q 349 0 500 0 l 204 0 q 53 138 53 0 l 53 544 q 204 682 53 682 m 206 397 l 350 397 l 350 528 q 342 558 350 550 q 311 565 333 565 l 244 565 q 214 558 222 565 q 206 528 206 550 l 206 397 z "},"f":{"ha":344,"x_min":10,"x_max":338,"o":"m 338 806 l 275 806 q 244 798 253 806 q 236 768 236 790 l 236 682 l 338 682 l 338 560 l 236 560 l 236 0 l 79 0 l 79 560 l 10 560 l 10 682 l 79 682 l 79 792 q 229 929 79 929 l 338 929 l 338 806 z "},"g":{"ha":547,"x_min":50,"x_max":489,"o":"m 333 682 l 489 682 l 489 -51 q 338 -189 489 -189 l 75 -189 l 75 -69 l 292 -69 q 322 -62 314 -69 q 331 -32 331 -54 l 331 76 q 235 18 310 18 l 192 18 q 50 156 50 18 l 50 544 q 192 682 50 682 l 235 682 q 333 615 317 682 l 333 682 m 246 140 l 288 140 q 321 151 311 140 q 331 188 331 161 l 331 514 q 288 560 331 560 l 246 560 q 215 552 224 560 q 207 522 207 544 l 207 178 q 215 148 207 156 q 246 140 224 140 z "},"h":{"ha":554,"x_min":60,"x_max":499,"o":"m 314 682 l 356 682 q 499 544 499 682 l 499 0 l 340 0 l 340 522 q 332 552 340 544 q 301 560 324 560 l 260 560 q 217 514 217 560 l 217 0 l 60 0 l 60 929 l 217 929 l 217 624 q 314 682 238 682 z "},"i":{"ha":276,"x_min":56,"x_max":221,"o":"m 56 793 l 56 931 l 221 931 l 221 793 l 56 793 m 217 0 l 60 0 l 60 682 l 217 682 l 217 0 z "},"j":{"ha":276,"x_min":-11,"x_max":221,"o":"m 56 793 l 56 931 l 221 931 l 221 793 l 56 793 m 60 -32 l 60 682 l 217 682 l 217 -51 q 65 -189 217 -189 l -11 -189 l -11 -69 l 19 -69 q 51 -62 43 -69 q 60 -32 60 -54 z "},"k":{"ha":543,"x_min":60,"x_max":542,"o":"m 542 682 l 389 354 l 542 0 l 376 0 l 229 354 l 378 682 l 542 682 m 60 0 l 60 929 l 217 929 l 217 0 l 60 0 z "},"l":{"ha":276,"x_min":60,"x_max":217,"o":"m 217 0 l 60 0 l 60 929 l 217 929 l 217 0 z "},"m":{"ha":832,"x_min":60,"x_max":779,"o":"m 594 682 l 638 682 q 779 544 779 682 l 779 0 l 622 0 l 622 522 q 614 552 622 544 q 583 560 606 560 l 542 560 q 499 514 499 560 l 499 0 l 340 0 l 340 522 q 332 552 340 544 q 301 560 324 560 l 260 560 q 217 514 217 560 l 217 0 l 60 0 l 60 682 l 215 682 l 215 619 q 314 682 235 682 l 356 682 q 486 613 458 682 q 594 682 506 682 z "},"n":{"ha":554,"x_min":60,"x_max":499,"o":"m 314 682 l 356 682 q 499 544 499 682 l 499 0 l 340 0 l 340 522 q 332 552 340 544 q 301 560 324 560 l 260 560 q 217 514 217 560 l 217 0 l 60 0 l 60 682 l 215 682 l 215 619 q 314 682 235 682 z "},"o":{"ha":558,"x_min":53,"x_max":506,"o":"m 201 682 l 358 682 q 506 544 506 682 l 506 138 q 358 0 506 0 l 201 0 q 53 138 53 0 l 53 544 q 201 682 53 682 m 351 156 l 351 526 q 343 556 351 549 q 311 564 335 564 l 247 564 q 215 556 224 564 q 207 526 207 549 l 207 156 q 215 126 207 133 q 247 118 224 118 l 311 118 q 343 126 335 118 q 351 156 351 133 z "},"p":{"ha":547,"x_min":60,"x_max":499,"o":"m 314 682 l 356 682 q 499 544 499 682 l 499 138 q 356 0 499 0 l 314 0 q 217 58 238 0 l 217 -189 l 60 -189 l 60 682 l 215 682 l 215 619 q 314 682 235 682 m 340 160 l 340 522 q 332 552 340 544 q 301 560 324 560 l 260 560 q 217 514 217 560 l 217 168 q 260 122 217 122 l 301 122 q 332 130 324 122 q 340 160 340 138 z "},"q":{"ha":547,"x_min":50,"x_max":489,"o":"m 333 682 l 489 682 l 489 -189 l 331 -189 l 331 58 q 235 0 310 0 l 192 0 q 50 138 50 0 l 50 544 q 192 682 50 682 l 235 682 q 333 615 317 682 l 333 682 m 246 122 l 288 122 q 331 168 331 122 l 331 514 q 288 560 331 560 l 246 560 q 215 552 224 560 q 207 522 207 544 l 207 160 q 215 130 207 138 q 246 122 224 122 z "},"r":{"ha":369,"x_min":60,"x_max":363,"o":"m 338 685 l 363 685 l 363 549 l 304 549 q 217 449 217 549 l 217 0 l 60 0 l 60 682 l 215 682 l 215 594 q 258 660 226 635 q 338 685 290 685 z "},"s":{"ha":503,"x_min":43,"x_max":461,"o":"m 307 150 l 307 246 q 299 276 307 268 q 267 283 290 283 l 192 283 q 43 419 43 283 l 43 544 q 194 682 43 682 l 304 682 q 454 544 454 682 l 454 481 l 303 481 l 303 532 q 294 562 303 554 q 264 569 286 569 l 236 569 q 204 562 213 569 q 196 532 196 554 l 196 432 q 204 402 196 410 q 236 394 213 394 l 311 394 q 461 258 461 394 l 461 138 q 310 0 461 0 l 197 0 q 46 138 46 0 l 46 200 l 200 200 l 200 150 q 208 120 200 128 q 239 113 217 113 l 267 113 q 299 120 290 113 q 307 150 307 128 z "},"t":{"ha":339,"x_min":7,"x_max":325,"o":"m 325 560 l 232 560 l 232 164 q 240 134 232 142 q 272 126 249 126 l 324 126 l 324 0 l 226 0 q 75 138 75 0 l 75 560 l 7 560 l 7 682 l 75 682 l 75 804 l 232 804 l 232 682 l 325 682 l 325 560 z "},"u":{"ha":554,"x_min":57,"x_max":496,"o":"m 338 682 l 496 682 l 496 0 l 340 0 l 340 68 q 242 0 324 0 l 199 0 q 57 138 57 0 l 57 682 l 214 682 l 214 160 q 222 130 214 138 q 253 122 231 122 l 294 122 q 338 168 338 122 l 338 682 z "},"v":{"ha":497,"x_min":4,"x_max":493,"o":"m 161 682 l 249 147 l 336 682 l 493 682 l 353 0 l 144 0 l 4 682 l 161 682 z "},"w":{"ha":810,"x_min":7,"x_max":803,"o":"m 656 682 l 803 682 l 669 0 l 485 0 l 403 482 l 321 0 l 136 0 l 7 682 l 154 682 l 233 150 l 322 682 l 488 682 l 571 151 l 656 682 z "},"x":{"ha":518,"x_min":7,"x_max":514,"o":"m 343 350 l 514 0 l 351 0 l 257 226 l 167 0 l 7 0 l 171 349 l 11 682 l 178 682 l 258 469 l 336 682 l 497 682 l 343 350 z "},"y":{"ha":524,"x_min":8,"x_max":517,"o":"m 175 -189 l 82 -189 l 82 -68 l 153 -68 q 228 -19 214 -68 l 239 25 l 164 25 l 8 682 l 171 682 l 268 157 l 358 682 l 517 682 l 364 -42 q 175 -189 328 -189 z "},"z":{"ha":446,"x_min":18,"x_max":428,"o":"m 428 118 l 428 0 l 18 0 l 18 118 l 257 564 l 33 564 l 33 682 l 422 682 l 422 564 l 181 118 l 428 118 z "},"{":{"ha":410,"x_min":14,"x_max":399,"o":"m 301 936 l 301 604 q 196 433 301 451 q 301 272 301 422 l 301 -69 q 343 -108 301 -108 l 399 -108 l 399 -225 l 286 -225 q 142 -82 142 -225 l 142 236 q 116 342 142 308 q 33 376 90 376 l 14 376 l 14 492 l 33 492 q 116 525 90 492 q 142 632 142 558 l 142 949 q 286 1090 142 1090 l 399 1090 l 399 975 l 343 975 q 301 936 301 975 z "},"|":{"ha":301,"x_min":74,"x_max":222,"o":"m 74 1068 l 222 1068 l 222 -194 l 74 -194 l 74 1068 z "},"}":{"ha":410,"x_min":11,"x_max":396,"o":"m 107 604 l 107 936 q 65 975 107 975 l 11 975 l 11 1090 l 124 1090 q 267 949 267 1090 l 267 632 q 292 525 267 558 q 376 492 318 492 l 396 492 l 396 376 l 376 376 q 292 342 318 376 q 267 236 267 308 l 267 -82 q 124 -225 267 -225 l 11 -225 l 11 -108 l 65 -108 q 107 -69 107 -108 l 107 272 q 135 386 107 344 q 214 433 163 428 q 107 604 107 451 z "},"~":{"ha":807,"x_min":99,"x_max":707,"o":"m 517 293 q 426 321 467 293 q 352 376 386 349 q 289 404 318 404 q 251 393 260 404 q 243 357 243 382 l 243 293 l 99 293 l 99 392 q 129 483 99 453 q 226 513 160 513 l 290 513 q 381 485 340 513 q 456 429 421 457 q 519 401 490 401 q 555 412 547 401 q 563 449 563 422 l 563 511 l 707 511 l 707 413 q 676 323 707 353 q 578 293 646 293 l 517 293 z "}," ":{"ha":224,"x_min":0,"x_max":0,"o":""},"¡":{"ha":325,"x_min":69,"x_max":256,"o":"m 256 -194 l 69 -194 l 97 388 l 228 388 l 256 -194 m 78 494 l 78 682 l 246 682 l 246 494 l 78 494 z "},"¢":{"ha":528,"x_min":50,"x_max":489,"o":"m 489 453 l 335 453 l 335 522 q 326 552 335 544 q 296 560 318 560 l 246 560 q 215 552 224 560 q 207 522 207 544 l 207 160 q 215 130 207 138 q 246 122 224 122 l 296 122 q 326 130 318 122 q 335 160 335 138 l 335 231 l 489 231 l 489 138 q 349 0 489 6 l 349 -107 l 197 -107 l 197 0 q 50 138 50 1 l 50 544 q 197 682 50 681 l 197 790 l 349 790 l 349 682 q 489 544 489 676 l 489 453 z "},"£":{"ha":585,"x_min":39,"x_max":557,"o":"m 557 122 l 557 0 l 39 0 l 39 117 q 91 148 78 119 q 104 243 104 176 l 104 361 l 39 361 l 39 478 l 104 478 l 104 739 q 256 876 104 876 l 400 876 q 551 739 551 876 l 551 611 l 392 611 l 392 717 q 383 747 392 739 q 351 754 375 754 l 304 754 q 274 747 282 754 q 265 717 265 739 l 265 478 l 454 478 l 454 361 l 265 361 l 265 231 q 228 122 265 147 l 557 122 z "},"¤":{"ha":717,"x_min":69,"x_max":643,"o":"m 597 515 l 597 315 q 585 229 597 265 l 643 171 l 546 72 l 474 144 q 424 140 450 140 l 299 140 q 242 146 264 140 l 168 72 l 69 171 l 136 238 q 126 315 126 268 l 126 515 q 140 604 126 568 l 69 675 l 168 772 l 254 688 q 299 690 282 690 l 424 690 q 461 689 450 690 l 546 772 l 643 675 l 581 613 q 597 515 597 574 m 332 253 l 389 253 q 445 266 429 253 q 461 324 461 279 l 461 507 q 445 565 461 551 q 389 578 429 578 l 332 578 q 276 565 292 578 q 261 507 261 551 l 261 324 q 276 266 261 279 q 332 253 292 253 z "},"¥":{"ha":590,"x_min":15,"x_max":576,"o":"m 556 490 l 556 381 l 413 381 l 388 308 l 556 308 l 556 200 l 378 200 l 378 0 l 218 0 l 218 200 l 39 200 l 39 308 l 208 308 l 185 381 l 39 381 l 39 490 l 147 490 l 15 876 l 176 876 l 297 440 l 414 876 l 576 876 l 449 490 l 556 490 z "},"¦":{"ha":301,"x_min":67,"x_max":228,"o":"m 228 522 l 67 522 l 67 1007 l 228 1007 l 228 522 m 67 353 l 228 353 l 228 -133 l 67 -133 l 67 353 z "},"§":{"ha":631,"x_min":76,"x_max":554,"o":"m 554 733 l 397 733 l 397 778 q 389 808 397 800 q 358 815 381 815 l 310 815 q 278 808 286 815 q 269 778 269 800 l 269 681 q 278 651 269 658 q 310 643 286 643 l 399 643 q 550 506 550 643 l 550 399 q 501 272 550 304 q 519 193 519 242 l 519 67 q 368 -71 519 -71 l 228 -71 q 76 67 76 -71 l 76 125 l 233 125 l 233 79 q 242 49 233 57 q 274 42 250 42 l 322 42 q 353 49 344 42 q 361 79 361 57 l 361 176 q 353 206 361 199 q 322 214 344 214 l 232 214 q 81 351 81 214 l 81 450 q 135 579 81 547 q 113 664 113 611 l 113 792 q 264 928 113 928 l 403 928 q 554 792 554 928 l 554 733 m 360 528 l 271 528 q 240 520 249 528 q 232 490 232 513 l 232 368 q 240 338 232 346 q 271 331 247 331 l 360 331 q 391 338 383 331 q 399 368 399 346 l 399 490 q 390 520 399 513 q 360 528 382 528 z "},"¨":{"ha":617,"x_min":86,"x_max":531,"o":"m 369 751 l 369 897 l 531 897 l 531 751 l 369 751 m 86 751 l 86 897 l 247 897 l 247 751 l 86 751 z "},"©":{"ha":1003,"x_min":57,"x_max":960,"o":"m 568 346 l 568 385 l 693 385 l 693 325 q 571 211 693 211 l 447 211 q 324 325 324 211 l 324 563 q 447 675 324 675 l 571 675 q 693 563 693 675 l 693 503 l 568 503 l 568 542 q 561 568 568 561 q 533 575 554 575 l 483 575 q 456 568 463 575 q 449 542 449 561 l 449 346 q 456 319 449 326 q 483 313 463 313 l 533 313 q 561 319 554 313 q 568 346 568 326 m 396 107 l 621 107 q 781 174 733 107 q 828 385 828 240 l 828 485 q 780 701 828 631 q 621 771 732 771 l 396 771 q 236 701 285 771 q 188 485 188 631 l 188 385 q 235 174 188 240 q 396 107 283 107 m 960 472 l 960 397 q 886 99 960 197 q 642 0 813 0 l 375 0 q 130 99 203 0 q 57 397 57 197 l 57 472 q 131 774 57 672 q 375 876 204 876 l 642 876 q 886 774 813 876 q 960 472 960 672 z "},"ª":{"ha":389,"x_min":35,"x_max":347,"o":"m 247 876 l 347 876 l 347 394 l 246 394 l 246 432 q 183 394 233 394 l 136 394 q 35 492 35 394 l 35 779 q 136 876 35 876 l 181 876 q 247 833 235 876 l 247 876 m 164 481 l 215 481 q 246 514 246 481 l 246 760 q 215 792 246 792 l 164 792 q 142 786 149 792 q 136 765 136 781 l 136 507 q 142 486 136 492 q 164 481 149 481 z "},"«":{"ha":685,"x_min":43,"x_max":646,"o":"m 489 142 l 328 356 l 489 569 l 646 569 l 485 356 l 646 142 l 489 142 m 204 142 l 43 356 l 204 569 l 361 569 l 199 356 l 361 142 l 204 142 z "},"¬":{"ha":682,"x_min":54,"x_max":615,"o":"m 615 563 l 615 200 l 499 200 l 499 403 l 54 403 l 54 563 l 615 563 z "},"­":{"ha":449,"x_min":56,"x_max":393,"o":"m 56 354 l 56 469 l 393 469 l 393 354 l 56 354 z "},"®":{"ha":601,"x_min":46,"x_max":556,"o":"m 325 757 l 325 821 q 315 831 325 831 l 281 831 l 281 747 l 315 747 q 325 757 325 747 m 221 875 l 331 875 q 383 826 383 875 l 383 750 q 350 703 383 711 l 399 593 l 336 593 l 292 700 l 281 700 l 281 593 l 221 593 l 221 875 m 238 549 l 364 549 q 454 585 428 549 q 481 701 481 621 l 481 758 q 453 878 481 840 q 364 917 426 917 l 238 917 q 148 878 175 917 q 121 758 121 839 l 121 701 q 148 585 121 621 q 238 549 175 549 m 556 751 l 556 710 q 514 542 556 597 q 375 486 472 486 l 225 486 q 87 542 128 486 q 46 710 46 597 l 46 751 q 87 922 46 864 q 225 979 128 979 l 375 979 q 514 922 472 979 q 556 751 556 864 z "},"¯":{"ha":617,"x_min":97,"x_max":518,"o":"m 97 767 l 97 876 l 518 876 l 518 767 l 97 767 z "},"°":{"ha":572,"x_min":69,"x_max":499,"o":"m 353 604 l 353 732 q 344 760 353 753 q 313 768 336 768 l 256 768 q 224 760 232 768 q 215 732 215 753 l 215 604 q 224 576 215 583 q 256 568 232 568 l 313 568 q 344 576 336 568 q 353 604 353 583 m 499 740 l 499 596 q 351 460 499 460 l 217 460 q 69 596 69 460 l 69 740 q 217 876 69 876 l 351 876 q 499 740 499 876 z "},"±":{"ha":629,"x_min":39,"x_max":590,"o":"m 392 619 l 590 619 l 590 499 l 392 499 l 392 390 l 238 390 l 238 499 l 39 499 l 39 619 l 238 619 l 238 726 l 392 726 l 392 619 m 39 224 l 39 347 l 590 347 l 590 224 l 39 224 z "},"²":{"ha":315,"x_min":19,"x_max":289,"o":"m 121 781 l 121 711 l 19 711 l 19 801 q 101 876 19 876 l 204 876 q 288 801 288 876 l 288 751 q 247 628 288 678 l 142 474 l 289 474 l 289 394 l 19 394 l 19 468 l 160 658 q 185 749 185 690 l 185 781 q 164 801 185 801 l 142 801 q 121 781 121 801 z "},"³":{"ha":325,"x_min":21,"x_max":292,"o":"m 122 781 l 122 724 l 21 724 l 21 801 q 104 876 21 876 l 208 876 q 292 801 292 876 l 292 696 q 260 638 292 647 q 292 582 292 626 l 292 469 q 208 394 292 394 l 104 394 q 21 469 21 394 l 21 547 l 122 547 l 122 490 q 144 469 122 469 l 169 469 q 186 474 182 469 q 190 490 190 478 l 190 579 q 186 596 190 592 q 169 600 182 600 l 124 600 l 124 672 l 169 672 q 190 693 190 672 l 190 781 q 169 801 190 801 l 144 801 q 122 781 122 801 z "},"´":{"ha":617,"x_min":163,"x_max":450,"o":"m 163 726 l 282 917 l 450 917 l 293 726 l 163 726 z "},"µ":{"ha":563,"x_min":56,"x_max":494,"o":"m 338 682 l 494 682 l 494 0 l 339 0 l 339 68 q 240 0 322 0 l 213 0 l 213 -189 l 56 -189 l 56 682 l 213 682 l 213 160 q 221 130 213 138 q 253 122 229 122 l 294 122 q 338 168 338 122 l 338 682 z "},"¶":{"ha":729,"x_min":60,"x_max":647,"o":"m 513 876 l 647 876 l 647 -189 l 513 -189 l 513 876 m 417 876 l 417 -189 l 281 -189 l 281 307 l 211 307 q 60 444 60 307 l 60 739 q 211 876 60 876 l 417 876 z "},"·":{"ha":324,"x_min":53,"x_max":222,"o":"m 53 360 l 53 540 l 222 540 l 222 360 l 53 360 z "},"¸":{"ha":617,"x_min":179,"x_max":432,"o":"m 283 -132 l 283 -68 l 432 -68 l 432 -144 q 272 -289 432 -289 l 179 -289 l 179 -174 l 240 -174 q 283 -132 283 -174 z "},"¹":{"ha":231,"x_min":15,"x_max":178,"o":"m 178 876 l 178 394 l 74 394 l 74 801 l 15 801 l 15 876 l 178 876 z "},"º":{"ha":378,"x_min":36,"x_max":343,"o":"m 140 876 l 238 876 q 343 779 343 876 l 343 492 q 238 394 343 394 l 140 394 q 36 492 36 394 l 36 779 q 140 876 36 876 m 242 496 l 242 775 q 235 796 242 790 q 213 801 229 801 l 165 801 q 143 796 149 801 q 138 775 138 790 l 138 496 q 143 475 138 481 q 165 469 149 469 l 213 469 q 235 475 229 469 q 242 496 242 481 z "},"»":{"ha":685,"x_min":43,"x_max":646,"o":"m 646 356 l 485 142 l 328 142 l 489 356 l 328 569 l 485 569 l 646 356 m 361 356 l 200 142 l 43 142 l 204 356 l 43 569 l 200 569 l 361 356 z "},"¿":{"ha":526,"x_min":28,"x_max":479,"o":"m 318 58 l 479 58 l 479 -58 q 328 -194 479 -194 l 179 -194 q 28 -58 28 -194 l 28 161 q 179 297 28 297 l 190 297 l 197 388 l 331 388 l 344 196 l 225 196 q 197 188 204 196 q 189 157 189 179 l 189 -40 q 197 -71 189 -62 q 225 -79 204 -79 l 281 -79 q 310 -71 303 -79 q 318 -40 318 -62 l 318 58 m 350 682 l 350 494 l 181 494 l 181 682 l 350 682 z "},"À":{"ha":599,"x_min":11,"x_max":588,"o":"m 426 0 l 393 182 l 201 182 l 171 0 l 11 0 l 188 876 l 403 876 l 588 0 l 426 0 m 222 303 l 371 303 l 294 722 l 222 303 m 351 921 l 221 921 l 64 1111 l 232 1111 l 351 921 z "},"Á":{"ha":599,"x_min":11,"x_max":588,"o":"m 426 0 l 393 182 l 201 182 l 171 0 l 11 0 l 188 876 l 403 876 l 588 0 l 426 0 m 222 303 l 371 303 l 294 722 l 222 303 m 519 1111 l 363 921 l 232 921 l 351 1111 l 519 1111 z "},"Â":{"ha":599,"x_min":11,"x_max":588,"o":"m 426 0 l 393 182 l 201 182 l 171 0 l 11 0 l 188 876 l 403 876 l 588 0 l 426 0 m 222 303 l 371 303 l 294 722 l 222 303 m 294 1028 l 222 921 l 67 921 l 214 1111 l 376 1111 l 524 921 l 368 921 l 294 1028 z "},"Ã":{"ha":599,"x_min":11,"x_max":588,"o":"m 426 0 l 393 182 l 201 182 l 171 0 l 11 0 l 188 876 l 403 876 l 588 0 l 426 0 m 222 303 l 371 303 l 294 722 l 222 303 m 200 949 l 200 921 l 69 921 l 69 965 q 96 1053 69 1024 q 186 1083 122 1083 l 203 1083 q 290 1053 242 1083 q 349 1024 338 1024 q 374 1056 374 1024 l 374 1083 l 504 1083 l 504 1035 q 478 949 504 978 q 388 921 451 921 l 374 921 q 285 951 335 921 q 225 981 236 981 q 200 949 200 981 z "},"Ä":{"ha":599,"x_min":11,"x_max":588,"o":"m 426 0 l 393 182 l 201 182 l 171 0 l 11 0 l 188 876 l 403 876 l 588 0 l 426 0 m 222 303 l 371 303 l 294 722 l 222 303 m 233 1065 l 233 919 l 72 919 l 72 1065 l 233 1065 m 517 1065 l 517 919 l 356 919 l 356 1065 l 517 1065 z "},"Å":{"ha":599,"x_min":11,"x_max":588,"o":"m 426 0 l 393 182 l 201 182 l 171 0 l 11 0 l 188 876 l 403 876 l 588 0 l 426 0 m 222 303 l 371 303 l 294 722 l 222 303 m 346 919 l 246 919 q 133 1024 133 919 l 133 1047 q 246 1153 133 1153 l 346 1153 q 458 1047 458 1153 l 458 1024 q 346 919 458 919 m 238 1042 l 238 1029 q 244 1003 238 1010 q 272 997 251 997 l 319 997 q 347 1003 340 997 q 354 1029 354 1010 l 354 1042 q 347 1068 354 1061 q 319 1075 340 1075 l 272 1075 q 244 1068 251 1075 q 238 1042 238 1061 z "},"Æ":{"ha":881,"x_min":11,"x_max":853,"o":"m 585 122 l 853 122 l 853 0 l 431 0 l 431 193 l 239 193 l 169 0 l 11 0 l 343 876 l 842 876 l 842 754 l 585 754 l 585 511 l 800 511 l 800 388 l 585 388 l 585 122 m 431 313 l 431 719 l 283 313 l 431 313 z "},"Ç":{"ha":571,"x_min":60,"x_max":525,"o":"m 525 586 l 364 586 l 364 722 q 356 752 364 744 q 325 760 347 760 l 260 760 q 229 752 238 760 q 221 722 221 744 l 221 153 q 229 123 221 131 q 260 115 238 115 l 325 115 q 356 123 347 115 q 364 153 364 131 l 364 286 l 525 286 l 525 136 q 374 -1 525 -1 l 211 -1 q 60 136 60 -1 l 60 739 q 211 876 60 876 l 374 876 q 525 739 525 876 l 525 586 m 219 -132 l 219 -68 l 368 -68 l 368 -144 q 208 -289 368 -289 l 115 -289 l 115 -174 l 176 -174 q 219 -132 219 -174 z "},"È":{"ha":519,"x_min":54,"x_max":494,"o":"m 228 122 l 494 122 l 494 0 l 67 0 l 67 876 l 483 876 l 483 754 l 228 754 l 228 511 l 443 511 l 443 388 l 228 388 l 228 122 m 342 921 l 211 921 l 54 1111 l 222 1111 l 342 921 z "},"É":{"ha":519,"x_min":67,"x_max":494,"o":"m 228 388 l 228 122 l 494 122 l 494 0 l 67 0 l 67 876 l 483 876 l 483 754 l 228 754 l 228 511 l 443 511 l 443 388 l 228 388 m 494 1111 l 338 921 l 207 921 l 326 1111 l 494 1111 z "},"Ê":{"ha":519,"x_min":50,"x_max":507,"o":"m 228 388 l 228 122 l 494 122 l 494 0 l 67 0 l 67 876 l 483 876 l 483 754 l 228 754 l 228 511 l 443 511 l 443 388 l 228 388 m 278 1028 l 206 921 l 50 921 l 197 1111 l 360 1111 l 507 921 l 351 921 l 278 1028 z "},"Ë":{"ha":550,"x_min":53,"x_max":497,"o":"m 336 1065 l 497 1065 l 497 919 l 336 919 l 336 1065 m 228 388 l 228 122 l 494 122 l 494 0 l 67 0 l 67 876 l 483 876 l 483 754 l 228 754 l 228 511 l 443 511 l 443 388 l 228 388 m 214 1065 l 214 919 l 53 919 l 53 1065 l 214 1065 z "},"Ì":{"ha":310,"x_min":-68,"x_max":235,"o":"m 100 1111 l 219 921 l 89 921 l -68 1111 l 100 1111 m 75 876 l 235 876 l 235 0 l 75 0 l 75 876 z "},"Í":{"ha":310,"x_min":75,"x_max":378,"o":"m 90 921 l 210 1111 l 378 1111 l 221 921 l 90 921 m 75 876 l 235 876 l 235 0 l 75 0 l 75 876 z "},"Î":{"ha":310,"x_min":-74,"x_max":383,"o":"m -74 921 l 74 1111 l 236 1111 l 383 921 l 228 921 l 154 1028 l 82 921 l -74 921 m 75 876 l 235 876 l 235 0 l 75 0 l 75 876 z "},"Ï":{"ha":310,"x_min":-68,"x_max":376,"o":"m 75 876 l 235 876 l 235 0 l 75 0 l 75 876 m 215 919 l 215 1065 l 376 1065 l 376 919 l 215 919 m -68 919 l -68 1065 l 93 1065 l 93 919 l -68 919 z "},"Ð":{"ha":618,"x_min":1,"x_max":558,"o":"m 74 876 l 407 876 q 558 739 558 876 l 558 138 q 407 0 558 0 l 74 0 l 74 385 l 1 385 l 1 500 l 74 500 l 74 876 m 397 154 l 397 722 q 389 752 397 744 q 358 760 381 760 l 233 760 l 233 500 l 329 500 l 329 385 l 233 385 l 233 117 l 358 117 q 389 124 381 117 q 397 154 397 132 z "},"Ñ":{"ha":619,"x_min":67,"x_max":551,"o":"m 397 921 q 309 951 358 921 q 249 981 260 981 q 224 949 224 981 l 224 921 l 93 921 l 93 965 q 119 1053 93 1024 q 210 1083 146 1083 l 226 1083 q 313 1053 265 1083 q 372 1024 361 1024 q 397 1056 397 1024 l 397 1083 l 528 1083 l 528 1035 q 501 949 528 978 q 411 921 475 921 l 397 921 m 406 876 l 551 876 l 551 0 l 401 0 l 214 581 l 214 0 l 67 0 l 67 876 l 221 876 l 406 304 l 406 876 z "},"Ò":{"ha":596,"x_min":61,"x_max":533,"o":"m 213 876 l 382 876 q 533 739 533 876 l 533 138 q 382 0 533 0 l 213 0 q 61 138 61 0 l 61 739 q 213 876 61 876 m 374 160 l 374 717 q 365 747 374 739 q 335 754 357 754 l 261 754 q 229 747 238 754 q 221 717 221 739 l 221 160 q 229 130 221 138 q 261 122 238 122 l 335 122 q 365 130 357 122 q 374 160 374 138 m 353 921 l 222 921 l 65 1111 l 233 1111 l 353 921 z "},"Ó":{"ha":596,"x_min":61,"x_max":533,"o":"m 213 876 l 382 876 q 533 739 533 876 l 533 138 q 382 0 533 0 l 213 0 q 61 138 61 0 l 61 739 q 213 876 61 876 m 374 160 l 374 717 q 365 747 374 739 q 335 754 357 754 l 261 754 q 229 747 238 754 q 221 717 221 739 l 221 160 q 229 130 221 138 q 261 122 238 122 l 335 122 q 365 130 357 122 q 374 160 374 138 m 515 1111 l 358 921 l 228 921 l 347 1111 l 515 1111 z "},"Ô":{"ha":596,"x_min":61,"x_max":533,"o":"m 213 876 l 382 876 q 533 739 533 876 l 533 138 q 382 0 533 0 l 213 0 q 61 138 61 0 l 61 739 q 213 876 61 876 m 374 160 l 374 717 q 365 747 374 739 q 335 754 357 754 l 261 754 q 229 747 238 754 q 221 717 221 739 l 221 160 q 229 130 221 138 q 261 122 238 122 l 335 122 q 365 130 357 122 q 374 160 374 138 m 294 1028 l 222 921 l 67 921 l 214 1111 l 376 1111 l 524 921 l 368 921 l 294 1028 z "},"Õ":{"ha":596,"x_min":61,"x_max":533,"o":"m 213 876 l 382 876 q 533 739 533 876 l 533 138 q 382 0 533 0 l 213 0 q 61 138 61 0 l 61 739 q 213 876 61 876 m 374 160 l 374 717 q 365 747 374 739 q 335 754 357 754 l 261 754 q 229 747 238 754 q 221 717 221 739 l 221 160 q 229 130 221 138 q 261 122 238 122 l 335 122 q 365 130 357 122 q 374 160 374 138 m 208 949 l 208 921 l 78 921 l 78 965 q 104 1053 78 1024 q 194 1083 131 1083 l 211 1083 q 298 1053 250 1083 q 357 1024 346 1024 q 382 1056 382 1024 l 382 1083 l 513 1083 l 513 1035 q 486 949 513 978 q 396 921 460 921 l 382 921 q 294 951 343 921 q 233 981 244 981 q 208 949 208 981 z "},"Ö":{"ha":586,"x_min":61,"x_max":533,"o":"m 213 876 l 382 876 q 533 739 533 876 l 533 138 q 382 0 533 0 l 213 0 q 61 138 61 0 l 61 739 q 213 876 61 876 m 374 160 l 374 717 q 365 747 374 739 q 335 754 357 754 l 261 754 q 229 747 238 754 q 221 717 221 739 l 221 160 q 229 130 221 138 q 261 122 238 122 l 335 122 q 365 130 357 122 q 374 160 374 138 m 236 1065 l 236 919 l 75 919 l 75 1065 l 236 1065 m 519 1065 l 519 919 l 358 919 l 358 1065 l 519 1065 z "},"×":{"ha":567,"x_min":32,"x_max":535,"o":"m 535 589 l 378 432 l 535 275 l 440 181 l 283 338 l 126 181 l 32 275 l 189 432 l 32 589 l 126 683 l 283 526 l 440 683 l 535 589 z "},"Ø":{"ha":603,"x_min":61,"x_max":546,"o":"m 538 739 l 538 138 q 386 0 538 0 l 217 0 q 158 7 186 0 l 143 -28 l 61 -28 l 93 44 q 65 138 65 78 l 65 739 q 217 876 65 876 l 386 876 q 447 869 419 876 l 463 904 l 546 904 l 513 828 q 538 739 538 794 m 218 725 l 218 336 l 385 724 l 385 725 q 376 755 385 747 q 344 763 368 763 l 258 763 q 226 755 235 763 q 218 725 218 747 m 385 151 l 385 532 l 218 146 q 228 121 219 128 q 258 114 236 114 l 344 114 q 376 122 368 114 q 385 151 385 129 z "},"Ù":{"ha":603,"x_min":65,"x_max":538,"o":"m 378 876 l 538 876 l 538 138 q 386 0 538 0 l 217 0 q 65 138 65 0 l 65 876 l 225 876 l 225 160 q 233 130 225 138 q 264 122 242 122 l 338 122 q 369 130 361 122 q 378 160 378 138 l 378 876 m 365 921 l 235 921 l 78 1111 l 246 1111 l 365 921 z "},"Ú":{"ha":603,"x_min":65,"x_max":538,"o":"m 378 876 l 538 876 l 538 138 q 386 0 538 0 l 217 0 q 65 138 65 0 l 65 876 l 225 876 l 225 160 q 233 130 225 138 q 264 122 242 122 l 338 122 q 369 130 361 122 q 378 160 378 138 l 378 876 m 518 1111 l 361 921 l 231 921 l 350 1111 l 518 1111 z "},"Û":{"ha":603,"x_min":65,"x_max":538,"o":"m 378 876 l 538 876 l 538 138 q 386 0 538 0 l 217 0 q 65 138 65 0 l 65 876 l 225 876 l 225 160 q 233 130 225 138 q 264 122 242 122 l 338 122 q 369 130 361 122 q 378 160 378 138 l 378 876 m 300 1028 l 228 921 l 72 921 l 219 1111 l 382 1111 l 529 921 l 374 921 l 300 1028 z "},"Ü":{"ha":603,"x_min":65,"x_max":538,"o":"m 378 876 l 538 876 l 538 138 q 386 0 538 0 l 217 0 q 65 138 65 0 l 65 876 l 225 876 l 225 160 q 233 130 225 138 q 264 122 242 122 l 338 122 q 369 130 361 122 q 378 160 378 138 l 378 876 m 239 1065 l 239 919 l 78 919 l 78 1065 l 239 1065 m 522 1065 l 522 919 l 361 919 l 361 1065 l 522 1065 z "},"Ý":{"ha":565,"x_min":4,"x_max":561,"o":"m 368 0 l 208 0 l 208 278 l 4 876 l 167 876 l 286 426 l 399 876 l 561 876 l 368 282 l 368 0 m 503 1111 l 346 921 l 215 921 l 335 1111 l 503 1111 z "},"Þ":{"ha":594,"x_min":71,"x_max":538,"o":"m 231 708 l 386 708 q 538 571 538 708 l 538 304 q 386 168 538 168 l 231 168 l 231 0 l 71 0 l 71 876 l 231 876 l 231 708 m 378 324 l 378 551 q 369 581 378 574 q 339 589 361 589 l 231 589 l 231 286 l 339 286 q 369 294 361 286 q 378 324 378 301 z "},"ß":{"ha":743,"x_min":63,"x_max":708,"o":"m 303 215 l 460 215 l 460 153 q 467 124 460 131 q 496 115 474 117 l 514 115 q 544 123 536 115 q 553 153 553 131 l 553 249 q 544 278 553 271 q 514 286 536 286 l 450 286 q 338 321 372 286 q 304 424 304 356 l 304 488 q 447 618 304 618 q 483 624 475 618 q 492 650 492 631 l 492 688 q 484 718 492 710 q 454 726 476 726 l 263 726 q 231 718 240 726 q 222 688 222 710 l 222 0 l 63 0 l 63 714 q 97 815 63 781 q 208 850 131 850 l 510 850 q 656 718 656 850 l 656 626 q 626 540 656 567 q 525 513 597 513 l 497 513 q 465 505 474 513 q 457 475 457 497 l 457 436 q 465 406 457 414 q 497 399 474 399 l 558 399 q 708 261 708 399 l 708 138 q 675 35 708 69 q 564 0 642 0 l 450 0 q 303 138 303 1 l 303 215 z "},"à":{"ha":547,"x_min":50,"x_max":489,"o":"m 333 682 l 489 682 l 489 0 l 331 0 l 331 58 q 235 0 310 0 l 192 0 q 50 138 50 0 l 50 544 q 192 682 50 682 l 235 682 q 333 615 317 682 l 333 682 m 246 122 l 288 122 q 331 168 331 122 l 331 514 q 288 560 331 560 l 246 560 q 215 552 224 560 q 207 522 207 544 l 207 160 q 215 130 207 138 q 246 122 224 122 m 376 726 l 246 726 l 89 917 l 257 917 l 376 726 z "},"á":{"ha":547,"x_min":50,"x_max":503,"o":"m 333 682 l 489 682 l 489 0 l 331 0 l 331 58 q 235 0 310 0 l 192 0 q 50 138 50 0 l 50 544 q 192 682 50 682 l 235 682 q 333 615 317 682 l 333 682 m 246 122 l 288 122 q 331 168 331 122 l 331 514 q 288 560 331 560 l 246 560 q 215 552 224 560 q 207 522 207 544 l 207 160 q 215 130 207 138 q 246 122 224 122 m 503 917 l 346 726 l 215 726 l 335 917 l 503 917 z "},"â":{"ha":547,"x_min":49,"x_max":506,"o":"m 333 682 l 489 682 l 489 0 l 331 0 l 331 58 q 235 0 310 0 l 192 0 q 50 138 50 0 l 50 544 q 192 682 50 682 l 235 682 q 333 615 317 682 l 333 682 m 246 122 l 288 122 q 331 168 331 122 l 331 514 q 288 560 331 560 l 246 560 q 215 552 224 560 q 207 522 207 544 l 207 160 q 215 130 207 138 q 246 122 224 122 m 276 833 l 204 726 l 49 726 l 196 917 l 358 917 l 506 726 l 350 726 l 276 833 z "},"ã":{"ha":547,"x_min":50,"x_max":489,"o":"m 333 682 l 489 682 l 489 0 l 331 0 l 331 58 q 235 0 310 0 l 192 0 q 50 138 50 0 l 50 544 q 192 682 50 682 l 235 682 q 333 615 317 682 l 333 682 m 246 122 l 288 122 q 331 168 331 122 l 331 514 q 288 560 331 560 l 246 560 q 215 552 224 560 q 207 522 207 544 l 207 160 q 215 130 207 138 q 246 122 224 122 m 182 768 l 182 740 l 51 740 l 51 785 q 78 873 51 843 q 168 903 104 903 l 185 903 q 272 873 224 903 q 331 843 319 843 q 356 875 356 843 l 356 903 l 486 903 l 486 854 q 460 769 486 797 q 369 740 433 740 l 356 740 q 267 770 317 740 q 207 800 218 800 q 182 768 182 800 z "},"ä":{"ha":547,"x_min":50,"x_max":500,"o":"m 339 897 l 500 897 l 500 751 l 339 751 l 339 897 m 333 682 l 489 682 l 489 0 l 331 0 l 331 58 q 235 0 310 0 l 192 0 q 50 138 50 0 l 50 544 q 192 682 50 682 l 235 682 q 333 615 317 682 l 333 682 m 246 122 l 288 122 q 331 168 331 122 l 331 514 q 288 560 331 560 l 246 560 q 215 552 224 560 q 207 522 207 544 l 207 160 q 215 130 207 138 q 246 122 224 122 m 217 897 l 217 751 l 56 751 l 56 897 l 217 897 z "},"å":{"ha":547,"x_min":50,"x_max":489,"o":"m 333 682 l 489 682 l 489 0 l 331 0 l 331 58 q 235 0 310 0 l 192 0 q 50 138 50 0 l 50 544 q 192 682 50 682 l 235 682 q 333 615 317 682 l 333 682 m 246 122 l 288 122 q 331 168 331 122 l 331 514 q 288 560 331 560 l 246 560 q 215 552 224 560 q 207 522 207 544 l 207 160 q 215 130 207 138 q 246 122 224 122 m 328 735 l 228 735 q 115 839 115 735 l 115 863 q 228 968 115 968 l 328 968 q 440 863 440 968 l 440 839 q 328 735 440 735 m 219 857 l 219 844 q 226 819 219 825 q 254 813 233 813 l 301 813 q 329 819 322 813 q 336 844 336 825 l 336 857 q 329 883 336 876 q 301 890 322 890 l 254 890 q 226 883 233 890 q 219 857 219 876 z "},"æ":{"ha":846,"x_min":57,"x_max":786,"o":"m 776 293 l 492 293 l 492 157 q 500 127 492 135 q 532 119 508 119 l 590 119 q 621 127 613 119 q 629 157 629 135 l 629 207 l 785 207 l 785 138 q 633 0 785 0 l 532 0 q 410 64 439 0 q 367 18 399 36 q 296 0 336 0 l 199 0 q 57 138 57 0 l 57 283 l 338 399 l 338 518 q 294 560 336 560 l 253 560 q 222 552 231 560 q 214 522 214 544 l 214 432 l 57 432 l 57 544 q 199 682 57 682 l 296 682 q 367 664 336 682 q 410 618 399 646 q 533 682 439 682 l 635 682 q 786 544 786 682 l 786 307 l 776 307 l 776 293 m 593 563 l 532 563 q 500 555 508 563 q 492 525 492 547 l 492 400 l 632 400 l 632 525 q 624 555 632 547 q 593 563 615 563 m 253 122 l 294 122 q 338 164 336 122 l 338 286 l 214 236 l 214 160 q 222 130 214 138 q 253 122 231 122 z "},"ç":{"ha":528,"x_min":50,"x_max":489,"o":"m 489 453 l 335 453 l 335 522 q 326 552 335 544 q 296 560 318 560 l 246 560 q 215 552 224 560 q 207 522 207 544 l 207 160 q 215 130 207 138 q 246 122 224 122 l 296 122 q 326 130 318 122 q 335 160 335 138 l 335 231 l 489 231 l 489 138 q 338 0 489 0 l 201 0 q 50 138 50 0 l 50 544 q 201 682 50 682 l 338 682 q 489 544 489 682 l 489 453 m 201 -132 l 201 -68 l 350 -68 l 350 -144 q 190 -289 350 -289 l 97 -289 l 97 -174 l 158 -174 q 201 -132 201 -174 z "},"è":{"ha":544,"x_min":44,"x_max":501,"o":"m 204 682 l 351 682 q 501 544 501 682 l 501 296 l 206 296 l 206 156 q 213 126 206 133 q 244 118 221 118 l 308 118 q 339 126 331 118 q 347 156 347 133 l 347 207 l 500 207 l 500 138 q 349 0 500 0 l 204 0 q 53 138 53 0 l 53 544 q 204 682 53 682 m 206 397 l 350 397 l 350 528 q 342 558 350 550 q 311 565 333 565 l 244 565 q 214 558 222 565 q 206 528 206 550 l 206 397 m 332 726 l 201 726 l 44 917 l 213 917 l 332 726 z "},"é":{"ha":544,"x_min":53,"x_max":501,"o":"m 204 682 l 351 682 q 501 544 501 682 l 501 296 l 206 296 l 206 156 q 213 126 206 133 q 244 118 221 118 l 308 118 q 339 126 331 118 q 347 156 347 133 l 347 207 l 500 207 l 500 138 q 349 0 500 0 l 204 0 q 53 138 53 0 l 53 544 q 204 682 53 682 m 206 397 l 350 397 l 350 528 q 342 558 350 550 q 311 565 333 565 l 244 565 q 214 558 222 565 q 206 528 206 550 l 206 397 m 499 917 l 342 726 l 211 726 l 331 917 l 499 917 z "},"ê":{"ha":543,"x_min":51,"x_max":508,"o":"m 204 682 l 351 682 q 501 544 501 682 l 501 296 l 206 296 l 206 156 q 213 126 206 133 q 244 118 221 118 l 308 118 q 339 126 331 118 q 347 156 347 133 l 347 207 l 500 207 l 500 138 q 349 0 500 0 l 204 0 q 53 138 53 0 l 53 544 q 204 682 53 682 m 206 397 l 350 397 l 350 528 q 342 558 350 550 q 311 565 333 565 l 244 565 q 214 558 222 565 q 206 528 206 550 l 206 397 m 279 833 l 207 726 l 51 726 l 199 917 l 361 917 l 508 726 l 353 726 l 279 833 z "},"ë":{"ha":543,"x_min":51,"x_max":501,"o":"m 204 682 l 351 682 q 501 544 501 682 l 501 296 l 206 296 l 206 156 q 213 126 206 133 q 244 118 221 118 l 308 118 q 339 126 331 118 q 347 156 347 133 l 347 207 l 500 207 l 500 138 q 349 0 500 0 l 204 0 q 53 138 53 0 l 53 544 q 204 682 53 682 m 206 397 l 350 397 l 350 528 q 342 558 350 550 q 311 565 333 565 l 244 565 q 214 558 222 565 q 206 528 206 550 l 206 397 m 213 897 l 213 751 l 51 751 l 51 897 l 213 897 m 496 897 l 496 751 l 335 751 l 335 897 l 496 897 z "},"ì":{"ha":276,"x_min":-83,"x_max":217,"o":"m 85 917 l 204 726 l 74 726 l -83 917 l 85 917 m 217 0 l 60 0 l 60 682 l 217 682 l 217 0 z "},"í":{"ha":276,"x_min":60,"x_max":356,"o":"m 68 726 l 188 917 l 356 917 l 199 726 l 68 726 m 217 0 l 60 0 l 60 682 l 217 682 l 217 0 z "},"î":{"ha":276,"x_min":-92,"x_max":365,"o":"m -92 726 l 56 917 l 218 917 l 365 726 l 210 726 l 136 833 l 64 726 l -92 726 m 217 0 l 60 0 l 60 682 l 217 682 l 217 0 z "},"ï":{"ha":276,"x_min":-86,"x_max":358,"o":"m 197 751 l 197 897 l 358 897 l 358 751 l 197 751 m -86 751 l -86 897 l 75 897 l 75 751 l -86 751 m 217 0 l 60 0 l 60 682 l 217 682 l 217 0 z "},"ð":{"ha":572,"x_min":50,"x_max":510,"o":"m 510 428 l 510 138 q 358 0 510 0 l 201 0 q 50 138 50 0 l 50 444 q 201 582 50 582 l 325 582 q 263 704 304 640 l 124 657 l 124 746 l 207 774 q 96 876 158 829 l 314 876 q 363 826 340 853 l 486 868 l 486 779 l 414 756 q 510 428 510 607 m 354 160 l 354 421 q 351 467 354 436 l 246 467 q 215 458 222 467 q 207 428 207 450 l 207 160 q 215 130 207 138 q 246 122 224 122 l 315 122 q 346 130 338 122 q 354 160 354 138 z "},"ñ":{"ha":554,"x_min":49,"x_max":499,"o":"m 314 682 l 356 682 q 499 544 499 682 l 499 0 l 340 0 l 340 522 q 332 552 340 544 q 301 560 324 560 l 260 560 q 217 514 217 560 l 217 0 l 60 0 l 60 682 l 215 682 l 215 619 q 314 682 235 682 m 179 768 l 179 740 l 49 740 l 49 785 q 75 873 49 843 q 165 903 101 903 l 182 903 q 269 873 221 903 q 328 843 317 843 q 353 875 353 843 l 353 903 l 483 903 l 483 854 q 457 769 483 797 q 367 740 431 740 l 353 740 q 265 770 314 740 q 204 800 215 800 q 179 768 179 800 z "},"ò":{"ha":558,"x_min":51,"x_max":506,"o":"m 201 682 l 358 682 q 506 544 506 682 l 506 138 q 358 0 506 0 l 201 0 q 53 138 53 0 l 53 544 q 201 682 53 682 m 351 156 l 351 526 q 343 556 351 549 q 311 564 335 564 l 247 564 q 215 556 224 564 q 207 526 207 549 l 207 156 q 215 126 207 133 q 247 118 224 118 l 311 118 q 343 126 335 118 q 351 156 351 133 m 339 726 l 208 726 l 51 917 l 219 917 l 339 726 z "},"ó":{"ha":558,"x_min":53,"x_max":506,"o":"m 201 682 l 358 682 q 506 544 506 682 l 506 138 q 358 0 506 0 l 201 0 q 53 138 53 0 l 53 544 q 201 682 53 682 m 351 156 l 351 526 q 343 556 351 549 q 311 564 335 564 l 247 564 q 215 556 224 564 q 207 526 207 549 l 207 156 q 215 126 207 133 q 247 118 224 118 l 311 118 q 343 126 335 118 q 351 156 351 133 m 501 917 l 344 726 l 214 726 l 333 917 l 501 917 z "},"ô":{"ha":558,"x_min":49,"x_max":506,"o":"m 201 682 l 358 682 q 506 544 506 682 l 506 138 q 358 0 506 0 l 201 0 q 53 138 53 0 l 53 544 q 201 682 53 682 m 351 156 l 351 526 q 343 556 351 549 q 311 564 335 564 l 247 564 q 215 556 224 564 q 207 526 207 549 l 207 156 q 215 126 207 133 q 247 118 224 118 l 311 118 q 343 126 335 118 q 351 156 351 133 m 276 833 l 204 726 l 49 726 l 196 917 l 358 917 l 506 726 l 350 726 l 276 833 z "},"õ":{"ha":558,"x_min":53,"x_max":506,"o":"m 201 682 l 358 682 q 506 544 506 682 l 506 138 q 358 0 506 0 l 201 0 q 53 138 53 0 l 53 544 q 201 682 53 682 m 351 156 l 351 526 q 343 556 351 549 q 311 564 335 564 l 247 564 q 215 556 224 564 q 207 526 207 549 l 207 156 q 215 126 207 133 q 247 118 224 118 l 311 118 q 343 126 335 118 q 351 156 351 133 m 185 768 l 185 740 l 54 740 l 54 785 q 81 873 54 843 q 171 903 107 903 l 188 903 q 274 873 226 903 q 333 843 322 843 q 358 875 358 843 l 358 903 l 489 903 l 489 854 q 463 769 489 797 q 372 740 436 740 l 358 740 q 270 770 319 740 q 210 800 221 800 q 185 768 185 800 z "},"ö":{"ha":558,"x_min":53,"x_max":506,"o":"m 201 682 l 358 682 q 506 544 506 682 l 506 138 q 358 0 506 0 l 201 0 q 53 138 53 0 l 53 544 q 201 682 53 682 m 351 156 l 351 526 q 343 556 351 549 q 311 564 335 564 l 247 564 q 215 556 224 564 q 207 526 207 549 l 207 156 q 215 126 207 133 q 247 118 224 118 l 311 118 q 343 126 335 118 q 351 156 351 133 m 218 897 l 218 751 l 57 751 l 57 897 l 218 897 m 501 897 l 501 751 l 340 751 l 340 897 l 501 897 z "},"÷":{"ha":621,"x_min":35,"x_max":586,"o":"m 233 297 l 388 297 l 388 164 l 233 164 l 233 297 m 233 710 l 388 710 l 388 578 l 233 578 l 233 710 m 35 375 l 35 499 l 586 499 l 586 375 l 35 375 z "},"ø":{"ha":567,"x_min":50,"x_max":517,"o":"m 510 544 l 510 138 q 361 0 510 0 l 204 0 q 150 6 172 0 l 133 -28 l 50 -28 l 86 42 q 57 138 57 72 l 57 544 q 204 682 57 682 l 361 682 q 417 676 394 682 l 433 710 l 517 710 l 481 640 q 510 544 510 607 m 207 533 l 207 274 l 356 560 q 319 572 349 572 l 247 572 q 215 565 224 572 q 207 533 207 557 m 360 149 l 360 408 l 211 122 q 247 110 218 110 l 319 110 q 351 118 343 110 q 360 149 360 126 z "},"ù":{"ha":554,"x_min":57,"x_max":496,"o":"m 338 682 l 496 682 l 496 0 l 340 0 l 340 68 q 242 0 324 0 l 199 0 q 57 138 57 0 l 57 682 l 214 682 l 214 160 q 222 130 214 138 q 253 122 231 122 l 294 122 q 338 168 338 122 l 338 682 m 346 726 l 215 726 l 58 917 l 226 917 l 346 726 z "},"ú":{"ha":554,"x_min":57,"x_max":496,"o":"m 338 682 l 496 682 l 496 0 l 340 0 l 340 68 q 242 0 324 0 l 199 0 q 57 138 57 0 l 57 682 l 214 682 l 214 160 q 222 130 214 138 q 253 122 231 122 l 294 122 q 338 168 338 122 l 338 682 m 493 917 l 336 726 l 206 726 l 325 917 l 493 917 z "},"û":{"ha":551,"x_min":44,"x_max":501,"o":"m 338 682 l 496 682 l 496 0 l 340 0 l 340 68 q 242 0 324 0 l 199 0 q 57 138 57 0 l 57 682 l 214 682 l 214 160 q 222 130 214 138 q 253 122 231 122 l 294 122 q 338 168 338 122 l 338 682 m 272 833 l 200 726 l 44 726 l 192 917 l 354 917 l 501 726 l 346 726 l 272 833 z "},"ü":{"ha":561,"x_min":49,"x_max":496,"o":"m 338 682 l 496 682 l 496 0 l 340 0 l 340 68 q 242 0 324 0 l 199 0 q 57 138 57 0 l 57 682 l 214 682 l 214 160 q 222 130 214 138 q 253 122 231 122 l 294 122 q 338 168 338 122 l 338 682 m 210 897 l 210 751 l 49 751 l 49 897 l 210 897 m 493 897 l 493 751 l 332 751 l 332 897 l 493 897 z "},"ý":{"ha":524,"x_min":8,"x_max":517,"o":"m 201 726 l 321 917 l 489 917 l 332 726 l 201 726 m 175 -189 l 82 -189 l 82 -68 l 153 -68 q 228 -19 214 -68 l 239 25 l 164 25 l 8 682 l 171 682 l 268 157 l 358 682 l 517 682 l 364 -42 q 175 -189 328 -189 z "},"þ":{"ha":554,"x_min":56,"x_max":494,"o":"m 310 682 l 351 682 q 494 544 494 682 l 494 138 q 351 0 494 0 l 310 0 q 214 58 235 0 l 214 -189 l 56 -189 l 56 929 l 211 929 l 211 615 q 310 682 228 682 m 338 160 l 338 522 q 329 552 338 544 q 297 560 321 560 l 257 560 q 214 514 214 560 l 214 168 q 257 122 214 122 l 297 122 q 329 130 321 122 q 338 160 338 138 z "},"ÿ":{"ha":546,"x_min":8,"x_max":517,"o":"m 175 -189 l 82 -189 l 82 -68 l 153 -68 q 228 -19 214 -68 l 239 25 l 164 25 l 8 682 l 171 682 l 268 157 l 358 682 l 517 682 l 364 -42 q 175 -189 328 -189 m 324 751 l 324 897 l 485 897 l 485 751 l 324 751 m 40 751 l 40 897 l 201 897 l 201 751 l 40 751 z "},"Ā":{"ha":599,"x_min":11,"x_max":588,"o":"m 426 0 l 393 182 l 201 182 l 171 0 l 11 0 l 188 876 l 403 876 l 588 0 l 426 0 m 222 303 l 371 303 l 294 722 l 222 303 m 506 1029 l 506 919 l 85 919 l 85 1029 l 506 1029 z "},"ā":{"ha":547,"x_min":50,"x_max":489,"o":"m 333 682 l 489 682 l 489 0 l 331 0 l 331 58 q 235 0 310 0 l 192 0 q 50 138 50 0 l 50 544 q 192 682 50 682 l 235 682 q 333 615 317 682 l 333 682 m 246 122 l 288 122 q 331 168 331 122 l 331 514 q 288 560 331 560 l 246 560 q 215 552 224 560 q 207 522 207 544 l 207 160 q 215 130 207 138 q 246 122 224 122 m 481 876 l 481 767 l 60 767 l 60 876 l 481 876 z "},"Ă":{"ha":599,"x_min":11,"x_max":588,"o":"m 426 0 l 393 182 l 201 182 l 171 0 l 11 0 l 188 876 l 403 876 l 588 0 l 426 0 m 222 303 l 371 303 l 294 722 l 222 303 m 365 921 l 224 921 q 74 1058 74 921 l 74 1111 l 215 1111 l 215 1060 q 224 1030 215 1038 q 256 1022 232 1022 l 333 1022 q 365 1030 357 1022 q 374 1060 374 1038 l 374 1111 l 515 1111 l 515 1058 q 365 921 515 921 z "},"ă":{"ha":547,"x_min":50,"x_max":506,"o":"m 364 917 l 506 917 l 506 864 q 356 726 506 726 l 214 726 q 64 864 64 726 l 64 917 l 206 917 l 206 865 q 214 835 206 843 q 246 828 222 828 l 324 828 q 356 835 347 828 q 364 865 364 843 l 364 917 m 333 682 l 489 682 l 489 0 l 331 0 l 331 58 q 235 0 310 0 l 192 0 q 50 138 50 0 l 50 544 q 192 682 50 682 l 235 682 q 333 615 317 682 l 333 682 m 246 122 l 288 122 q 331 168 331 122 l 331 514 q 288 560 331 560 l 246 560 q 215 552 224 560 q 207 522 207 544 l 207 160 q 215 130 207 138 q 246 122 224 122 z "},"Ą":{"ha":599,"x_min":11,"x_max":613,"o":"m 496 -231 l 613 -231 l 613 -332 l 471 -332 q 370 -301 401 -332 q 339 -207 339 -269 l 339 -154 q 471 -29 339 -29 l 481 -29 l 481 0 l 426 0 l 393 182 l 201 182 l 171 0 l 11 0 l 188 876 l 403 876 l 583 17 l 588 17 l 588 -131 l 496 -131 q 466 -137 474 -131 q 458 -165 458 -144 l 458 -197 q 466 -224 458 -217 q 496 -231 474 -231 m 222 303 l 371 303 l 294 722 l 222 303 z "},"ą":{"ha":547,"x_min":50,"x_max":514,"o":"m 397 -231 l 514 -231 l 514 -332 l 372 -332 q 272 -301 303 -332 q 240 -207 240 -269 l 240 -154 q 372 -29 240 -29 l 382 -29 l 382 0 l 331 0 l 331 58 q 235 0 310 0 l 192 0 q 50 138 50 0 l 50 544 q 192 682 50 682 l 235 682 q 333 615 317 682 l 333 682 l 489 682 l 489 -131 l 397 -131 q 367 -137 375 -131 q 360 -165 360 -144 l 360 -197 q 367 -224 360 -217 q 397 -231 375 -231 m 246 122 l 288 122 q 331 168 331 122 l 331 514 q 288 560 331 560 l 246 560 q 215 552 224 560 q 207 522 207 544 l 207 160 q 215 130 207 138 q 246 122 224 122 z "},"Ć":{"ha":571,"x_min":60,"x_max":525,"o":"m 525 586 l 364 586 l 364 722 q 356 752 364 744 q 325 760 347 760 l 260 760 q 229 752 238 760 q 221 722 221 744 l 221 153 q 229 123 221 131 q 260 115 238 115 l 325 115 q 356 123 347 115 q 364 153 364 131 l 364 286 l 525 286 l 525 136 q 374 -1 525 -1 l 211 -1 q 60 136 60 -1 l 60 739 q 211 876 60 876 l 374 876 q 525 739 525 876 l 525 586 m 513 1111 l 356 921 l 225 921 l 344 1111 l 513 1111 z "},"ć":{"ha":528,"x_min":50,"x_max":490,"o":"m 201 682 l 338 682 q 489 544 489 682 l 489 453 l 335 453 l 335 522 q 326 552 335 544 q 296 560 318 560 l 246 560 q 215 552 224 560 q 207 522 207 544 l 207 160 q 215 130 207 138 q 246 122 224 122 l 296 122 q 326 130 318 122 q 335 160 335 138 l 335 231 l 489 231 l 489 138 q 338 0 489 0 l 201 0 q 50 138 50 0 l 50 544 q 201 682 50 682 m 490 917 l 333 726 l 203 726 l 322 917 l 490 917 z "},"Č":{"ha":571,"x_min":60,"x_max":525,"o":"m 525 586 l 364 586 l 364 722 q 356 752 364 744 q 325 760 347 760 l 260 760 q 229 752 238 760 q 221 722 221 744 l 221 153 q 229 123 221 131 q 260 115 238 115 l 325 115 q 356 123 347 115 q 364 153 364 131 l 364 286 l 525 286 l 525 136 q 374 -1 525 -1 l 211 -1 q 60 136 60 -1 l 60 739 q 211 876 60 876 l 374 876 q 525 739 525 876 l 525 586 m 372 921 l 210 921 l 63 1111 l 218 1111 l 290 1004 l 364 1111 l 519 1111 l 372 921 z "},"č":{"ha":528,"x_min":39,"x_max":496,"o":"m 201 682 l 338 682 q 489 544 489 682 l 489 453 l 335 453 l 335 522 q 326 552 335 544 q 296 560 318 560 l 246 560 q 215 552 224 560 q 207 522 207 544 l 207 160 q 215 130 207 138 q 246 122 224 122 l 296 122 q 326 130 318 122 q 335 160 335 138 l 335 231 l 489 231 l 489 138 q 338 0 489 0 l 201 0 q 50 138 50 0 l 50 544 q 201 682 50 682 m 349 726 l 186 726 l 39 917 l 194 917 l 267 810 l 340 917 l 496 917 l 349 726 z "},"Ď":{"ha":619,"x_min":74,"x_max":558,"o":"m 74 876 l 407 876 q 558 739 558 876 l 558 138 q 407 0 558 0 l 74 0 l 74 876 m 397 154 l 397 722 q 389 752 397 744 q 358 760 381 760 l 233 760 l 233 117 l 358 117 q 389 124 381 117 q 397 154 397 132 m 386 921 l 224 921 l 76 1111 l 232 1111 l 304 1004 l 378 1111 l 533 1111 l 386 921 z "},"ď":{"ha":593,"x_min":50,"x_max":667,"o":"m 547 929 l 667 929 l 667 851 l 593 675 l 547 675 l 547 929 m 331 929 l 489 929 l 489 0 l 333 0 l 333 68 q 235 0 317 0 l 192 0 q 50 138 50 0 l 50 546 q 192 683 50 683 l 235 683 q 331 625 310 683 l 331 929 m 246 122 l 288 122 q 331 168 331 122 l 331 514 q 321 551 331 540 q 288 561 311 561 l 246 561 q 215 553 224 561 q 207 524 207 546 l 207 160 q 215 130 207 138 q 246 122 224 122 z "},"Đ":{"ha":625,"x_min":1,"x_max":558,"o":"m 74 876 l 407 876 q 558 739 558 876 l 558 138 q 407 0 558 0 l 74 0 l 74 385 l 1 385 l 1 500 l 74 500 l 74 876 m 397 160 l 397 717 q 389 747 397 739 q 358 754 381 754 l 233 754 l 233 500 l 329 500 l 329 385 l 233 385 l 233 122 l 358 122 q 389 130 381 122 q 397 160 397 138 z "},"đ":{"ha":554,"x_min":57,"x_max":561,"o":"m 561 849 l 561 757 l 496 757 l 496 0 l 340 0 l 340 68 q 242 0 324 0 l 199 0 q 57 138 57 0 l 57 544 q 199 682 57 682 l 242 682 q 338 624 317 682 l 338 757 l 235 757 l 235 849 l 338 849 l 338 929 l 496 929 l 496 849 l 561 849 m 253 122 l 294 122 q 338 168 338 122 l 338 514 q 294 560 338 560 l 253 560 q 222 552 231 560 q 214 522 214 544 l 214 160 q 222 130 214 138 q 253 122 231 122 z "},"Ē":{"ha":519,"x_min":63,"x_max":494,"o":"m 228 122 l 494 122 l 494 0 l 67 0 l 67 876 l 483 876 l 483 754 l 228 754 l 228 511 l 443 511 l 443 388 l 228 388 l 228 122 m 483 1043 l 483 933 l 63 933 l 63 1043 l 483 1043 z "},"ē":{"ha":544,"x_min":53,"x_max":501,"o":"m 204 682 l 351 682 q 501 544 501 682 l 501 296 l 206 296 l 206 156 q 213 126 206 133 q 244 118 221 118 l 308 118 q 339 126 331 118 q 347 156 347 133 l 347 207 l 500 207 l 500 138 q 349 0 500 0 l 204 0 q 53 138 53 0 l 53 544 q 204 682 53 682 m 206 397 l 350 397 l 350 528 q 342 558 350 550 q 311 565 333 565 l 244 565 q 214 558 222 565 q 206 528 206 550 l 206 397 m 482 876 l 482 767 l 61 767 l 61 876 l 482 876 z "},"Ė":{"ha":519,"x_min":67,"x_max":494,"o":"m 228 122 l 494 122 l 494 0 l 67 0 l 67 876 l 483 876 l 483 754 l 228 754 l 228 511 l 443 511 l 443 388 l 228 388 l 228 122 m 371 1067 l 371 921 l 201 921 l 201 1067 l 371 1067 z "},"ė":{"ha":544,"x_min":53,"x_max":501,"o":"m 204 682 l 351 682 q 501 544 501 682 l 501 296 l 206 296 l 206 156 q 213 126 206 133 q 244 118 221 118 l 308 118 q 339 126 331 118 q 347 156 347 133 l 347 207 l 500 207 l 500 138 q 349 0 500 0 l 204 0 q 53 138 53 0 l 53 544 q 204 682 53 682 m 206 397 l 350 397 l 350 528 q 342 558 350 550 q 311 565 333 565 l 244 565 q 214 558 222 565 q 206 528 206 550 l 206 397 m 364 894 l 364 749 l 194 749 l 194 894 l 364 894 z "},"Ę":{"ha":519,"x_min":67,"x_max":521,"o":"m 404 -231 l 521 -231 l 521 -332 l 379 -332 q 278 -301 310 -332 q 247 -207 247 -269 l 247 -154 q 379 -29 247 -29 l 389 -29 l 389 0 l 67 0 l 67 876 l 483 876 l 483 754 l 228 754 l 228 511 l 443 511 l 443 388 l 228 388 l 228 122 l 494 122 l 494 17 l 496 17 l 496 -131 l 404 -131 q 374 -137 382 -131 q 367 -165 367 -144 l 367 -197 q 374 -224 367 -217 q 404 -231 382 -231 z "},"ę":{"ha":544,"x_min":53,"x_max":501,"o":"m 204 682 l 351 682 q 501 544 501 682 l 501 296 l 206 296 l 206 156 q 213 126 206 133 q 244 118 221 118 l 308 118 q 339 126 331 118 q 347 156 347 133 l 347 207 l 500 207 l 500 138 q 349 0 500 0 l 343 0 l 343 -131 l 251 -131 q 222 -137 229 -131 q 214 -165 214 -144 l 214 -197 q 222 -224 214 -217 q 251 -231 229 -231 l 368 -231 l 368 -332 l 226 -332 q 126 -301 157 -332 q 94 -207 94 -269 l 94 -154 q 226 -29 94 -29 l 236 -29 l 236 0 l 204 0 q 53 138 53 0 l 53 544 q 204 682 53 682 m 206 397 l 350 397 l 350 528 q 342 558 350 550 q 311 565 333 565 l 244 565 q 214 558 222 565 q 206 528 206 550 l 206 397 z "},"Ě":{"ha":519,"x_min":49,"x_max":506,"o":"m 228 388 l 228 122 l 494 122 l 494 0 l 67 0 l 67 876 l 483 876 l 483 754 l 228 754 l 228 511 l 443 511 l 443 388 l 228 388 m 358 921 l 196 921 l 49 1111 l 204 1111 l 276 1004 l 350 1111 l 506 1111 l 358 921 z "},"ě":{"ha":544,"x_min":49,"x_max":506,"o":"m 204 682 l 351 682 q 501 544 501 682 l 501 296 l 206 296 l 206 156 q 213 126 206 133 q 244 118 221 118 l 308 118 q 339 126 331 118 q 347 156 347 133 l 347 207 l 500 207 l 500 138 q 349 0 500 0 l 204 0 q 53 138 53 0 l 53 544 q 204 682 53 682 m 206 397 l 350 397 l 350 528 q 342 558 350 550 q 311 565 333 565 l 244 565 q 214 558 222 565 q 206 528 206 550 l 206 397 m 358 726 l 196 726 l 49 917 l 204 917 l 276 810 l 350 917 l 506 917 l 358 726 z "},"Ğ":{"ha":578,"x_min":60,"x_max":525,"o":"m 525 607 l 364 607 l 364 722 q 356 752 364 744 q 325 760 347 760 l 260 760 q 229 752 238 760 q 221 722 221 744 l 221 153 q 229 123 221 131 q 260 115 238 115 l 325 115 q 356 123 347 115 q 364 153 364 131 l 364 347 l 294 347 l 294 460 l 525 460 l 525 136 q 374 -1 525 -1 l 211 -1 q 60 136 60 -1 l 60 739 q 211 876 60 876 l 374 876 q 525 739 525 876 l 525 607 m 364 921 l 222 921 q 72 1058 72 921 l 72 1111 l 214 1111 l 214 1060 q 222 1030 214 1038 q 254 1022 231 1022 l 332 1022 q 364 1030 356 1022 q 372 1060 372 1038 l 372 1111 l 514 1111 l 514 1058 q 364 921 514 921 z "},"ğ":{"ha":547,"x_min":50,"x_max":494,"o":"m 353 917 l 494 917 l 494 864 q 344 726 494 726 l 203 726 q 53 864 53 726 l 53 917 l 194 917 l 194 865 q 203 835 194 843 q 235 828 211 828 l 313 828 q 344 835 336 828 q 353 865 353 843 l 353 917 m 333 682 l 489 682 l 489 -51 q 338 -189 489 -189 l 75 -189 l 75 -69 l 292 -69 q 322 -62 314 -69 q 331 -32 331 -54 l 331 76 q 235 18 310 18 l 192 18 q 50 156 50 18 l 50 544 q 192 682 50 682 l 235 682 q 333 615 317 682 l 333 682 m 246 140 l 288 140 q 321 151 311 140 q 331 188 331 161 l 331 514 q 288 560 331 560 l 246 560 q 215 552 224 560 q 207 522 207 544 l 207 178 q 215 148 207 156 q 246 140 224 140 z "},"Ģ":{"ha":578,"x_min":60,"x_max":525,"o":"m 525 607 l 364 607 l 364 722 q 356 752 364 744 q 325 760 347 760 l 260 760 q 229 752 238 760 q 221 722 221 744 l 221 153 q 229 123 221 131 q 260 115 238 115 l 325 115 q 356 123 347 115 q 364 153 364 131 l 364 347 l 294 347 l 294 460 l 525 460 l 525 136 q 374 -1 525 -1 l 211 -1 q 60 136 60 -1 l 60 739 q 211 876 60 876 l 374 876 q 525 739 525 876 l 525 607 m 219 -347 l 219 -68 l 383 -68 l 383 -151 l 272 -347 l 219 -347 z "},"ģ":{"ha":547,"x_min":50,"x_max":489,"o":"m 333 682 l 489 682 l 489 -51 q 338 -189 489 -189 l 75 -189 l 75 -69 l 292 -69 q 322 -62 314 -69 q 331 -32 331 -54 l 331 76 q 235 18 310 18 l 192 18 q 50 156 50 18 l 50 544 q 192 682 50 682 l 235 682 q 333 615 317 682 l 333 682 m 246 140 l 288 140 q 321 151 311 140 q 331 188 331 161 l 331 514 q 288 560 331 560 l 246 560 q 215 552 224 560 q 207 522 207 544 l 207 178 q 215 148 207 156 q 246 140 224 140 m 368 1006 l 368 726 l 204 726 l 204 810 l 315 1006 l 368 1006 z "},"Ī":{"ha":310,"x_min":-56,"x_max":365,"o":"m -56 933 l -56 1043 l 365 1043 l 365 933 l -56 933 m 75 876 l 235 876 l 235 0 l 75 0 l 75 876 z "},"ī":{"ha":276,"x_min":-72,"x_max":349,"o":"m -72 767 l -72 876 l 349 876 l 349 767 l -72 767 m 217 0 l 60 0 l 60 682 l 217 682 l 217 0 z "},"Į":{"ha":310,"x_min":-14,"x_max":260,"o":"m 143 -231 l 260 -231 l 260 -332 l 118 -332 q 17 -301 49 -332 q -14 -207 -14 -269 l -14 -154 q 118 -29 -14 -29 l 128 -29 l 128 0 l 75 0 l 75 876 l 235 876 l 235 -131 l 143 -131 q 113 -137 121 -131 q 106 -165 106 -144 l 106 -197 q 113 -224 106 -217 q 143 -231 121 -231 z "},"į":{"ha":276,"x_min":-32,"x_max":242,"o":"m 125 -231 l 242 -231 l 242 -332 l 100 -332 q -1 -301 31 -332 q -32 -207 -32 -269 l -32 -154 q 100 -29 -32 -29 l 110 -29 l 110 0 l 60 0 l 60 682 l 217 682 l 217 -131 l 125 -131 q 95 -137 103 -131 q 88 -165 88 -144 l 88 -197 q 95 -224 88 -217 q 125 -231 103 -231 m 221 931 l 221 793 l 56 793 l 56 931 l 221 931 z "},"İ":{"ha":310,"x_min":69,"x_max":239,"o":"m 69 933 l 69 1079 l 239 1079 l 239 933 l 69 933 m 75 876 l 235 876 l 235 0 l 75 0 l 75 876 z "},"ı":{"ha":276,"x_min":60,"x_max":217,"o":"m 217 0 l 60 0 l 60 682 l 217 682 l 217 0 z "},"Ķ":{"ha":592,"x_min":67,"x_max":581,"o":"m 581 876 l 400 440 l 579 0 l 407 0 l 233 440 l 408 876 l 581 876 m 215 -347 l 215 -68 l 379 -68 l 379 -151 l 268 -347 l 215 -347 m 226 876 l 226 0 l 67 0 l 67 876 l 226 876 z "},"ķ":{"ha":543,"x_min":60,"x_max":542,"o":"m 542 682 l 389 354 l 542 0 l 376 0 l 229 354 l 378 682 l 542 682 m 201 -347 l 201 -68 l 365 -68 l 365 -151 l 254 -347 l 201 -347 m 217 929 l 217 0 l 60 0 l 60 929 l 217 929 z "},"Ĺ":{"ha":464,"x_min":67,"x_max":460,"o":"m 226 122 l 460 122 l 460 0 l 67 0 l 67 876 l 226 876 l 226 122 m 371 1111 l 214 921 l 83 921 l 203 1111 l 371 1111 z "},"ĺ":{"ha":276,"x_min":60,"x_max":358,"o":"m 217 0 l 60 0 l 60 929 l 217 929 l 217 0 m 71 974 l 190 1164 l 358 1164 l 201 974 l 71 974 z "},"Ļ":{"ha":464,"x_min":67,"x_max":460,"o":"m 226 122 l 460 122 l 460 0 l 67 0 l 67 876 l 226 876 l 226 122 m 179 -347 l 179 -68 l 343 -68 l 343 -151 l 232 -347 l 179 -347 z "},"ļ":{"ha":276,"x_min":56,"x_max":221,"o":"m 56 -68 l 221 -68 l 221 -151 l 108 -347 l 56 -347 l 56 -68 m 217 0 l 60 0 l 60 929 l 217 929 l 217 0 z "},"Ľ":{"ha":464,"x_min":-83,"x_max":460,"o":"m 226 122 l 460 122 l 460 0 l 67 0 l 67 876 l 226 876 l 226 122 m 374 1115 l 226 925 l 64 925 l -83 1115 l 72 1115 l 144 1008 l 218 1115 l 374 1115 z "},"ľ":{"ha":328,"x_min":60,"x_max":396,"o":"m 217 0 l 60 0 l 60 929 l 217 929 l 217 0 m 276 929 l 396 929 l 396 851 l 322 675 l 276 675 l 276 929 z "},"Ł":{"ha":481,"x_min":-37,"x_max":465,"o":"m 232 122 l 465 122 l 465 0 l 72 0 l 72 343 l -37 292 l -37 408 l 72 460 l 72 876 l 232 876 l 232 536 l 376 604 l 376 488 l 232 419 l 232 122 z "},"ł":{"ha":290,"x_min":-56,"x_max":358,"o":"m 224 0 l 67 0 l 67 414 l -56 356 l -56 471 l 67 529 l 67 929 l 224 929 l 224 603 l 358 667 l 358 551 l 224 488 l 224 0 z "},"Ń":{"ha":619,"x_min":67,"x_max":551,"o":"m 406 876 l 551 876 l 551 0 l 401 0 l 214 581 l 214 0 l 67 0 l 67 876 l 221 876 l 406 304 l 406 876 m 240 921 l 360 1111 l 528 1111 l 371 921 l 240 921 z "},"ń":{"ha":554,"x_min":60,"x_max":499,"o":"m 314 682 l 356 682 q 499 544 499 682 l 499 0 l 340 0 l 340 522 q 332 552 340 544 q 301 560 324 560 l 260 560 q 217 514 217 560 l 217 0 l 60 0 l 60 682 l 215 682 l 215 619 q 314 682 235 682 m 489 917 l 332 726 l 201 726 l 321 917 l 489 917 z "},"Ņ":{"ha":619,"x_min":67,"x_max":551,"o":"m 215 -68 l 379 -68 l 379 -151 l 268 -347 l 215 -347 l 215 -68 m 406 876 l 551 876 l 551 0 l 401 0 l 214 581 l 214 0 l 67 0 l 67 876 l 221 876 l 406 304 l 406 876 z "},"ņ":{"ha":554,"x_min":60,"x_max":499,"o":"m 314 682 l 356 682 q 499 544 499 682 l 499 0 l 340 0 l 340 522 q 332 552 340 544 q 301 560 324 560 l 260 560 q 217 514 217 560 l 217 0 l 60 0 l 60 682 l 215 682 l 215 619 q 314 682 235 682 m 194 -347 l 194 -68 l 358 -68 l 358 -151 l 247 -347 l 194 -347 z "},"Ň":{"ha":619,"x_min":67,"x_max":551,"o":"m 406 876 l 551 876 l 551 0 l 401 0 l 214 581 l 214 0 l 67 0 l 67 876 l 221 876 l 406 304 l 406 876 m 229 919 l 82 1110 l 238 1110 l 310 1003 l 383 1110 l 539 1110 l 392 919 l 229 919 z "},"ň":{"ha":554,"x_min":38,"x_max":499,"o":"m 314 682 l 356 682 q 499 544 499 682 l 499 0 l 340 0 l 340 522 q 332 552 340 544 q 301 560 324 560 l 260 560 q 217 514 217 560 l 217 0 l 60 0 l 60 682 l 215 682 l 215 619 q 314 682 235 682 m 347 726 l 185 726 l 38 917 l 193 917 l 265 810 l 339 917 l 494 917 l 347 726 z "},"Ō":{"ha":596,"x_min":61,"x_max":533,"o":"m 213 876 l 382 876 q 533 739 533 876 l 533 138 q 382 0 533 0 l 213 0 q 61 138 61 0 l 61 739 q 213 876 61 876 m 374 160 l 374 717 q 365 747 374 739 q 335 754 357 754 l 261 754 q 229 747 238 754 q 221 717 221 739 l 221 160 q 229 130 221 138 q 261 122 238 122 l 335 122 q 365 130 357 122 q 374 160 374 138 m 507 1029 l 507 919 l 86 919 l 86 1029 l 507 1029 z "},"ō":{"ha":558,"x_min":53,"x_max":506,"o":"m 201 682 l 358 682 q 506 544 506 682 l 506 138 q 358 0 506 0 l 201 0 q 53 138 53 0 l 53 544 q 201 682 53 682 m 351 156 l 351 526 q 343 556 351 549 q 311 564 335 564 l 247 564 q 215 556 224 564 q 207 526 207 549 l 207 156 q 215 126 207 133 q 247 118 224 118 l 311 118 q 343 126 335 118 q 351 156 351 133 m 483 876 l 483 767 l 63 767 l 63 876 l 483 876 z "},"Ő":{"ha":586,"x_min":61,"x_max":607,"o":"m 213 876 l 382 876 q 533 739 533 876 l 533 138 q 382 0 533 0 l 213 0 q 61 138 61 0 l 61 739 q 213 876 61 876 m 374 160 l 374 717 q 365 747 374 739 q 335 754 357 754 l 261 754 q 229 747 238 754 q 221 717 221 739 l 221 160 q 229 130 221 138 q 261 122 238 122 l 335 122 q 365 130 357 122 q 374 160 374 138 m 413 1110 l 256 919 l 146 919 l 265 1110 l 413 1110 m 450 919 l 340 919 l 460 1110 l 607 1110 l 450 919 z "},"ő":{"ha":558,"x_min":53,"x_max":585,"o":"m 201 682 l 358 682 q 506 544 506 682 l 506 138 q 358 0 506 0 l 201 0 q 53 138 53 0 l 53 544 q 201 682 53 682 m 351 156 l 351 526 q 343 556 351 549 q 311 564 335 564 l 247 564 q 215 556 224 564 q 207 526 207 549 l 207 156 q 215 126 207 133 q 247 118 224 118 l 311 118 q 343 126 335 118 q 351 156 351 133 m 390 917 l 233 726 l 124 726 l 243 917 l 390 917 m 428 726 l 318 726 l 438 917 l 585 917 l 428 726 z "},"Œ":{"ha":854,"x_min":79,"x_max":814,"o":"m 547 117 l 814 117 l 814 0 l 425 0 l 425 26 q 338 0 392 0 l 231 0 q 79 138 79 0 l 79 739 q 231 876 79 876 l 336 876 q 425 849 393 876 l 425 876 l 803 876 l 803 760 l 547 760 l 547 507 l 763 507 l 763 392 l 547 392 l 547 117 m 392 154 l 392 722 q 383 752 392 744 q 351 760 375 760 l 278 760 q 247 752 256 760 q 239 722 239 744 l 239 154 q 247 124 239 132 q 278 117 256 117 l 351 117 q 383 124 375 117 q 392 154 392 132 z "},"œ":{"ha":913,"x_min":57,"x_max":786,"o":"m 533 682 l 635 682 q 786 544 786 682 l 786 293 l 492 293 l 492 157 q 500 127 492 135 q 532 119 508 119 l 590 119 q 621 127 613 119 q 629 157 629 135 l 629 207 l 785 207 l 785 138 q 633 0 785 0 l 532 0 q 410 64 439 0 q 367 18 399 36 q 296 0 336 0 l 199 0 q 57 138 57 0 l 57 544 q 199 682 57 682 l 296 682 q 367 664 336 682 q 410 618 399 646 q 533 682 439 682 m 294 560 l 253 560 q 222 552 231 560 q 214 522 214 544 l 214 160 q 222 130 214 138 q 253 122 231 122 l 294 122 q 338 164 336 122 l 338 518 q 294 560 336 560 m 492 400 l 632 400 l 632 525 q 624 555 632 547 q 593 563 615 563 l 532 563 q 500 555 508 563 q 492 525 492 547 l 492 400 z "},"Ŕ":{"ha":597,"x_min":67,"x_max":585,"o":"m 226 342 l 226 0 l 67 0 l 67 876 l 389 876 q 540 739 540 876 l 540 479 q 439 346 540 365 l 585 0 l 413 0 l 279 342 l 226 342 m 226 754 l 226 460 l 342 460 q 372 467 364 460 q 381 497 381 475 l 381 717 q 372 747 381 739 q 342 754 364 754 l 226 754 m 510 1110 l 353 919 l 222 919 l 342 1110 l 510 1110 z "},"ŕ":{"ha":369,"x_min":60,"x_max":435,"o":"m 215 682 l 215 594 q 258 660 226 635 q 338 685 290 685 l 363 685 l 363 549 l 304 549 q 217 449 217 549 l 217 0 l 60 0 l 60 682 l 215 682 m 435 917 l 278 726 l 147 726 l 267 917 l 435 917 z "},"Ŗ":{"ha":597,"x_min":67,"x_max":585,"o":"m 226 342 l 226 0 l 67 0 l 67 876 l 389 876 q 540 739 540 876 l 540 479 q 439 346 540 365 l 585 0 l 413 0 l 279 342 l 226 342 m 226 754 l 226 460 l 342 460 q 372 467 364 460 q 381 497 381 475 l 381 717 q 372 747 381 739 q 342 754 364 754 l 226 754 m 215 -347 l 215 -68 l 379 -68 l 379 -151 l 268 -347 l 215 -347 z "},"ŗ":{"ha":369,"x_min":58,"x_max":363,"o":"m 338 685 l 363 685 l 363 549 l 304 549 q 217 449 217 549 l 217 0 l 60 0 l 60 682 l 215 682 l 215 594 q 258 660 226 635 q 338 685 290 685 m 58 -347 l 58 -68 l 222 -68 l 222 -151 l 111 -347 l 58 -347 z "},"Ř":{"ha":597,"x_min":67,"x_max":585,"o":"m 226 342 l 226 0 l 67 0 l 67 876 l 389 876 q 540 739 540 876 l 540 479 q 439 346 540 365 l 585 0 l 413 0 l 279 342 l 226 342 m 226 754 l 226 460 l 342 460 q 372 467 364 460 q 381 497 381 475 l 381 717 q 372 747 381 739 q 342 754 364 754 l 226 754 m 376 919 l 214 919 l 67 1110 l 222 1110 l 294 1003 l 368 1110 l 524 1110 l 376 919 z "},"ř":{"ha":369,"x_min":-18,"x_max":439,"o":"m 215 682 l 215 594 q 258 660 226 635 q 338 685 290 685 l 363 685 l 363 549 l 304 549 q 217 449 217 549 l 217 0 l 60 0 l 60 682 l 215 682 m 292 726 l 129 726 l -18 917 l 138 917 l 210 810 l 283 917 l 439 917 l 292 726 z "},"Ś":{"ha":554,"x_min":50,"x_max":506,"o":"m 344 160 l 344 347 q 336 377 344 369 q 306 385 328 385 l 193 385 q 50 524 50 385 l 50 739 q 200 876 50 876 l 353 876 q 503 739 503 876 l 503 617 l 342 617 l 342 717 q 333 747 342 739 q 303 754 325 754 l 250 754 q 218 747 226 754 q 210 717 210 739 l 210 540 q 218 510 210 518 q 250 503 226 503 l 360 503 q 506 367 506 503 l 506 138 q 354 0 506 0 l 204 0 q 53 138 53 0 l 53 258 l 213 258 l 213 160 q 221 130 213 138 q 253 122 229 122 l 306 122 q 336 130 328 122 q 344 160 344 138 m 217 921 l 336 1111 l 504 1111 l 347 921 l 217 921 z "},"ś":{"ha":503,"x_min":43,"x_max":483,"o":"m 307 150 l 307 246 q 299 276 307 268 q 267 283 290 283 l 192 283 q 43 419 43 283 l 43 544 q 194 682 43 682 l 304 682 q 454 544 454 682 l 454 481 l 303 481 l 303 532 q 294 562 303 554 q 264 569 286 569 l 236 569 q 204 562 213 569 q 196 532 196 554 l 196 432 q 204 402 196 410 q 236 394 213 394 l 311 394 q 461 258 461 394 l 461 138 q 310 0 461 0 l 197 0 q 46 138 46 0 l 46 200 l 200 200 l 200 150 q 208 120 200 128 q 239 113 217 113 l 267 113 q 299 120 290 113 q 307 150 307 128 m 196 726 l 315 917 l 483 917 l 326 726 l 196 726 z "},"Ş":{"ha":554,"x_min":50,"x_max":506,"o":"m 194 -68 l 358 -68 l 358 -151 l 247 -347 l 194 -347 l 194 -68 m 344 160 l 344 347 q 336 377 344 369 q 306 385 328 385 l 193 385 q 50 524 50 385 l 50 739 q 200 876 50 876 l 353 876 q 503 739 503 876 l 503 617 l 342 617 l 342 717 q 333 747 342 739 q 303 754 325 754 l 250 754 q 218 747 226 754 q 210 717 210 739 l 210 540 q 218 510 210 518 q 250 503 226 503 l 360 503 q 506 367 506 503 l 506 138 q 354 0 506 0 l 204 0 q 53 138 53 0 l 53 258 l 213 258 l 213 160 q 221 130 213 138 q 253 122 229 122 l 306 122 q 336 130 328 122 q 344 160 344 138 z "},"ş":{"ha":503,"x_min":43,"x_max":461,"o":"m 168 -68 l 332 -68 l 332 -151 l 221 -347 l 168 -347 l 168 -68 m 307 150 l 307 246 q 299 276 307 268 q 267 283 290 283 l 192 283 q 43 419 43 283 l 43 544 q 194 682 43 682 l 304 682 q 454 544 454 682 l 454 481 l 303 481 l 303 532 q 294 562 303 554 q 264 569 286 569 l 236 569 q 204 562 213 569 q 196 532 196 554 l 196 432 q 204 402 196 410 q 236 394 213 394 l 311 394 q 461 258 461 394 l 461 138 q 310 0 461 0 l 197 0 q 46 138 46 0 l 46 200 l 200 200 l 200 150 q 208 120 200 128 q 239 113 217 113 l 267 113 q 299 120 290 113 q 307 150 307 128 z "},"Š":{"ha":554,"x_min":49,"x_max":506,"o":"m 344 160 l 344 347 q 336 377 344 369 q 306 385 328 385 l 193 385 q 50 524 50 385 l 50 739 q 200 876 50 876 l 353 876 q 503 739 503 876 l 503 617 l 342 617 l 342 717 q 333 747 342 739 q 303 754 325 754 l 250 754 q 218 747 226 754 q 210 717 210 739 l 210 540 q 218 510 210 518 q 250 503 226 503 l 360 503 q 506 367 506 503 l 506 138 q 354 0 506 0 l 204 0 q 53 138 53 0 l 53 258 l 213 258 l 213 160 q 221 130 213 138 q 253 122 229 122 l 306 122 q 336 130 328 122 q 344 160 344 138 m 196 921 l 49 1111 l 204 1111 l 276 1004 l 350 1111 l 506 1111 l 358 921 l 196 921 z "},"š":{"ha":503,"x_min":21,"x_max":478,"o":"m 307 150 l 307 246 q 299 276 307 268 q 267 283 290 283 l 192 283 q 43 419 43 283 l 43 544 q 194 682 43 682 l 304 682 q 454 544 454 682 l 454 481 l 303 481 l 303 532 q 294 562 303 554 q 264 569 286 569 l 236 569 q 204 562 213 569 q 196 532 196 554 l 196 432 q 204 402 196 410 q 236 394 213 394 l 311 394 q 461 258 461 394 l 461 138 q 310 0 461 0 l 197 0 q 46 138 46 0 l 46 200 l 200 200 l 200 150 q 208 120 200 128 q 239 113 217 113 l 267 113 q 299 120 290 113 q 307 150 307 128 m 168 726 l 21 917 l 176 917 l 249 810 l 322 917 l 478 917 l 331 726 l 168 726 z "},"Ţ":{"ha":481,"x_min":7,"x_max":474,"o":"m 7 876 l 474 876 l 474 754 l 319 754 l 319 0 l 160 0 l 160 754 l 7 754 l 7 876 m 157 -347 l 157 -68 l 321 -68 l 321 -151 l 210 -347 l 157 -347 z "},"ţ":{"ha":481,"x_min":7,"x_max":474,"o":"m 7 876 l 474 876 l 474 754 l 319 754 l 319 0 l 160 0 l 160 754 l 7 754 l 7 876 m 158 -347 l 158 -68 l 322 -68 l 322 -151 l 211 -347 l 158 -347 z "},"Ť":{"ha":481,"x_min":7,"x_max":474,"o":"m 474 876 l 474 754 l 319 754 l 319 0 l 160 0 l 160 754 l 7 754 l 7 876 l 474 876 m 319 921 l 157 921 l 10 1111 l 165 1111 l 238 1004 l 311 1111 l 467 1111 l 319 921 z "},"ť":{"ha":339,"x_min":7,"x_max":422,"o":"m 292 954 l 422 954 l 422 878 l 336 728 l 292 728 l 292 954 m 232 804 l 232 682 l 325 682 l 325 560 l 232 560 l 232 164 q 240 134 232 142 q 272 126 249 126 l 324 126 l 324 0 l 226 0 q 75 138 75 0 l 75 560 l 7 560 l 7 682 l 75 682 l 75 804 l 232 804 z "},"Ū":{"ha":603,"x_min":65,"x_max":538,"o":"m 378 876 l 538 876 l 538 138 q 386 0 538 0 l 217 0 q 65 138 65 0 l 65 876 l 225 876 l 225 160 q 233 130 225 138 q 264 122 242 122 l 338 122 q 369 130 361 122 q 378 160 378 138 l 378 876 m 513 1029 l 513 919 l 92 919 l 92 1029 l 513 1029 z "},"ū":{"ha":554,"x_min":57,"x_max":496,"o":"m 338 682 l 496 682 l 496 0 l 340 0 l 340 68 q 242 0 324 0 l 199 0 q 57 138 57 0 l 57 682 l 214 682 l 214 160 q 222 130 214 138 q 253 122 231 122 l 294 122 q 338 168 338 122 l 338 682 m 485 876 l 485 767 l 64 767 l 64 876 l 485 876 z "},"Ů":{"ha":603,"x_min":65,"x_max":538,"o":"m 378 876 l 538 876 l 538 138 q 386 0 538 0 l 217 0 q 65 138 65 0 l 65 876 l 225 876 l 225 160 q 233 130 225 138 q 264 122 242 122 l 338 122 q 369 130 361 122 q 378 160 378 138 l 378 876 m 350 919 l 250 919 q 138 1024 138 919 l 138 1047 q 250 1153 138 1153 l 350 1153 q 463 1047 463 1153 l 463 1024 q 350 919 463 919 m 242 1042 l 242 1029 q 249 1003 242 1010 q 276 997 256 997 l 324 997 q 351 1003 344 997 q 358 1029 358 1010 l 358 1042 q 351 1068 358 1061 q 324 1075 344 1075 l 276 1075 q 249 1068 256 1075 q 242 1042 242 1061 z "},"ů":{"ha":554,"x_min":57,"x_max":496,"o":"m 338 682 l 496 682 l 496 0 l 340 0 l 340 68 q 242 0 324 0 l 199 0 q 57 138 57 0 l 57 682 l 214 682 l 214 160 q 222 130 214 138 q 253 122 231 122 l 294 122 q 338 168 338 122 l 338 682 m 332 732 l 232 732 q 119 836 119 732 l 119 860 q 232 965 119 965 l 332 965 q 444 860 444 965 l 444 836 q 332 732 444 732 m 224 854 l 224 842 q 231 816 224 822 q 258 810 238 810 l 306 810 q 333 816 326 810 q 340 842 340 822 l 340 854 q 333 881 340 874 q 306 888 326 888 l 258 888 q 231 881 238 888 q 224 854 224 874 z "},"Ű":{"ha":589,"x_min":65,"x_max":603,"o":"m 378 160 l 378 876 l 538 876 l 538 138 q 386 0 538 0 l 217 0 q 65 138 65 0 l 65 876 l 225 876 l 225 160 q 233 130 225 138 q 264 122 242 122 l 338 122 q 369 130 361 122 q 378 160 378 138 m 408 1111 l 251 921 l 142 921 l 261 1111 l 408 1111 m 446 921 l 336 921 l 456 1111 l 603 1111 l 446 921 z "},"ű":{"ha":554,"x_min":57,"x_max":574,"o":"m 338 682 l 496 682 l 496 0 l 340 0 l 340 68 q 242 0 324 0 l 199 0 q 57 138 57 0 l 57 682 l 214 682 l 214 160 q 222 130 214 138 q 253 122 231 122 l 294 122 q 338 168 338 122 l 338 682 m 379 917 l 222 726 l 113 726 l 232 917 l 379 917 m 417 726 l 307 726 l 426 917 l 574 917 l 417 726 z "},"Ų":{"ha":603,"x_min":65,"x_max":538,"o":"m 378 876 l 538 876 l 538 138 q 386 0 538 0 l 367 0 l 367 -131 l 275 -131 q 245 -137 253 -131 q 238 -165 238 -144 l 238 -197 q 245 -224 238 -217 q 275 -231 253 -231 l 392 -231 l 392 -332 l 250 -332 q 149 -301 181 -332 q 118 -207 118 -269 l 118 -154 q 250 -29 118 -29 l 260 -29 l 260 0 l 217 0 q 65 138 65 0 l 65 876 l 225 876 l 225 160 q 233 130 225 138 q 264 122 242 122 l 338 122 q 369 130 361 122 q 378 160 378 138 l 378 876 z "},"ų":{"ha":554,"x_min":57,"x_max":521,"o":"m 404 -231 l 521 -231 l 521 -332 l 379 -332 q 278 -301 310 -332 q 247 -207 247 -269 l 247 -154 q 379 -29 247 -29 l 389 -29 l 389 0 l 340 0 l 340 68 q 242 0 324 0 l 199 0 q 57 138 57 0 l 57 682 l 214 682 l 214 160 q 222 130 214 138 q 253 122 231 122 l 294 122 q 338 168 338 122 l 338 682 l 496 682 l 496 -131 l 404 -131 q 374 -137 382 -131 q 367 -165 367 -144 l 367 -197 q 374 -224 367 -217 q 404 -231 382 -231 z "},"Ÿ":{"ha":554,"x_min":4,"x_max":561,"o":"m 368 0 l 208 0 l 208 278 l 4 876 l 167 876 l 286 426 l 399 876 l 561 876 l 368 282 l 368 0 m 218 1076 l 218 931 l 57 931 l 57 1076 l 218 1076 m 501 1076 l 501 931 l 340 931 l 340 1076 l 501 1076 z "},"Ź":{"ha":496,"x_min":17,"x_max":479,"o":"m 479 876 l 479 754 l 181 122 l 472 122 l 472 0 l 17 0 l 17 122 l 315 754 l 32 754 l 32 876 l 479 876 m 478 1111 l 321 921 l 190 921 l 310 1111 l 478 1111 z "},"ź":{"ha":446,"x_min":18,"x_max":454,"o":"m 428 118 l 428 0 l 18 0 l 18 118 l 257 564 l 33 564 l 33 682 l 422 682 l 422 564 l 181 118 l 428 118 m 454 917 l 297 726 l 167 726 l 286 917 l 454 917 z "},"Ż":{"ha":496,"x_min":17,"x_max":479,"o":"m 479 876 l 479 754 l 181 122 l 472 122 l 472 0 l 17 0 l 17 122 l 315 754 l 32 754 l 32 876 l 479 876 m 346 1067 l 346 921 l 176 921 l 176 1067 l 346 1067 z "},"ż":{"ha":446,"x_min":18,"x_max":428,"o":"m 428 118 l 428 0 l 18 0 l 18 118 l 257 564 l 33 564 l 33 682 l 422 682 l 422 564 l 181 118 l 428 118 m 317 894 l 317 749 l 147 749 l 147 894 l 317 894 z "},"Ž":{"ha":496,"x_min":17,"x_max":488,"o":"m 32 754 l 32 876 l 479 876 l 479 754 l 181 122 l 472 122 l 472 0 l 17 0 l 17 122 l 315 754 l 32 754 m 340 921 l 178 921 l 31 1111 l 186 1111 l 258 1004 l 332 1111 l 488 1111 l 340 921 z "},"ž":{"ha":446,"x_min":0,"x_max":457,"o":"m 428 118 l 428 0 l 18 0 l 18 118 l 257 564 l 33 564 l 33 682 l 422 682 l 422 564 l 181 118 l 428 118 m 310 726 l 147 726 l 0 917 l 156 917 l 228 810 l 301 917 l 457 917 l 310 726 z "},"ƒ":{"ha":529,"x_min":-14,"x_max":469,"o":"m 469 803 l 401 803 q 372 796 379 803 q 363 765 365 789 l 351 682 l 469 682 l 469 560 l 335 560 l 251 -62 q 209 -166 242 -132 q 100 -200 176 -200 l -14 -200 l -14 -74 l 54 -74 q 84 -66 76 -74 q 94 -36 92 -58 l 175 560 l 82 560 l 82 682 l 190 682 l 206 792 q 247 895 214 861 q 356 929 281 929 l 469 929 l 469 803 z "},"Ș":{"ha":554,"x_min":50,"x_max":506,"o":"m 194 -68 l 358 -68 l 358 -151 l 247 -347 l 194 -347 l 194 -68 m 344 160 l 344 347 q 336 377 344 369 q 306 385 328 385 l 193 385 q 50 524 50 385 l 50 739 q 200 876 50 876 l 353 876 q 503 739 503 876 l 503 617 l 342 617 l 342 717 q 333 747 342 739 q 303 754 325 754 l 250 754 q 218 747 226 754 q 210 717 210 739 l 210 540 q 218 510 210 518 q 250 503 226 503 l 360 503 q 506 367 506 503 l 506 138 q 354 0 506 0 l 204 0 q 53 138 53 0 l 53 258 l 213 258 l 213 160 q 221 130 213 138 q 253 122 229 122 l 306 122 q 336 130 328 122 q 344 160 344 138 z "},"ș":{"ha":503,"x_min":43,"x_max":461,"o":"m 175 -68 l 340 -68 l 340 -151 l 228 -347 l 175 -347 l 175 -68 m 307 150 l 307 246 q 299 276 307 268 q 267 283 290 283 l 192 283 q 43 419 43 283 l 43 544 q 194 682 43 682 l 304 682 q 454 544 454 682 l 454 481 l 303 481 l 303 532 q 294 562 303 554 q 264 569 286 569 l 236 569 q 204 562 213 569 q 196 532 196 554 l 196 432 q 204 402 196 410 q 236 394 213 394 l 311 394 q 461 258 461 394 l 461 138 q 310 0 461 0 l 197 0 q 46 138 46 0 l 46 200 l 200 200 l 200 150 q 208 120 200 128 q 239 113 217 113 l 267 113 q 299 120 290 113 q 307 150 307 128 z "},"Ț":{"ha":481,"x_min":7,"x_max":474,"o":"m 7 876 l 474 876 l 474 754 l 319 754 l 319 0 l 160 0 l 160 754 l 7 754 l 7 876 m 158 -347 l 158 -68 l 322 -68 l 322 -151 l 211 -347 l 158 -347 z "},"ț":{"ha":339,"x_min":7,"x_max":325,"o":"m 325 560 l 232 560 l 232 164 q 240 134 232 142 q 272 126 249 126 l 324 126 l 324 0 l 226 0 q 75 138 75 0 l 75 560 l 7 560 l 7 682 l 75 682 l 75 804 l 232 804 l 232 682 l 325 682 l 325 560 m 111 -347 l 111 -68 l 275 -68 l 275 -151 l 164 -347 l 111 -347 z "},"ˆ":{"ha":617,"x_min":79,"x_max":536,"o":"m 79 726 l 226 917 l 389 917 l 536 726 l 381 726 l 307 833 l 235 726 l 79 726 z "},"ˇ":{"ha":617,"x_min":79,"x_max":536,"o":"m 226 726 l 79 917 l 235 917 l 307 810 l 381 917 l 536 917 l 389 726 l 226 726 z "},"ˉ":{"ha":617,"x_min":97,"x_max":518,"o":"m 97 767 l 97 876 l 518 876 l 518 767 l 97 767 z "},"˘":{"ha":617,"x_min":88,"x_max":529,"o":"m 388 917 l 529 917 l 529 864 q 379 726 529 726 l 238 726 q 88 864 88 726 l 88 917 l 229 917 l 229 865 q 238 835 229 843 q 269 828 246 828 l 347 828 q 379 835 371 828 q 388 865 388 843 l 388 917 z "},"˙":{"ha":617,"x_min":224,"x_max":393,"o":"m 224 749 l 224 894 l 393 894 l 393 749 l 224 749 z "},"˚":{"ha":617,"x_min":146,"x_max":471,"o":"m 367 815 l 367 828 q 360 854 367 847 q 332 861 353 861 l 285 861 q 257 854 264 861 q 250 828 250 847 l 250 815 q 257 790 250 796 q 285 783 264 783 l 332 783 q 360 790 353 783 q 367 815 367 796 m 471 833 l 471 810 q 358 706 471 706 l 258 706 q 146 810 146 706 l 146 833 q 258 939 146 939 l 358 939 q 471 833 471 939 z "},"˛":{"ha":617,"x_min":176,"x_max":450,"o":"m 333 -231 l 450 -231 l 450 -332 l 308 -332 q 208 -301 239 -332 q 176 -207 176 -269 l 176 -154 q 308 -29 176 -29 l 318 -29 l 318 17 l 425 17 l 425 -131 l 333 -131 q 303 -137 311 -131 q 296 -165 296 -144 l 296 -197 q 303 -224 296 -217 q 333 -231 311 -231 z "},"˜":{"ha":617,"x_min":90,"x_max":525,"o":"m 394 740 q 306 770 356 740 q 246 800 257 800 q 221 768 221 800 l 221 740 l 90 740 l 90 785 q 117 873 90 843 q 207 903 143 903 l 224 903 q 310 873 263 903 q 369 843 358 843 q 394 875 394 843 l 394 903 l 525 903 l 525 854 q 499 769 525 797 q 408 740 472 740 l 394 740 z "},"˝":{"ha":617,"x_min":78,"x_max":539,"o":"m 78 726 l 197 917 l 344 917 l 188 726 l 78 726 m 272 726 l 392 917 l 539 917 l 382 726 l 272 726 z "},"π":{"ha":660,"x_min":6,"x_max":653,"o":"m 653 682 l 653 567 l 556 567 l 556 0 l 396 0 l 396 567 l 251 567 l 251 138 q 100 0 251 0 l 6 0 l 6 126 l 54 126 q 85 134 76 126 q 93 164 93 142 l 93 682 l 653 682 z "},"ँ":{"ha":0,"x_min":-397,"x_max":110,"o":"m -208 1231 l -81 1231 l -81 1099 l -208 1099 l -208 1231 m -397 1157 l -261 1157 l -261 1082 q -253 1050 -261 1058 q -221 1042 -244 1042 l -67 1042 q -35 1050 -43 1042 q -26 1082 -26 1058 l -26 1157 l 110 1157 l 110 1065 q 73 973 110 1003 q -44 943 36 943 l -243 943 q -360 973 -324 943 q -397 1065 -397 1003 l -397 1157 z "},"ं":{"ha":0,"x_min":-211,"x_max":-81,"o":"m -211 1156 l -81 1156 l -81 1010 l -211 1010 l -211 1156 z "},"ः":{"ha":279,"x_min":74,"x_max":206,"o":"m 74 685 l 206 685 l 206 539 l 74 539 l 74 685 m 74 231 l 206 231 l 206 85 l 74 85 l 74 231 z "},"अ":{"ha":835,"x_min":54,"x_max":863,"o":"m 863 876 l 863 761 l 768 761 l 768 0 l 611 0 l 611 381 l 488 381 l 488 242 q 453 142 488 175 q 340 108 419 108 l 201 108 q 88 142 122 108 q 54 242 54 175 l 54 367 l 213 367 l 213 260 q 220 231 213 238 q 250 224 228 224 l 292 224 q 322 231 314 224 q 331 260 331 239 l 331 393 q 322 426 331 417 q 289 435 313 435 l 217 435 l 217 549 l 289 549 q 322 558 313 549 q 331 590 331 567 l 331 728 q 322 756 331 749 q 292 764 314 764 l 250 764 q 220 757 228 764 q 213 728 213 750 l 213 628 l 54 628 l 54 746 q 88 846 54 813 q 201 879 122 879 l 340 879 q 453 846 419 879 q 488 746 488 813 l 488 565 q 431 494 488 501 l 611 494 l 611 876 l 863 876 z "},"आ":{"ha":1128,"x_min":54,"x_max":1154,"o":"m 1154 876 l 1154 761 l 1060 761 l 1060 0 l 903 0 l 903 761 l 768 761 l 768 0 l 611 0 l 611 381 l 488 381 l 488 242 q 453 142 488 175 q 340 108 419 108 l 201 108 q 88 142 122 108 q 54 242 54 175 l 54 367 l 213 367 l 213 260 q 220 231 213 238 q 250 224 228 224 l 292 224 q 322 231 314 224 q 331 260 331 239 l 331 393 q 322 426 331 417 q 289 435 313 435 l 217 435 l 217 549 l 289 549 q 322 558 313 549 q 331 590 331 567 l 331 728 q 322 756 331 749 q 292 764 314 764 l 250 764 q 220 757 228 764 q 213 728 213 750 l 213 628 l 54 628 l 54 746 q 88 846 54 813 q 201 879 122 879 l 340 879 q 453 846 419 879 q 488 746 488 813 l 488 565 q 431 494 488 501 l 611 494 l 611 876 l 1154 876 z "},"इ":{"ha":547,"x_min":-28,"x_max":575,"o":"m 474 557 l 242 557 q 211 549 219 557 q 203 521 203 542 l 203 475 q 211 447 203 454 q 242 439 219 439 l 346 439 q 459 408 425 439 q 493 311 493 378 l 493 188 q 459 92 493 122 q 346 61 425 61 l 214 61 l 214 -37 l 56 -37 l 56 249 l 214 249 l 214 169 l 297 169 q 328 176 321 169 q 336 206 336 183 l 336 293 q 328 322 336 315 q 297 329 321 329 l 193 329 q 80 360 114 329 q 46 457 46 390 l 46 539 q 80 635 46 604 q 193 665 114 665 l 317 665 l 317 761 l -28 761 l -28 876 l 575 876 l 575 761 l 474 761 l 474 557 z "},"ई":{"ha":547,"x_min":-28,"x_max":575,"o":"m 474 557 l 242 557 q 211 549 219 557 q 203 521 203 542 l 203 475 q 211 447 203 454 q 242 439 219 439 l 346 439 q 459 408 425 439 q 493 311 493 378 l 493 188 q 459 92 493 122 q 346 61 425 61 l 214 61 l 214 -37 l 56 -37 l 56 249 l 214 249 l 214 169 l 297 169 q 328 176 321 169 q 336 206 336 183 l 336 293 q 328 322 336 315 q 297 329 321 329 l 193 329 q 80 360 114 329 q 46 457 46 390 l 46 539 q 80 635 46 604 q 193 665 114 665 l 317 665 l 317 761 l -28 761 l -28 876 l 317 876 l 317 971 q 351 1067 317 1036 q 464 1097 385 1097 l 571 1097 l 571 989 l 513 989 q 482 981 490 989 q 474 953 474 974 l 474 876 l 575 876 l 575 761 l 474 761 l 474 557 z "},"उ":{"ha":540,"x_min":-28,"x_max":563,"o":"m 563 876 l 563 761 l 457 761 q 467 725 467 746 l 467 564 q 410 493 467 497 l 410 488 q 467 418 467 481 l 467 126 q 433 31 467 61 q 319 0 399 0 l 179 0 q 66 31 100 0 q 32 126 32 61 l 32 296 l 189 296 l 189 146 q 197 116 189 124 q 224 108 204 108 l 271 108 q 302 116 294 108 q 310 146 310 124 l 310 392 q 302 423 310 415 q 271 431 294 431 l 178 431 l 178 546 l 271 546 q 302 553 294 546 q 310 585 310 561 l 310 715 q 299 753 310 744 q 253 761 289 761 l -28 761 l -28 876 l 563 876 z "},"ऊ":{"ha":768,"x_min":-28,"x_max":796,"o":"m 796 876 l 796 761 l 457 761 q 467 725 467 746 l 467 564 q 410 493 467 497 l 410 488 l 592 488 q 733 349 733 488 l 733 126 q 699 31 733 61 q 586 0 665 0 l 514 0 l 514 115 l 538 115 q 567 122 560 115 q 575 151 575 129 l 575 335 q 567 366 575 358 q 538 374 560 374 l 467 374 l 467 126 q 433 31 467 61 q 319 0 399 0 l 179 0 q 66 31 100 0 q 32 126 32 61 l 32 296 l 189 296 l 189 146 q 197 116 189 124 q 224 108 204 108 l 271 108 q 302 116 294 108 q 310 146 310 124 l 310 392 q 302 423 310 415 q 271 431 294 431 l 178 431 l 178 546 l 271 546 q 302 553 294 546 q 310 585 310 561 l 310 715 q 299 753 310 744 q 253 761 289 761 l -28 761 l -28 876 l 796 876 z "},"ऋ":{"ha":1106,"x_min":-28,"x_max":1133,"o":"m 561 761 l 561 376 l 671 376 q 651 439 651 399 l 651 528 q 688 633 651 600 q 811 665 725 665 l 894 665 q 1017 633 981 665 q 1054 528 1054 600 l 1054 435 q 1042 365 1054 386 q 1000 336 1029 344 l 1000 329 q 1053 250 1053 317 l 1053 126 q 1019 31 1053 63 q 906 0 986 0 l 794 0 q 688 32 719 0 q 656 126 656 64 l 656 194 l 811 194 l 811 146 q 819 117 811 125 q 844 108 826 108 l 860 108 q 888 117 881 108 q 896 146 896 125 l 896 235 q 888 262 896 256 q 860 268 881 268 l 561 268 l 561 0 l 404 0 l 404 268 l 372 268 l 199 0 l 19 0 l 235 331 l 156 474 q 112 531 133 515 q 51 546 90 546 l 13 546 l 13 663 l 106 663 q 213 642 176 663 q 279 569 249 622 l 390 376 l 404 376 l 404 761 l -28 761 l -28 876 l 1133 876 l 1133 761 l 561 761 m 808 521 l 808 414 q 842 376 808 376 l 865 376 q 897 414 897 376 l 897 521 q 890 550 897 542 q 860 558 882 558 l 844 558 q 816 550 824 558 q 808 521 808 542 z "},"ऌ":{"ha":832,"x_min":-28,"x_max":860,"o":"m 769 54 l 656 54 q 624 47 632 54 q 617 18 617 40 l 617 -31 q 624 -60 617 -53 q 656 -67 632 -67 l 839 -67 l 839 -181 l 607 -181 q 494 -150 528 -181 q 460 -54 460 -119 l 460 36 q 493 133 460 103 q 604 164 526 164 l 613 164 l 613 551 l 532 551 q 501 543 508 551 q 493 513 493 535 l 493 274 l 336 274 l 336 513 q 328 543 336 535 q 297 551 321 551 l 256 551 q 225 544 233 551 q 217 513 217 536 l 217 154 q 225 124 217 132 q 256 117 233 117 l 310 117 l 310 0 l 207 0 q 94 31 128 0 q 60 126 60 61 l 60 526 q 94 632 60 599 q 201 665 129 665 l 343 665 q 414 608 407 665 l 418 608 q 489 665 425 665 l 613 665 l 613 761 l -28 761 l -28 876 l 860 876 l 860 761 l 769 761 l 769 54 z "},"ऍ":{"ha":606,"x_min":-28,"x_max":633,"o":"m 633 876 l 633 761 l 547 761 l 547 511 q 513 415 547 446 q 400 385 479 385 l 297 385 l 297 500 l 351 500 q 381 507 374 500 q 389 536 389 514 l 389 761 l 225 761 l 225 146 q 233 116 225 124 q 263 108 240 108 l 353 108 q 379 116 372 108 q 386 146 386 124 l 386 289 l 544 289 l 544 126 q 510 31 544 61 q 397 0 476 0 l 214 0 q 101 31 135 0 q 67 126 67 61 l 67 761 l -28 761 l -28 876 l 633 876 m 408 931 l 211 931 q 93 960 129 931 q 57 1053 57 990 l 57 1144 l 192 1144 l 192 1069 q 201 1038 192 1046 q 233 1029 210 1029 l 386 1029 q 419 1038 411 1029 q 428 1069 428 1046 l 428 1144 l 564 1144 l 564 1053 q 527 960 564 990 q 408 931 490 931 z "},"ऎ":{"ha":606,"x_min":-28,"x_max":633,"o":"m 633 876 l 633 761 l 547 761 l 547 511 q 513 415 547 446 q 400 385 479 385 l 297 385 l 297 500 l 351 500 q 381 507 374 500 q 389 536 389 514 l 389 761 l 225 761 l 225 146 q 233 116 225 124 q 263 108 240 108 l 353 108 q 379 116 372 108 q 386 146 386 124 l 386 289 l 544 289 l 544 126 q 510 31 544 61 q 397 0 476 0 l 214 0 q 101 31 135 0 q 67 126 67 61 l 67 761 l -28 761 l -28 876 l 389 876 l 389 914 q 381 951 389 943 q 343 960 372 960 l 218 960 q 100 1078 100 960 l 100 1153 l 258 1153 l 258 1121 q 267 1083 258 1092 q 304 1075 275 1075 l 429 1075 q 547 957 547 1075 l 547 876 l 633 876 z "},"ए":{"ha":606,"x_min":-28,"x_max":633,"o":"m 633 876 l 633 761 l 547 761 l 547 511 q 513 415 547 446 q 400 385 479 385 l 297 385 l 297 500 l 351 500 q 381 507 374 500 q 389 536 389 514 l 389 761 l 225 761 l 225 146 q 233 116 225 124 q 263 108 240 108 l 353 108 q 379 116 372 108 q 386 146 386 124 l 386 289 l 544 289 l 544 126 q 510 31 544 61 q 397 0 476 0 l 214 0 q 101 31 135 0 q 67 126 67 61 l 67 761 l -28 761 l -28 876 l 633 876 z "},"ऐ":{"ha":606,"x_min":-28,"x_max":633,"o":"m 633 876 l 633 761 l 547 761 l 547 511 q 513 415 547 446 q 400 385 479 385 l 297 385 l 297 500 l 351 500 q 381 507 374 500 q 389 536 389 514 l 389 761 l 225 761 l 225 146 q 233 116 225 124 q 263 108 240 108 l 353 108 q 379 116 372 108 q 386 146 386 124 l 386 289 l 544 289 l 544 126 q 510 31 544 61 q 397 0 476 0 l 214 0 q 101 31 135 0 q 67 126 67 61 l 67 761 l -28 761 l -28 876 l 378 876 q 246 1026 319 929 l 158 1147 l 347 1147 l 538 876 l 633 876 z "},"ऑ":{"ha":1128,"x_min":54,"x_max":1235,"o":"m 1099 1157 l 1235 1157 l 1235 1065 q 1198 973 1235 1003 q 1079 943 1161 943 l 882 943 q 764 973 800 943 q 728 1065 728 1003 l 728 1157 l 863 1157 l 863 1082 q 872 1050 863 1058 q 904 1042 881 1042 l 1057 1042 q 1090 1050 1082 1042 q 1099 1082 1099 1058 l 1099 1157 m 1154 876 l 1154 761 l 1060 761 l 1060 0 l 903 0 l 903 761 l 768 761 l 768 0 l 611 0 l 611 381 l 488 381 l 488 242 q 453 142 488 175 q 340 108 419 108 l 201 108 q 88 142 122 108 q 54 242 54 175 l 54 367 l 213 367 l 213 260 q 220 231 213 238 q 250 224 228 224 l 292 224 q 322 231 314 224 q 331 260 331 239 l 331 393 q 322 426 331 417 q 289 435 313 435 l 217 435 l 217 549 l 289 549 q 322 558 313 549 q 331 590 331 567 l 331 728 q 322 756 331 749 q 292 764 314 764 l 250 764 q 220 757 228 764 q 213 728 213 750 l 213 628 l 54 628 l 54 746 q 88 846 54 813 q 201 879 122 879 l 340 879 q 453 846 419 879 q 488 746 488 813 l 488 565 q 431 494 488 501 l 611 494 l 611 876 l 1154 876 z "},"ऒ":{"ha":1126,"x_min":54,"x_max":1154,"o":"m 1154 876 l 1154 761 l 1060 761 l 1060 0 l 903 0 l 903 761 l 768 761 l 768 0 l 611 0 l 611 381 l 488 381 l 488 242 q 453 142 488 175 q 340 108 419 108 l 201 108 q 88 142 122 108 q 54 242 54 175 l 54 367 l 213 367 l 213 260 q 220 231 213 238 q 250 224 228 224 l 292 224 q 322 231 314 224 q 331 260 331 239 l 331 393 q 322 426 331 417 q 289 435 313 435 l 217 435 l 217 549 l 289 549 q 322 558 313 549 q 331 590 331 567 l 331 728 q 322 756 331 749 q 292 764 314 764 l 250 764 q 220 757 228 764 q 213 728 213 750 l 213 628 l 54 628 l 54 746 q 88 846 54 813 q 201 879 122 879 l 340 879 q 453 846 419 879 q 488 746 488 813 l 488 565 q 431 494 488 501 l 611 494 l 611 876 l 901 876 l 901 914 q 893 951 901 943 q 856 960 885 960 l 731 960 q 613 1078 613 960 l 613 1153 l 771 1153 l 771 1121 q 779 1083 771 1092 q 817 1075 788 1075 l 942 1075 q 1060 957 1060 1075 l 1060 876 l 1154 876 z "},"ओ":{"ha":1126,"x_min":54,"x_max":1154,"o":"m 1154 876 l 1154 761 l 1060 761 l 1060 0 l 903 0 l 903 761 l 768 761 l 768 0 l 611 0 l 611 381 l 488 381 l 488 242 q 453 142 488 175 q 340 108 419 108 l 201 108 q 88 142 122 108 q 54 242 54 175 l 54 367 l 213 367 l 213 260 q 220 231 213 238 q 250 224 228 224 l 292 224 q 322 231 314 224 q 331 260 331 239 l 331 393 q 322 426 331 417 q 289 435 313 435 l 217 435 l 217 549 l 289 549 q 322 558 313 549 q 331 590 331 567 l 331 728 q 322 756 331 749 q 292 764 314 764 l 250 764 q 220 757 228 764 q 213 728 213 750 l 213 628 l 54 628 l 54 746 q 88 846 54 813 q 201 879 122 879 l 340 879 q 453 846 419 879 q 488 746 488 813 l 488 565 q 431 494 488 501 l 611 494 l 611 876 l 899 876 q 767 1026 840 929 l 679 1147 l 868 1147 l 1058 876 l 1154 876 z "},"औ":{"ha":1128,"x_min":54,"x_max":1154,"o":"m 1154 876 l 1154 761 l 1060 761 l 1060 0 l 903 0 l 903 761 l 768 761 l 768 0 l 611 0 l 611 381 l 488 381 l 488 242 q 453 142 488 175 q 340 108 419 108 l 201 108 q 88 142 122 108 q 54 242 54 175 l 54 367 l 213 367 l 213 260 q 220 231 213 238 q 250 224 228 224 l 292 224 q 322 231 314 224 q 331 260 331 239 l 331 393 q 322 426 331 417 q 289 435 313 435 l 217 435 l 217 549 l 289 549 q 322 558 313 549 q 331 590 331 567 l 331 728 q 322 756 331 749 q 292 764 314 764 l 250 764 q 220 757 228 764 q 213 728 213 750 l 213 628 l 54 628 l 54 746 q 88 846 54 813 q 201 879 122 879 l 340 879 q 453 846 419 879 q 488 746 488 813 l 488 565 q 431 494 488 501 l 611 494 l 611 876 l 890 876 q 754 985 835 913 l 574 1147 l 767 1147 q 972 885 914 976 l 978 885 q 929 986 954 928 l 863 1147 l 1014 1147 l 1057 876 l 1154 876 z "},"क":{"ha":822,"x_min":-28,"x_max":850,"o":"m 850 761 l 490 761 l 490 650 q 547 665 506 665 l 633 665 q 740 632 706 665 q 775 526 775 599 l 775 235 q 741 139 775 169 q 628 108 707 108 l 546 108 l 546 217 l 579 217 q 609 224 601 217 q 617 254 617 232 l 617 513 q 609 544 617 536 q 579 551 601 551 l 531 551 q 499 542 508 551 q 490 510 490 533 l 490 0 l 332 0 l 332 125 q 275 108 315 108 l 189 108 q 47 247 47 108 l 47 539 q 81 635 47 604 q 194 665 115 665 l 276 665 l 276 557 l 243 557 q 213 549 221 557 q 204 521 204 542 l 204 263 q 213 231 204 239 q 243 224 221 224 l 292 224 q 323 232 314 224 q 332 264 332 240 l 332 761 l -28 761 l -28 876 l 850 876 l 850 761 z "},"ख":{"ha":1024,"x_min":-28,"x_max":1051,"o":"m 1051 876 l 1051 761 l 956 761 l 956 0 l 801 0 l 801 161 q 740 140 785 140 l 663 140 q 521 279 521 140 l 521 528 q 555 624 521 593 q 668 654 589 654 l 753 654 l 753 546 l 714 546 q 683 538 692 546 q 675 510 675 531 l 675 294 q 683 263 675 271 q 714 256 692 256 l 756 256 q 791 265 781 256 q 801 300 801 275 l 801 761 l 451 761 q 461 725 461 746 l 461 464 q 426 363 461 394 q 311 332 390 332 l 219 332 l 219 163 q 228 126 219 136 q 264 117 238 117 l 582 117 l 582 0 l 233 0 q 103 32 144 0 q 61 132 61 64 l 61 654 l 219 654 l 219 447 l 258 447 q 294 456 285 447 q 303 492 303 465 l 303 717 q 294 753 303 744 q 258 761 286 761 l -28 761 l -28 876 l 1051 876 z "},"ग":{"ha":842,"x_min":-28,"x_max":869,"o":"m 869 876 l 869 761 l 775 761 l 775 0 l 617 0 l 617 761 l 488 761 l 488 247 q 450 141 488 174 q 328 108 413 108 l 204 108 q 82 141 119 108 q 44 247 44 174 l 44 488 q 85 588 44 557 q 215 619 126 619 l 329 619 l 329 761 l -28 761 l -28 876 l 869 876 m 242 224 l 290 224 q 321 231 313 224 q 329 263 329 239 l 329 504 l 244 504 q 209 497 217 504 q 201 461 201 489 l 201 263 q 210 231 201 239 q 242 224 219 224 z "},"घ":{"ha":649,"x_min":-28,"x_max":676,"o":"m 676 876 l 676 761 l 582 761 l 582 0 l 424 0 l 424 125 q 369 108 407 108 l 222 108 q 100 142 139 108 q 61 247 61 175 l 61 418 q 119 488 61 483 l 119 493 q 61 564 61 500 l 61 722 q 74 761 61 749 l -28 761 l -28 876 l 676 876 m 424 271 l 424 761 l 288 761 q 231 754 243 761 q 219 717 219 747 l 219 588 q 227 556 219 564 q 257 549 235 549 l 331 549 l 331 435 l 257 435 q 227 427 235 435 q 219 396 219 419 l 219 263 q 227 231 219 239 q 257 224 235 224 l 376 224 q 413 234 403 224 q 424 271 424 244 z "},"ङ":{"ha":614,"x_min":-28,"x_max":642,"o":"m -28 876 l 642 876 l 642 761 l 467 761 l 467 557 l 263 557 q 233 550 240 557 q 225 521 225 543 l 225 451 q 233 422 225 429 q 263 415 240 415 l 342 415 q 455 385 421 415 q 489 289 489 354 l 489 126 q 455 31 489 61 q 342 0 421 0 l 201 0 q 88 31 122 0 q 54 126 54 61 l 54 225 l 213 225 l 213 146 q 219 116 213 124 q 246 108 226 108 l 293 108 q 324 116 315 108 q 332 146 332 124 l 332 271 q 324 299 332 292 q 293 307 315 307 l 214 307 q 101 338 135 307 q 68 433 68 368 l 68 539 q 101 635 68 604 q 214 665 135 665 l 310 665 l 310 761 l -28 761 l -28 876 m 478 413 l 478 558 l 608 558 l 608 413 l 478 413 z "},"च":{"ha":606,"x_min":-29,"x_max":633,"o":"m 633 876 l 633 761 l 538 761 l 538 0 l 381 0 l 381 125 q 324 108 364 108 l 221 108 q 79 247 79 108 l 79 497 q 97 551 79 533 l -3 551 l -3 665 l 321 665 l 321 551 l 299 551 q 248 545 258 551 q 238 513 238 539 l 238 263 q 245 231 238 239 q 275 224 253 224 l 340 224 q 372 232 363 224 q 381 264 381 240 l 381 761 l -29 761 l -29 876 l 633 876 z "},"छ":{"ha":818,"x_min":-28,"x_max":846,"o":"m 846 761 l 639 761 l 639 664 q 728 628 699 658 q 757 539 757 599 l 757 139 q 718 33 757 67 q 596 0 679 0 l 224 0 q 103 33 142 0 q 64 139 64 67 l 64 360 q 121 431 64 424 l 121 435 q 64 506 64 442 l 64 725 q 74 761 64 750 l -28 761 l -28 876 l 846 876 l 846 761 m 492 761 l 282 761 l 289 760 q 233 755 246 763 q 221 717 221 747 l 221 529 q 229 498 221 506 q 260 490 238 490 l 308 490 l 308 376 l 260 376 q 229 369 238 376 q 221 338 221 361 l 221 156 q 229 124 221 132 q 260 117 238 117 l 564 117 q 595 124 588 117 q 603 156 603 132 l 603 526 q 595 556 603 549 q 564 563 588 563 l 539 563 q 509 556 517 563 q 501 526 501 549 l 501 399 q 509 369 501 376 q 539 363 517 363 l 561 363 l 561 260 l 508 260 q 372 386 372 260 l 372 539 q 401 630 372 600 q 492 664 431 660 l 492 761 z "},"ज":{"ha":826,"x_min":-28,"x_max":854,"o":"m 854 876 l 854 761 l 758 761 l 758 0 l 601 0 l 601 551 l 490 551 l 490 247 q 453 141 490 174 q 331 108 417 108 l 219 108 q 97 141 133 108 q 60 247 60 174 l 60 665 l 217 665 l 217 263 q 225 231 217 239 q 257 224 233 224 l 294 224 q 325 231 317 224 q 333 263 333 239 l 333 665 l 601 665 l 601 761 l -28 761 l -28 876 l 854 876 z "},"झ":{"ha":849,"x_min":-40,"x_max":876,"o":"m 876 876 l 876 761 l 782 761 l 782 0 l 624 0 l 624 329 l 494 329 q 497 300 497 310 l 497 188 q 463 92 497 122 q 350 61 429 61 l 214 61 l 214 -37 l 56 -37 l 56 249 l 214 249 l 214 169 l 301 169 q 332 177 324 169 q 340 206 340 185 l 340 293 q 332 322 340 314 q 301 329 324 329 l 201 329 q 88 360 122 329 q 54 457 54 390 l 54 539 q 88 635 54 604 q 201 665 122 665 l 322 665 l 322 761 l -40 761 l -40 876 l 876 876 m 625 439 l 625 761 l 481 761 l 481 557 l 250 557 q 219 549 228 557 q 211 521 211 542 l 211 475 q 219 447 211 454 q 250 439 228 439 l 625 439 z "},"ञ":{"ha":814,"x_min":-28,"x_max":842,"o":"m 842 876 l 842 761 l 747 761 l 747 0 l 589 0 l 589 347 l 463 347 l 463 247 q 426 141 463 174 q 303 108 389 108 l 196 108 q 73 141 110 108 q 36 247 36 174 l 36 364 l 193 364 l 193 263 q 201 231 193 239 q 232 224 210 224 l 267 224 q 297 231 289 224 q 306 263 306 239 l 306 514 q 298 544 306 536 q 267 551 290 551 l 138 551 l 138 665 l 317 665 q 428 632 394 665 q 463 533 463 599 l 463 463 l 589 463 l 589 761 l -28 761 l -28 876 l 842 876 z "},"ट":{"ha":558,"x_min":-28,"x_max":586,"o":"m 493 551 l 264 551 q 233 544 242 551 q 225 513 225 536 l 225 154 q 233 123 225 131 q 264 115 242 115 l 301 115 q 333 123 324 115 q 342 154 342 131 l 342 297 l 499 297 l 499 139 q 461 33 499 65 q 339 0 424 0 l 226 0 q 104 33 142 0 q 67 139 67 65 l 67 539 q 101 635 67 604 q 214 665 135 665 l 336 665 l 336 761 l -28 761 l -28 876 l 586 876 l 586 761 l 493 761 l 493 551 z "},"ठ":{"ha":585,"x_min":-28,"x_max":613,"o":"m 613 761 l 374 761 l 374 665 q 488 631 454 664 q 522 526 522 599 l 522 139 q 485 33 522 65 q 363 0 449 0 l 226 0 q 104 33 142 0 q 67 139 67 65 l 67 526 q 101 631 67 599 q 217 665 136 664 l 217 761 l -28 761 l -28 876 l 613 876 l 613 761 m 365 154 l 365 513 q 357 544 365 536 q 326 551 349 551 l 264 551 q 233 544 242 551 q 225 513 225 536 l 225 154 q 233 123 225 131 q 264 115 242 115 l 326 115 q 357 123 349 115 q 365 154 365 131 z "},"ड":{"ha":560,"x_min":-28,"x_max":588,"o":"m 467 557 l 263 557 q 233 550 240 557 q 225 521 225 543 l 225 451 q 233 422 225 429 q 263 415 240 415 l 342 415 q 455 385 421 415 q 489 289 489 354 l 489 126 q 455 31 489 61 q 342 0 421 0 l 201 0 q 88 31 122 0 q 54 126 54 61 l 54 225 l 213 225 l 213 146 q 219 116 213 124 q 246 108 226 108 l 293 108 q 324 116 315 108 q 332 146 332 124 l 332 271 q 324 299 332 292 q 293 307 315 307 l 214 307 q 101 338 135 307 q 68 433 68 368 l 68 539 q 101 635 68 604 q 214 665 135 665 l 310 665 l 310 761 l -28 761 l -28 876 l 588 876 l 588 761 l 467 761 l 467 557 z "},"ढ":{"ha":610,"x_min":-28,"x_max":638,"o":"m 493 551 l 264 551 q 233 544 242 551 q 225 513 225 536 l 225 154 q 233 123 225 131 q 264 115 242 115 l 351 115 q 382 123 374 115 q 390 154 390 131 l 390 253 q 382 283 390 275 q 351 290 374 290 l 292 290 l 292 406 l 389 406 q 511 373 474 406 q 549 267 549 340 l 549 139 q 511 33 549 65 q 389 0 474 0 l 226 0 q 104 33 142 0 q 67 139 67 65 l 67 539 q 101 635 67 604 q 214 665 135 665 l 336 665 l 336 761 l -28 761 l -28 876 l 638 876 l 638 761 l 493 761 l 493 551 z "},"ण":{"ha":832,"x_min":-28,"x_max":860,"o":"m 860 876 l 860 761 l 765 761 l 765 0 l 607 0 l 607 761 l 490 761 l 490 247 q 453 141 490 174 q 331 108 417 108 l 219 108 q 97 141 133 108 q 60 247 60 174 l 60 761 l -28 761 l -28 876 l 860 876 m 333 263 l 333 761 l 217 761 l 217 263 q 225 231 217 239 q 257 224 233 224 l 294 224 q 325 231 317 224 q 333 263 333 239 z "},"त":{"ha":592,"x_min":-28,"x_max":619,"o":"m 619 876 l 619 761 l 524 761 l 524 0 l 367 0 l 367 551 l 256 551 q 225 544 233 551 q 217 514 217 536 l 217 154 q 225 124 217 132 q 256 117 233 117 l 289 117 l 289 0 l 207 0 q 94 31 128 0 q 60 126 60 61 l 60 539 q 94 635 60 604 q 207 665 128 665 l 367 665 l 367 761 l -28 761 l -28 876 l 619 876 z "},"थ":{"ha":732,"x_min":67,"x_max":760,"o":"m 760 876 l 760 761 l 665 761 l 665 0 l 507 0 l 507 125 q 453 108 490 108 l 226 108 q 106 142 144 108 q 67 247 67 175 l 67 519 l 219 519 q 250 527 242 519 q 258 557 258 535 l 258 732 q 250 760 258 753 q 219 768 242 768 l 211 768 q 181 761 189 768 q 174 732 174 754 l 174 675 l 78 675 l 78 757 q 111 853 78 822 q 217 883 144 883 l 275 883 q 415 757 415 883 l 415 538 q 381 438 415 471 q 268 406 347 406 l 224 406 l 224 263 q 232 231 224 239 q 263 224 240 224 l 460 224 q 497 234 486 224 q 507 271 507 244 l 507 876 l 760 876 z "},"द":{"ha":560,"x_min":-36,"x_max":588,"o":"m 492 551 l 256 551 q 225 544 233 551 q 217 513 217 536 l 217 263 q 224 231 217 239 q 254 224 232 224 l 300 224 q 331 232 322 224 q 340 264 340 240 l 340 385 l 497 385 l 497 0 l 340 0 l 340 125 q 283 108 324 108 l 218 108 q 96 141 133 108 q 58 247 58 174 l 58 539 q 92 635 58 604 q 206 665 126 665 l 335 665 l 335 761 l -36 761 l -36 876 l 588 876 l 588 761 l 492 761 l 492 551 z "},"ध":{"ha":715,"x_min":86,"x_max":747,"o":"m 747 876 l 747 761 l 653 761 l 653 0 l 496 0 l 496 126 q 440 108 479 108 l 228 108 q 86 235 86 108 l 86 406 q 144 475 86 468 l 144 481 q 86 551 86 488 l 86 757 q 228 883 86 883 l 288 883 q 428 757 428 883 l 428 675 l 332 675 l 332 732 q 324 761 332 754 q 294 768 317 768 l 282 768 q 252 761 260 768 q 244 732 244 754 l 244 575 q 252 544 244 551 q 282 536 260 536 l 378 536 l 378 421 l 282 421 q 252 413 260 421 q 244 383 244 406 l 244 263 q 252 231 244 239 q 282 224 260 224 l 449 224 q 485 234 475 224 q 496 271 496 244 l 496 761 l 494 876 l 747 876 z "},"न":{"ha":803,"x_min":-28,"x_max":831,"o":"m 831 876 l 831 761 l 736 761 l 736 0 l 578 0 l 578 551 l 474 551 l 474 247 q 436 141 474 174 q 313 108 399 108 l 206 108 q 83 141 119 108 q 46 247 46 174 l 46 539 q 80 635 46 604 q 193 665 114 665 l 578 665 l 578 761 l -28 761 l -28 876 l 831 876 m 315 263 l 315 551 l 242 551 q 211 544 219 551 q 203 514 203 536 l 203 263 q 211 231 203 239 q 243 224 219 224 l 276 224 q 307 231 299 224 q 315 263 315 239 z "},"ऩ":{"ha":803,"x_min":-28,"x_max":831,"o":"m 831 876 l 831 761 l 736 761 l 736 0 l 578 0 l 578 551 l 474 551 l 474 247 q 436 141 474 174 q 313 108 399 108 l 206 108 q 83 141 119 108 q 46 247 46 174 l 46 539 q 80 635 46 604 q 193 665 114 665 l 578 665 l 578 761 l -28 761 l -28 876 l 831 876 m 315 263 l 315 551 l 242 551 q 211 544 219 551 q 203 514 203 536 l 203 263 q 211 231 203 239 q 243 224 219 224 l 276 224 q 307 231 299 224 q 315 263 315 239 m 338 -147 l 338 -1 l 469 -1 l 469 -147 l 338 -147 z "},"प":{"ha":576,"x_min":-28,"x_max":604,"o":"m 604 876 l 604 761 l 510 761 l 510 0 l 353 0 l 353 126 q 294 108 336 108 l 208 108 q 67 247 67 108 l 67 761 l -28 761 l -28 876 l 604 876 m 353 264 l 353 761 l 225 761 l 225 263 q 233 231 225 239 q 263 224 240 224 l 311 224 q 344 232 335 224 q 353 264 353 240 z "},"फ":{"ha":836,"x_min":-28,"x_max":864,"o":"m 864 761 l 504 761 l 504 649 q 561 665 521 665 l 649 665 q 754 632 719 665 q 789 526 789 599 l 789 235 q 756 139 789 169 q 643 108 722 108 l 561 108 l 561 217 l 593 217 q 624 224 617 217 q 632 254 632 232 l 632 513 q 624 544 632 536 q 593 551 617 551 l 544 551 q 513 542 522 551 q 504 510 504 533 l 504 0 l 347 0 l 347 126 q 289 108 331 108 l 203 108 q 61 247 61 108 l 61 761 l -28 761 l -28 876 l 864 876 l 864 761 m 347 264 l 347 761 l 219 761 l 219 263 q 227 231 219 239 q 257 224 235 224 l 307 224 q 338 232 329 224 q 347 264 347 240 z "},"ब":{"ha":651,"x_min":-28,"x_max":679,"o":"m 679 876 l 679 761 l 585 761 l 585 0 l 426 0 l 426 118 q 379 108 411 108 l 199 108 q 57 247 57 108 l 57 539 q 91 635 57 604 q 204 665 125 665 l 369 665 l 369 557 l 267 557 l 351 417 l 435 283 q 426 451 426 328 l 426 761 l -28 761 l -28 876 l 679 876 m 253 224 l 393 224 l 292 379 q 215 510 228 494 l 215 263 q 223 231 215 239 q 253 224 231 224 z "},"भ":{"ha":861,"x_min":60,"x_max":889,"o":"m 889 876 l 889 761 l 794 761 l 794 0 l 636 0 l 636 465 l 501 465 l 501 247 q 464 141 501 174 q 342 108 426 108 l 219 108 q 97 141 133 108 q 60 247 60 174 l 60 454 q 94 550 60 519 q 207 581 128 581 l 343 581 l 343 728 q 335 757 343 750 q 306 764 328 764 l 267 764 q 237 757 244 764 q 229 728 229 750 l 229 668 l 71 668 l 71 746 q 105 846 71 813 q 218 879 139 879 l 354 879 q 467 846 432 879 q 501 746 501 813 l 501 581 l 636 581 l 636 876 l 889 876 m 343 263 l 343 465 l 256 465 q 225 458 233 465 q 217 429 217 450 l 217 263 q 225 231 217 239 q 257 224 233 224 l 304 224 q 335 231 326 224 q 343 263 343 239 z "},"म":{"ha":847,"x_min":-28,"x_max":875,"o":"m 875 876 l 875 761 l 781 761 l 781 0 l 622 0 l 622 485 l 488 485 l 488 271 q 450 165 488 197 q 328 132 413 132 l 206 132 q 83 165 119 132 q 46 271 46 197 l 46 474 q 80 569 46 539 q 193 600 114 600 l 329 600 l 329 761 l -28 761 l -28 876 l 875 876 m 329 285 l 329 485 l 231 485 q 200 477 208 485 q 192 449 192 469 l 192 285 q 201 255 192 263 q 232 247 210 247 l 290 247 q 321 255 313 247 q 329 285 329 263 m 622 600 l 622 761 l 488 761 l 488 600 l 622 600 z "},"य":{"ha":717,"x_min":-43,"x_max":744,"o":"m 744 876 l 744 761 l 650 761 l 650 0 l 492 0 l 492 126 q 438 108 475 108 l 211 108 q 90 142 129 108 q 51 247 51 175 l 51 531 l 190 531 q 220 538 213 531 q 228 567 228 544 l 228 715 q 218 753 228 744 q 172 761 208 761 l -43 761 l -43 876 l 744 876 m 492 271 l 492 761 l 367 761 q 381 714 381 743 l 381 549 q 348 449 381 482 q 238 415 315 415 l 210 415 l 210 263 q 217 231 210 239 q 247 224 225 224 l 444 224 q 482 234 472 224 q 492 271 492 244 z "},"र":{"ha":546,"x_min":-28,"x_max":574,"o":"m 574 876 l 574 761 l 481 761 q 490 725 490 750 l 490 506 q 449 406 490 438 q 319 375 408 375 l 217 375 l 217 146 q 225 116 217 124 q 256 108 233 108 l 297 108 q 325 116 318 108 q 332 146 332 124 l 332 289 l 489 289 l 489 126 q 456 31 489 61 q 343 0 422 0 l 207 0 q 94 31 128 0 q 60 126 60 61 l 60 635 l 217 635 l 217 489 l 289 489 q 324 499 315 489 q 333 535 333 508 l 333 717 q 325 753 333 744 q 289 761 317 761 l -28 761 l -28 876 l 574 876 z "},"ऱ":{"ha":546,"x_min":-28,"x_max":574,"o":"m 574 876 l 574 761 l 481 761 q 490 725 490 750 l 490 506 q 449 406 490 438 q 319 375 408 375 l 217 375 l 217 146 q 225 116 217 124 q 256 108 233 108 l 297 108 q 325 116 318 108 q 332 146 332 124 l 332 289 l 489 289 l 489 126 q 456 31 489 61 q 343 0 422 0 l 207 0 q 94 31 128 0 q 60 126 60 61 l 60 635 l 217 635 l 217 489 l 289 489 q 324 499 315 489 q 333 535 333 508 l 333 717 q 325 753 333 744 q 289 761 317 761 l -28 761 l -28 876 l 574 876 m 193 -242 l 193 -96 l 325 -96 l 325 -242 l 193 -242 z "},"ल":{"ha":836,"x_min":-28,"x_max":864,"o":"m 864 876 l 864 761 l 775 761 l 775 0 l 617 0 l 617 551 l 540 551 q 509 543 517 551 q 501 513 501 535 l 501 250 l 344 250 l 344 513 q 337 543 344 535 q 306 551 329 551 l 263 551 q 233 544 240 551 q 225 513 225 536 l 225 154 q 233 124 225 132 q 263 117 240 117 l 342 117 l 342 0 l 214 0 q 101 31 135 0 q 68 126 68 61 l 68 526 q 103 632 68 599 q 208 665 138 665 l 351 665 q 422 608 415 665 l 426 608 q 496 665 433 665 l 617 665 l 617 761 l -28 761 l -28 876 l 864 876 z "},"ळ":{"ha":853,"x_min":-43,"x_max":896,"o":"m 896 761 l 668 761 l 668 665 q 769 630 736 663 q 801 526 801 597 l 801 247 q 660 108 801 108 l 513 108 q 431 165 438 108 l 425 165 q 343 108 421 108 l 193 108 q 51 247 51 108 l 51 526 q 193 665 51 665 l 343 665 q 425 608 421 665 l 431 608 q 510 665 438 664 l 510 761 l -43 761 l -43 876 l 896 876 l 896 761 m 351 263 l 351 513 q 344 543 351 535 q 313 551 336 551 l 247 551 q 217 544 225 551 q 210 513 210 536 l 210 263 q 217 231 210 239 q 247 224 225 224 l 313 224 q 344 232 336 224 q 351 263 351 240 m 643 263 l 643 513 q 635 544 643 536 q 606 551 628 551 l 540 551 q 510 543 517 551 q 503 513 503 535 l 503 263 q 510 232 503 240 q 540 224 517 224 l 606 224 q 635 231 628 224 q 643 263 643 239 z "},"ऴ":{"ha":853,"x_min":-43,"x_max":896,"o":"m 896 761 l 668 761 l 668 665 q 769 630 736 663 q 801 526 801 597 l 801 247 q 660 108 801 108 l 513 108 q 431 165 438 108 l 425 165 q 343 108 421 108 l 193 108 q 51 247 51 108 l 51 526 q 193 665 51 665 l 343 665 q 425 608 421 665 l 431 608 q 510 665 438 664 l 510 761 l -43 761 l -43 876 l 896 876 l 896 761 m 351 263 l 351 513 q 344 543 351 535 q 313 551 336 551 l 247 551 q 217 544 225 551 q 210 513 210 536 l 210 263 q 217 231 210 239 q 247 224 225 224 l 313 224 q 344 232 336 224 q 351 263 351 240 m 643 263 l 643 513 q 635 544 643 536 q 606 551 628 551 l 540 551 q 510 543 517 551 q 503 513 503 535 l 503 263 q 510 232 503 240 q 540 224 517 224 l 606 224 q 635 231 628 224 q 643 263 643 239 m 104 -132 l 104 14 l 236 14 l 236 -132 l 104 -132 z "},"व":{"ha":572,"x_min":-28,"x_max":600,"o":"m 600 876 l 600 761 l 504 761 l 504 0 l 347 0 l 347 126 q 289 108 331 108 l 203 108 q 61 247 61 108 l 61 539 q 95 635 61 604 q 208 665 129 665 l 290 665 l 290 551 l 257 551 q 227 544 235 551 q 219 514 219 536 l 219 263 q 227 231 219 239 q 257 224 235 224 l 307 224 q 338 232 329 224 q 347 264 347 240 l 347 761 l -28 761 l -28 876 l 600 876 z "},"श":{"ha":838,"x_min":72,"x_max":865,"o":"m 614 876 l 865 876 l 865 761 l 769 761 l 769 0 l 614 0 l 614 876 m 221 881 l 356 881 q 469 847 435 881 q 503 747 503 814 l 503 482 q 462 383 503 414 q 332 351 421 351 l 229 351 l 229 146 q 237 116 229 124 q 268 108 244 108 l 310 108 q 337 116 329 108 q 344 146 344 124 l 344 265 l 501 265 l 501 126 q 467 31 501 61 q 354 0 433 0 l 218 0 q 106 31 139 0 q 72 126 72 61 l 72 539 l 229 539 l 229 465 l 301 465 q 337 475 328 465 q 346 511 346 485 l 346 729 q 338 758 346 751 q 307 765 331 765 l 265 765 q 238 758 244 765 q 231 729 231 750 l 231 633 l 74 633 l 74 747 q 108 847 74 814 q 221 881 142 881 z "},"ष":{"ha":638,"x_min":-28,"x_max":665,"o":"m 665 876 l 665 761 l 571 761 l 571 0 l 413 0 l 413 125 q 356 108 396 108 l 208 108 q 67 247 67 108 l 67 761 l -28 761 l -28 876 l 665 876 m 263 224 l 372 224 q 410 243 404 224 q 213 646 238 578 q 225 478 225 576 l 225 263 q 233 231 225 239 q 263 224 240 224 m 413 546 l 413 761 l 231 761 q 394 439 379 475 q 425 363 410 403 q 413 546 413 438 z "},"स":{"ha":828,"x_min":-28,"x_max":856,"o":"m 856 876 l 856 761 l 760 761 l 760 0 l 603 0 l 603 375 l 217 375 l 217 146 q 225 116 217 124 q 256 108 233 108 l 297 108 q 325 116 318 108 q 332 146 332 124 l 332 289 l 489 289 l 489 126 q 456 31 489 61 q 343 0 422 0 l 207 0 q 94 31 128 0 q 60 126 60 61 l 60 635 l 217 635 l 217 489 l 289 489 q 324 499 315 489 q 333 535 333 508 l 333 717 q 325 753 333 744 q 289 761 317 761 l -28 761 l -28 876 l 856 876 m 603 489 l 603 761 l 481 761 q 490 725 490 750 l 490 551 q 471 489 490 511 l 603 489 z "},"ह":{"ha":581,"x_min":-28,"x_max":617,"o":"m 514 551 l 263 551 q 233 544 240 551 q 225 515 225 536 l 225 474 q 233 445 225 453 q 263 438 240 438 l 361 438 q 484 405 447 438 q 521 299 521 372 l 521 233 l 364 233 l 364 285 q 356 316 364 308 q 324 324 347 324 l 263 324 q 233 316 240 324 q 225 285 225 308 l 225 154 q 233 123 225 131 q 263 115 240 115 l 521 115 l 521 0 l 226 0 q 106 33 144 0 q 67 139 67 67 l 67 307 q 125 378 67 371 l 125 382 q 67 453 67 389 l 67 539 q 101 635 67 604 q 214 665 135 665 l 356 665 l 356 761 l -28 761 l -28 876 l 617 876 l 617 761 l 514 761 l 514 551 z "},"़":{"ha":0,"x_min":-210,"x_max":-78,"o":"m -210 -72 l -78 -72 l -78 -218 l -210 -218 l -210 -72 z "},"ऽ":{"ha":549,"x_min":57,"x_max":492,"o":"m 458 767 l 265 767 q 235 760 243 767 q 228 731 228 753 l 228 567 q 235 538 228 544 q 265 531 243 531 l 344 531 q 458 500 424 531 q 492 403 492 469 l 492 126 q 458 31 492 61 q 344 0 424 0 l 204 0 q 91 31 125 0 q 57 126 57 61 l 57 225 l 215 225 l 215 146 q 222 116 215 124 q 249 108 229 108 l 296 108 q 326 116 318 108 q 335 146 335 124 l 335 385 q 326 413 335 406 q 296 421 318 421 l 217 421 q 104 451 138 421 q 71 549 71 482 l 71 749 q 104 846 71 815 q 217 876 138 876 l 458 876 l 458 767 z "},"ा":{"ha":293,"x_min":-26,"x_max":319,"o":"m 319 876 l 319 761 l 225 761 l 225 0 l 68 0 l 68 761 l -26 761 l -26 876 l 319 876 z "},"ि":{"ha":292,"x_min":-28,"x_max":783,"o":"m 203 1157 l 647 1157 q 783 1026 783 1157 l 783 932 l 625 932 l 625 996 q 617 1033 625 1025 q 579 1042 610 1042 l 271 1042 q 233 1033 242 1042 q 225 996 225 1025 l 225 876 l 319 876 l 319 761 l 225 761 l 225 0 l 67 0 l 67 761 l -28 761 l -28 876 l 67 876 l 67 1026 q 203 1157 67 1157 z "},"ी":{"ha":292,"x_min":-243,"x_max":319,"o":"m 319 876 l 319 761 l 225 761 l 225 0 l 67 0 l 67 761 l -28 761 l -28 876 l 67 876 l 67 996 q 58 1033 67 1025 q 21 1042 50 1042 l -39 1042 q -78 1033 -69 1042 q -86 996 -86 1025 l -86 932 l -243 932 l -243 1026 q -107 1157 -243 1157 l 89 1157 q 225 1026 225 1157 l 225 876 l 319 876 z "},"ु":{"ha":0,"x_min":-519,"x_max":57,"o":"m -85 6 q 57 -133 57 6 l 57 -206 q 22 -311 57 -278 q -85 -344 -12 -344 l -247 -344 q -384 -319 -337 -344 q -472 -222 -431 -293 l -519 -140 l -333 -140 l -301 -193 q -231 -231 -279 -231 l -143 -231 q -108 -222 -117 -231 q -100 -187 -100 -214 l -100 -154 q -108 -119 -100 -128 q -143 -111 -117 -111 l -225 -111 l -225 6 l -85 6 z "},"ू":{"ha":0,"x_min":-357,"x_max":274,"o":"m -85 6 q 46 -20 1 6 q 132 -115 90 -46 l 274 -343 l 88 -343 l -33 -151 q -100 -110 -58 -110 l -157 -110 q -192 -117 -183 -110 q -200 -153 -200 -125 l -200 -186 q -192 -222 -200 -214 q -157 -229 -183 -229 l -85 -229 l -85 -346 l -215 -346 q -322 -312 -287 -346 q -357 -206 -357 -279 l -357 -135 q -322 -28 -357 -61 q -215 6 -287 6 l -85 6 z "},"ृ":{"ha":0,"x_min":-347,"x_max":-17,"o":"m -67 6 l -67 -110 l -146 -110 q -181 -117 -172 -110 q -189 -153 -189 -125 l -189 -186 q -181 -222 -189 -214 q -146 -229 -172 -229 l -17 -229 l -17 -346 l -206 -346 q -347 -206 -347 -346 l -347 -135 q -206 6 -347 6 l -67 6 z "},"ॄ":{"ha":0,"x_min":-336,"x_max":-4,"o":"m -336 -115 q -200 6 -336 6 l -67 6 l -67 -110 l -140 -110 q -170 -117 -162 -110 q -178 -149 -178 -125 l -178 -192 q -170 -223 -178 -215 q -140 -231 -162 -231 l -75 -231 l -75 -346 l -140 -346 q -170 -353 -162 -346 q -178 -383 -178 -361 l -178 -426 q -170 -458 -178 -450 q -140 -465 -162 -465 l -4 -465 l -4 -581 l -176 -581 q -297 -547 -258 -581 q -336 -442 -336 -514 l -336 -361 q -278 -292 -336 -299 l -278 -286 q -336 -215 -336 -279 l -336 -115 z "},"ॅ":{"ha":0,"x_min":-400,"x_max":107,"o":"m -400 1157 l -265 1157 l -265 1082 q -256 1050 -265 1058 q -224 1042 -247 1042 l -71 1042 q -37 1050 -46 1042 q -29 1082 -29 1058 l -29 1157 l 107 1157 l 107 1065 q 70 973 107 1003 q -49 943 33 943 l -246 943 q -364 973 -328 943 q -400 1065 -400 1003 l -400 1157 z "},"ॆ":{"ha":0,"x_min":-514,"x_max":-67,"o":"m -514 1153 l -356 1153 l -356 1121 q -347 1083 -356 1092 q -310 1075 -339 1075 l -185 1075 q -67 957 -67 1075 l -67 825 l -225 825 l -225 914 q -233 951 -225 943 q -271 960 -242 960 l -396 960 q -514 1078 -514 960 l -514 1153 z "},"े":{"ha":0,"x_min":-460,"x_max":-72,"o":"m -271 1147 l -72 864 l -226 864 q -372 1026 -289 917 l -460 1147 l -271 1147 z "},"ै":{"ha":0,"x_min":-558,"x_max":-74,"o":"m -558 1147 l -365 1147 q -160 885 -218 976 l -154 885 q -203 986 -178 928 l -269 1147 l -118 1147 l -74 867 l -226 867 q -378 985 -285 901 l -558 1147 z "},"ॉ":{"ha":293,"x_min":-107,"x_max":400,"o":"m 264 1157 l 400 1157 l 400 1065 q 363 973 400 1003 q 244 943 326 943 l 47 943 q -71 973 -35 943 q -107 1065 -107 1003 l -107 1157 l 28 1157 l 28 1082 q 37 1050 28 1058 q 69 1042 46 1042 l 222 1042 q 256 1050 247 1042 q 264 1082 264 1058 l 264 1157 m -26 761 l -26 876 l 319 876 l 319 761 l 225 761 l 225 0 l 68 0 l 68 761 l -26 761 z "},"ॊ":{"ha":293,"x_min":-222,"x_max":319,"o":"m 319 876 l 319 761 l 225 761 l 225 0 l 68 0 l 68 761 l -26 761 l -26 876 l 67 876 l 67 914 q 58 951 67 943 q 21 960 50 960 l -104 960 q -222 1078 -222 960 l -222 1153 l -64 1153 l -64 1121 q -56 1083 -64 1092 q -18 1075 -47 1075 l 107 1075 q 225 957 225 1075 l 225 876 l 319 876 z "},"ो":{"ha":293,"x_min":-162,"x_max":319,"o":"m 319 876 l 319 761 l 225 761 l 225 0 l 68 0 l 68 761 l -26 761 l -26 876 l 57 876 q -75 1026 -1 929 l -162 1147 l 26 1147 l 217 876 l 319 876 z "},"ौ":{"ha":293,"x_min":-261,"x_max":319,"o":"m 319 876 l 319 761 l 225 761 l 225 0 l 68 0 l 68 761 l -26 761 l -26 876 l 56 876 q -81 985 0 913 l -261 1147 l -68 1147 q 138 885 79 976 l 143 885 q 94 986 119 928 l 28 1147 l 179 1147 l 222 876 l 319 876 z "},"्":{"ha":0,"x_min":-243,"x_max":75,"o":"m -83 -85 l 75 -278 l -86 -278 l -243 -85 l -83 -85 z "},"ॐ":{"ha":1053,"x_min":54,"x_max":985,"o":"m 838 497 q 951 464 917 497 q 985 364 985 431 l 985 133 q 951 33 985 67 q 838 0 917 0 l 714 0 q 602 33 636 0 q 568 133 568 67 l 568 269 l 725 269 l 725 151 q 733 122 725 129 q 763 115 740 115 l 789 115 q 819 123 811 115 q 828 151 828 131 l 828 344 q 819 374 828 367 q 789 382 811 382 l 469 382 q 488 325 488 365 l 488 133 q 453 33 488 67 q 340 0 418 0 l 201 0 q 88 33 122 0 q 54 133 54 67 l 54 281 l 211 281 l 211 151 q 219 123 211 131 q 250 115 228 115 l 292 115 q 322 122 314 115 q 329 151 329 129 l 329 340 q 320 373 329 364 q 289 382 311 382 l 215 382 l 215 496 l 289 496 q 320 505 311 496 q 329 538 329 514 l 329 725 q 322 754 329 747 q 292 761 314 761 l 250 761 q 219 753 228 761 q 211 725 211 746 l 211 603 l 54 603 l 54 743 q 88 843 54 810 q 201 876 122 876 l 340 876 q 453 843 418 876 q 488 743 488 810 l 488 708 l 694 708 q 726 716 718 708 q 735 747 735 724 l 735 824 l 889 824 l 889 726 q 855 626 889 660 q 742 593 821 593 l 488 593 l 488 554 q 469 497 488 514 l 838 497 m 664 919 l 664 788 l 536 788 l 536 919 l 664 919 z "},"क़":{"ha":822,"x_min":-28,"x_max":850,"o":"m 850 761 l 490 761 l 490 650 q 547 665 506 665 l 633 665 q 740 632 706 665 q 775 526 775 599 l 775 235 q 741 139 775 169 q 628 108 707 108 l 546 108 l 546 217 l 579 217 q 609 224 601 217 q 617 254 617 232 l 617 513 q 609 544 617 536 q 579 551 601 551 l 531 551 q 499 542 508 551 q 490 510 490 533 l 490 0 l 332 0 l 332 125 q 275 108 315 108 l 189 108 q 47 247 47 108 l 47 539 q 81 635 47 604 q 194 665 115 665 l 276 665 l 276 557 l 243 557 q 213 549 221 557 q 204 521 204 542 l 204 263 q 213 231 204 239 q 243 224 221 224 l 292 224 q 323 232 314 224 q 332 264 332 240 l 332 761 l -28 761 l -28 876 l 850 876 l 850 761 m 93 -124 l 93 22 l 225 22 l 225 -124 l 93 -124 z "},"ख़":{"ha":1024,"x_min":-28,"x_max":1051,"o":"m 1051 876 l 1051 761 l 956 761 l 956 0 l 801 0 l 801 161 q 740 140 785 140 l 663 140 q 521 279 521 140 l 521 528 q 555 624 521 593 q 668 654 589 654 l 753 654 l 753 546 l 714 546 q 683 538 692 546 q 675 510 675 531 l 675 294 q 683 263 675 271 q 714 256 692 256 l 756 256 q 791 265 781 256 q 801 300 801 275 l 801 761 l 451 761 q 461 725 461 746 l 461 464 q 426 363 461 394 q 311 332 390 332 l 219 332 l 219 163 q 228 126 219 136 q 264 117 238 117 l 582 117 l 582 0 l 233 0 q 103 32 144 0 q 61 132 61 64 l 61 654 l 219 654 l 219 447 l 258 447 q 294 456 285 447 q 303 492 303 465 l 303 717 q 294 753 303 744 q 258 761 286 761 l -28 761 l -28 876 l 1051 876 m 196 -224 l 196 -78 l 328 -78 l 328 -224 l 196 -224 z "},"ग़":{"ha":842,"x_min":-28,"x_max":869,"o":"m 869 876 l 869 761 l 775 761 l 775 0 l 617 0 l 617 761 l 488 761 l 488 247 q 450 141 488 174 q 328 108 413 108 l 204 108 q 82 141 119 108 q 44 247 44 174 l 44 488 q 85 588 44 557 q 215 619 126 619 l 329 619 l 329 761 l -28 761 l -28 876 l 869 876 m 242 224 l 290 224 q 321 231 313 224 q 329 263 329 239 l 329 504 l 244 504 q 209 497 217 504 q 201 461 201 489 l 201 263 q 210 231 201 239 q 242 224 219 224 m 196 -140 l 196 6 l 328 6 l 328 -140 l 196 -140 z "},"ज़":{"ha":826,"x_min":-28,"x_max":854,"o":"m 854 876 l 854 761 l 758 761 l 758 0 l 601 0 l 601 551 l 490 551 l 490 247 q 453 141 490 174 q 331 108 417 108 l 219 108 q 97 141 133 108 q 60 247 60 174 l 60 665 l 217 665 l 217 263 q 225 231 217 239 q 257 224 233 224 l 294 224 q 325 231 317 224 q 333 263 333 239 l 333 665 l 601 665 l 601 761 l -28 761 l -28 876 l 854 876 m 210 -139 l 210 7 l 342 7 l 342 -139 l 210 -139 z "},"ड़":{"ha":560,"x_min":-28,"x_max":588,"o":"m 467 557 l 263 557 q 233 550 240 557 q 225 521 225 543 l 225 451 q 233 422 225 429 q 263 415 240 415 l 342 415 q 455 385 421 415 q 489 289 489 354 l 489 126 q 455 31 489 61 q 342 0 421 0 l 201 0 q 88 31 122 0 q 54 126 54 61 l 54 225 l 213 225 l 213 146 q 219 116 213 124 q 246 108 226 108 l 293 108 q 324 116 315 108 q 332 146 332 124 l 332 271 q 324 299 332 292 q 293 307 315 307 l 214 307 q 101 338 135 307 q 68 433 68 368 l 68 539 q 101 635 68 604 q 214 665 135 665 l 310 665 l 310 761 l -28 761 l -28 876 l 588 876 l 588 761 l 467 761 l 467 557 m 204 -228 l 204 -82 l 336 -82 l 336 -228 l 204 -228 z "},"ढ़":{"ha":610,"x_min":-28,"x_max":638,"o":"m 493 551 l 264 551 q 233 544 242 551 q 225 513 225 536 l 225 154 q 233 123 225 131 q 264 115 242 115 l 351 115 q 382 123 374 115 q 390 154 390 131 l 390 253 q 382 283 390 275 q 351 290 374 290 l 292 290 l 292 406 l 389 406 q 511 373 474 406 q 549 267 549 340 l 549 139 q 511 33 549 65 q 389 0 474 0 l 226 0 q 104 33 142 0 q 67 139 67 65 l 67 539 q 101 635 67 604 q 214 665 135 665 l 336 665 l 336 761 l -28 761 l -28 876 l 638 876 l 638 761 l 493 761 l 493 551 m 243 -221 l 243 -75 l 375 -75 l 375 -221 l 243 -221 z "},"फ़":{"ha":836,"x_min":-28,"x_max":864,"o":"m 864 761 l 504 761 l 504 649 q 561 665 521 665 l 649 665 q 754 632 719 665 q 789 526 789 599 l 789 235 q 756 139 789 169 q 643 108 722 108 l 561 108 l 561 217 l 593 217 q 624 224 617 217 q 632 254 632 232 l 632 513 q 624 544 632 536 q 593 551 617 551 l 544 551 q 513 542 522 551 q 504 510 504 533 l 504 0 l 347 0 l 347 126 q 289 108 331 108 l 203 108 q 61 247 61 108 l 61 761 l -28 761 l -28 876 l 864 876 l 864 761 m 347 264 l 347 761 l 219 761 l 219 263 q 227 231 219 239 q 257 224 235 224 l 307 224 q 338 232 329 224 q 347 264 347 240 m 129 -146 l 129 0 l 261 0 l 261 -146 l 129 -146 z "},"य़":{"ha":717,"x_min":-43,"x_max":744,"o":"m 744 876 l 744 761 l 650 761 l 650 0 l 492 0 l 492 126 q 438 108 475 108 l 211 108 q 90 142 129 108 q 51 247 51 175 l 51 531 l 190 531 q 220 538 213 531 q 228 567 228 544 l 228 715 q 218 753 228 744 q 172 761 208 761 l -43 761 l -43 876 l 744 876 m 492 271 l 492 761 l 367 761 q 381 714 381 743 l 381 549 q 348 449 381 482 q 238 415 315 415 l 210 415 l 210 263 q 217 231 210 239 q 247 224 225 224 l 444 224 q 482 234 472 224 q 492 271 492 244 m 246 -142 l 246 4 l 378 4 l 378 -142 l 246 -142 z "},"ॠ":{"ha":1114,"x_min":-28,"x_max":1151,"o":"m 576 761 l 576 376 l 692 376 q 672 439 672 399 l 672 528 q 708 633 672 600 q 832 665 744 665 l 915 665 q 1038 633 1001 665 q 1075 528 1075 600 l 1075 407 q 1038 301 1075 335 q 915 268 1001 268 l 864 268 q 837 260 844 268 q 829 229 829 253 l 829 188 q 837 156 829 164 q 867 149 844 149 l 929 149 l 929 33 l 867 33 q 837 26 844 33 q 829 -6 829 18 l 829 -49 q 837 -80 829 -72 q 867 -87 844 -87 l 999 -87 l 999 -201 l 832 -201 q 711 -169 750 -201 q 672 -62 672 -136 l 672 17 q 729 88 672 81 l 729 92 q 672 163 672 99 l 672 229 q 685 268 672 253 l 576 268 l 576 0 l 419 0 l 419 268 l 388 268 l 214 0 l 35 0 l 250 331 l 171 474 q 127 531 149 515 q 67 546 106 546 l 28 546 l 28 663 l 121 663 q 228 642 192 663 q 294 569 264 622 l 406 376 l 419 376 l 419 761 l -28 761 l -28 876 l 1151 876 l 1151 761 l 576 761 m 829 521 l 829 414 q 837 385 829 393 q 865 376 844 376 l 882 376 q 910 385 903 376 q 918 414 918 393 l 918 521 q 910 550 918 542 q 882 558 903 558 l 865 558 q 837 550 844 558 q 829 521 829 542 z "},"ॡ":{"ha":832,"x_min":-28,"x_max":860,"o":"m 769 197 l 697 197 q 667 190 675 197 q 660 158 660 182 l 660 117 q 667 85 660 93 q 697 78 675 78 l 763 78 l 763 -37 l 697 -37 q 667 -45 675 -37 q 660 -76 660 -53 l 660 -119 q 667 -151 660 -143 q 697 -158 675 -158 l 833 -158 l 833 -272 l 661 -272 q 540 -240 579 -272 q 501 -133 501 -207 l 501 -54 q 558 17 501 10 l 558 21 q 501 92 501 28 l 501 192 q 613 311 501 300 l 613 551 l 532 551 q 501 543 508 551 q 493 513 493 535 l 493 328 l 336 328 l 336 513 q 328 543 336 535 q 297 551 321 551 l 256 551 q 225 544 233 551 q 217 513 217 536 l 217 154 q 225 124 217 132 q 256 117 233 117 l 310 117 l 310 0 l 207 0 q 94 31 128 0 q 60 126 60 61 l 60 526 q 94 632 60 599 q 201 665 129 665 l 343 665 q 414 608 407 665 l 418 608 q 489 665 425 665 l 613 665 l 613 761 l -28 761 l -28 876 l 860 876 l 860 761 l 769 761 l 769 197 z "},"।":{"ha":503,"x_min":175,"x_max":328,"o":"m 328 919 l 328 -43 l 175 -43 l 175 919 l 328 919 z "},"॥":{"ha":778,"x_min":175,"x_max":603,"o":"m 603 919 l 603 -43 l 450 -43 l 450 919 l 603 919 m 328 919 l 328 -43 l 175 -43 l 175 919 l 328 919 z "},"०":{"ha":588,"x_min":61,"x_max":525,"o":"m 365 160 l 365 717 q 357 747 365 739 q 325 754 349 754 l 261 754 q 231 747 239 754 q 222 717 222 739 l 222 160 q 231 130 222 138 q 261 122 239 122 l 325 122 q 357 130 349 122 q 365 160 365 138 m 525 739 l 525 138 q 374 0 525 0 l 213 0 q 61 138 61 0 l 61 739 q 213 876 61 876 l 374 876 q 525 739 525 876 z "},"१":{"ha":361,"x_min":26,"x_max":294,"o":"m 294 876 l 294 0 l 135 0 l 135 754 l 26 754 l 26 876 l 294 876 z "},"२":{"ha":513,"x_min":33,"x_max":475,"o":"m 193 717 l 193 586 l 33 586 l 33 739 q 185 876 33 876 l 318 876 q 471 739 471 876 l 471 640 q 408 440 471 538 l 226 122 l 475 122 l 475 0 l 38 0 l 38 115 l 264 482 q 313 643 313 556 l 313 717 q 304 747 313 739 q 274 754 296 754 l 233 754 q 201 747 210 754 q 193 717 193 739 z "},"३":{"ha":542,"x_min":39,"x_max":482,"o":"m 199 717 l 199 599 l 39 599 l 39 739 q 190 876 39 876 l 331 876 q 482 739 482 876 l 482 551 q 424 446 482 465 q 482 346 482 426 l 482 138 q 331 0 482 0 l 190 0 q 39 138 39 0 l 39 276 l 199 276 l 199 160 q 207 130 199 138 q 238 122 215 122 l 285 122 q 315 130 307 122 q 324 160 324 138 l 324 347 q 316 378 324 369 q 285 386 308 386 l 178 386 l 178 503 l 285 503 q 315 510 307 503 q 324 540 324 518 l 324 717 q 315 747 324 739 q 285 754 307 754 l 238 754 q 207 747 215 754 q 199 717 199 739 z "},"४":{"ha":563,"x_min":10,"x_max":563,"o":"m 563 293 l 563 169 l 479 169 l 479 0 l 328 0 l 328 169 l 10 169 l 10 306 l 285 876 l 444 876 l 156 293 l 328 293 l 328 463 l 479 463 l 479 293 l 563 293 z "},"५":{"ha":554,"x_min":56,"x_max":507,"o":"m 219 557 l 356 557 q 507 419 507 557 l 507 138 q 356 0 507 0 l 207 0 q 56 138 56 0 l 56 288 l 217 288 l 217 160 q 225 130 217 138 q 256 122 233 122 l 308 122 q 340 130 332 122 q 349 160 349 138 l 349 397 q 340 427 349 419 q 308 435 332 435 l 61 435 l 61 876 l 501 876 l 501 754 l 219 754 l 219 557 z "},"६":{"ha":575,"x_min":61,"x_max":522,"o":"m 219 510 l 371 510 q 522 372 522 510 l 522 138 q 371 0 522 0 l 213 0 q 61 138 61 0 l 61 739 q 213 876 61 876 l 364 876 q 515 739 515 876 l 515 604 l 358 604 l 358 717 q 350 747 358 739 q 319 754 342 754 l 258 754 q 228 747 236 754 q 219 717 219 739 l 219 510 m 365 160 l 365 353 q 357 383 365 375 q 325 390 349 390 l 219 390 l 219 160 q 228 130 219 138 q 258 122 236 122 l 325 122 q 357 130 349 122 q 365 160 365 138 z "},"७":{"ha":457,"x_min":10,"x_max":450,"o":"m 450 876 l 450 782 l 206 0 l 42 0 l 279 747 l 10 747 l 10 876 l 450 876 z "},"८":{"ha":585,"x_min":60,"x_max":524,"o":"m 524 739 l 524 549 q 465 443 524 463 q 524 343 524 424 l 524 138 q 372 0 524 0 l 211 0 q 60 138 60 0 l 60 343 q 118 443 60 424 q 60 549 60 463 l 60 739 q 211 876 60 876 l 372 876 q 524 739 524 876 m 369 158 l 369 350 q 361 380 369 372 q 329 388 353 388 l 254 388 q 224 380 232 388 q 215 350 215 372 l 215 158 q 224 128 215 136 q 254 121 232 121 l 329 121 q 361 128 353 121 q 369 158 369 136 m 369 535 l 369 718 q 361 748 369 740 q 329 756 353 756 l 254 756 q 224 748 232 756 q 215 718 215 740 l 215 535 q 224 505 215 513 q 254 497 232 497 l 329 497 q 361 505 353 497 q 369 535 369 513 z "},"९":{"ha":572,"x_min":50,"x_max":510,"o":"m 201 876 l 358 876 q 510 739 510 876 l 510 138 q 358 0 510 0 l 207 0 q 56 138 56 0 l 56 269 l 213 269 l 213 160 q 221 130 213 138 q 251 122 229 122 l 314 122 q 344 130 336 122 q 353 160 353 138 l 353 353 l 201 353 q 50 490 50 353 l 50 739 q 201 876 50 876 m 246 468 l 353 468 l 353 717 q 344 747 353 739 q 314 754 336 754 l 246 754 q 215 747 224 754 q 207 717 207 739 l 207 506 q 215 476 207 483 q 246 468 224 468 z "},"॰":{"ha":517,"x_min":78,"x_max":440,"o":"m 258 519 q 228 519 258 519 q 197 432 197 519 q 258 344 197 344 q 319 432 319 344 q 258 519 319 519 m 126 292 q 102 316 126 292 q 78 432 78 340 q 126 572 78 524 q 258 621 175 621 q 391 572 342 621 q 440 432 440 522 q 391 292 440 342 q 258 243 342 243 q 126 292 175 243 z "},"ॲ":{"ha":776,"x_min":54,"x_max":957,"o":"m 821 1157 l 957 1157 l 957 1065 q 920 973 957 1003 q 801 943 883 943 l 604 943 q 486 973 522 943 q 450 1065 450 1003 l 450 1157 l 585 1157 l 585 1082 q 594 1050 585 1058 q 626 1042 603 1042 l 779 1042 q 813 1050 804 1042 q 821 1082 821 1058 l 821 1157 m 863 876 l 863 761 l 768 761 l 768 0 l 611 0 l 611 381 l 488 381 l 488 242 q 453 142 488 175 q 340 108 419 108 l 201 108 q 88 142 122 108 q 54 242 54 175 l 54 367 l 213 367 l 213 260 q 220 231 213 238 q 250 224 228 224 l 292 224 q 322 231 314 224 q 331 260 331 239 l 331 393 q 322 426 331 417 q 289 435 313 435 l 217 435 l 217 549 l 289 549 q 322 558 313 549 q 331 590 331 567 l 331 728 q 322 756 331 749 q 292 764 314 764 l 250 764 q 220 757 228 764 q 213 728 213 750 l 213 628 l 54 628 l 54 746 q 88 846 54 813 q 201 879 122 879 l 340 879 q 453 846 419 879 q 488 746 488 813 l 488 565 q 431 494 488 501 l 611 494 l 611 876 l 863 876 z "},"​":{"ha":0,"x_min":0,"x_max":0,"o":""},"‌":{"ha":0,"x_min":-32,"x_max":33,"o":"m 33 -319 l -32 -319 l -32 1126 l 33 1126 l 33 -319 z "},"‍":{"ha":0,"x_min":-176,"x_max":179,"o":"m 33 -319 l -32 -319 l -32 882 l -128 781 l -174 826 l -44 956 l -176 1088 l -131 1133 l 1 1001 l 135 1133 l 179 1089 l 46 956 l 179 824 l 133 778 l 33 882 l 33 -319 z "},"–":{"ha":658,"x_min":43,"x_max":550,"o":"m 43 354 l 43 469 l 550 469 l 550 354 l 43 354 z "},"—":{"ha":831,"x_min":28,"x_max":797,"o":"m 28 354 l 28 469 l 797 469 l 797 354 l 28 354 z "},"‘":{"ha":265,"x_min":47,"x_max":218,"o":"m 218 492 l 47 492 l 47 592 l 168 876 l 218 876 l 218 492 z "},"’":{"ha":265,"x_min":47,"x_max":218,"o":"m 47 876 l 218 876 l 218 776 l 97 492 l 47 492 l 47 876 z "},"‚":{"ha":264,"x_min":47,"x_max":217,"o":"m 47 188 l 217 188 l 217 88 l 100 -197 l 47 -197 l 47 188 z "},"“":{"ha":497,"x_min":47,"x_max":449,"o":"m 217 492 l 47 492 l 47 592 l 168 876 l 217 876 l 217 492 m 449 492 l 281 492 l 281 592 l 400 876 l 449 876 l 449 492 z "},"”":{"ha":497,"x_min":47,"x_max":449,"o":"m 281 876 l 449 876 l 449 776 l 329 492 l 281 492 l 281 876 m 47 876 l 217 876 l 217 776 l 96 492 l 47 492 l 47 876 z "},"„":{"ha":497,"x_min":47,"x_max":449,"o":"m 281 188 l 449 188 l 449 88 l 329 -197 l 281 -197 l 281 188 m 47 188 l 217 188 l 217 88 l 96 -197 l 47 -197 l 47 188 z "},"†":{"ha":540,"x_min":10,"x_max":531,"o":"m 531 656 l 531 539 l 350 539 l 350 -153 l 190 -153 l 190 539 l 10 539 l 10 656 l 190 656 l 190 876 l 350 876 l 350 656 l 531 656 z "},"‡":{"ha":574,"x_min":26,"x_max":547,"o":"m 547 539 l 367 539 l 367 131 l 547 131 l 547 15 l 367 15 l 367 -206 l 207 -206 l 207 15 l 26 15 l 26 131 l 207 131 l 207 539 l 26 539 l 26 656 l 207 656 l 207 876 l 367 876 l 367 656 l 547 656 l 547 539 z "},"•":{"ha":550,"x_min":86,"x_max":464,"o":"m 142 313 q 114 340 142 313 q 86 446 86 368 q 142 579 86 524 q 275 635 197 635 q 408 579 353 635 q 464 446 464 524 q 408 313 464 368 q 275 257 353 257 q 142 313 197 257 z "},"…":{"ha":850,"x_min":67,"x_max":829,"o":"m 653 0 l 653 183 l 829 183 l 829 0 l 653 0 m 360 0 l 360 183 l 536 183 l 536 0 l 360 0 m 67 0 l 67 183 l 244 183 l 244 0 l 67 0 z "},"‰":{"ha":1414,"x_min":39,"x_max":1375,"o":"m 1246 136 l 1246 351 q 1239 379 1246 372 q 1211 386 1232 386 l 1183 386 q 1156 379 1163 386 q 1150 351 1150 372 l 1150 136 q 1156 108 1150 115 q 1183 101 1163 101 l 1211 101 q 1239 108 1232 101 q 1246 136 1246 115 m 1375 371 l 1375 117 q 1251 0 1375 0 l 1144 0 q 1021 117 1021 0 l 1021 371 q 1050 458 1021 429 q 1144 488 1079 488 l 1251 488 q 1375 371 1375 488 m 651 876 l 776 876 l 343 0 l 219 0 l 651 876 m 826 136 l 826 351 q 819 379 826 372 q 792 386 813 386 l 764 386 q 737 379 743 386 q 731 351 731 372 l 731 136 q 737 108 731 115 q 764 101 743 101 l 792 101 q 819 108 813 101 q 826 136 826 115 m 264 524 l 264 740 q 258 768 264 761 q 231 775 251 775 l 203 775 q 175 767 182 775 q 168 740 168 760 l 168 524 q 175 497 168 504 q 203 490 182 490 l 231 490 q 258 497 251 490 q 264 524 264 504 m 956 371 l 956 117 q 832 0 956 0 l 725 0 q 601 117 601 0 l 601 371 q 631 458 601 429 q 725 488 660 488 l 832 488 q 956 371 956 488 m 393 760 l 393 504 q 269 389 393 389 l 163 389 q 39 504 39 389 l 39 760 q 163 876 39 876 l 269 876 q 393 760 393 876 z "},"‹":{"ha":406,"x_min":43,"x_max":367,"o":"m 204 142 l 43 356 l 204 569 l 367 569 l 206 356 l 367 142 l 204 142 z "},"›":{"ha":407,"x_min":43,"x_max":367,"o":"m 367 356 l 206 142 l 43 142 l 204 356 l 43 569 l 206 569 l 367 356 z "},"⁄":{"ha":550,"x_min":-6,"x_max":528,"o":"m 388 972 l 528 972 l 135 -143 l -6 -143 l 388 972 z "},"€":{"ha":601,"x_min":29,"x_max":556,"o":"m 556 586 l 394 586 l 394 722 q 386 752 394 744 q 356 760 378 760 l 292 760 q 260 752 268 760 q 251 722 251 744 l 251 574 l 361 574 l 361 471 l 251 471 l 251 407 l 361 407 l 361 301 l 251 301 l 251 153 q 260 123 251 131 q 292 115 268 115 l 356 115 q 386 123 378 115 q 394 153 394 131 l 394 286 l 556 286 l 556 136 q 404 -1 556 -1 l 242 -1 q 92 136 92 -1 l 92 301 l 29 301 l 29 407 l 92 407 l 92 471 l 29 471 l 29 574 l 92 574 l 92 739 q 242 876 92 876 l 404 876 q 556 739 556 876 l 556 586 z "},"₹":{"ha":546,"x_min":56,"x_max":482,"o":"m 482 876 l 482 769 l 383 769 q 396 706 396 751 l 396 663 l 482 663 l 482 556 l 396 556 l 396 472 q 358 365 396 397 q 232 333 319 332 l 221 333 l 425 0 l 257 0 l 56 333 l 56 449 l 200 449 q 231 456 224 449 q 239 488 239 464 l 239 556 l 56 556 l 56 663 l 239 663 l 239 732 q 231 762 239 754 q 200 769 222 769 l 56 769 l 56 876 l 482 876 z "},"™":{"ha":913,"x_min":10,"x_max":871,"o":"m 871 876 l 871 422 l 757 422 l 757 693 l 693 494 l 592 494 l 526 693 l 526 422 l 413 422 l 413 876 l 554 876 l 642 619 l 728 876 l 871 876 m 10 772 l 10 876 l 367 876 l 367 772 l 251 772 l 251 422 l 125 422 l 125 772 l 10 772 z "},"Ω":{"ha":613,"x_min":17,"x_max":596,"o":"m 596 122 l 596 0 l 336 0 l 336 122 l 350 122 q 376 132 369 122 q 383 165 383 142 l 383 717 q 375 747 383 739 q 343 754 367 754 l 269 754 q 239 747 247 754 q 231 717 231 739 l 231 165 q 237 132 231 142 q 264 122 243 122 l 278 122 l 278 0 l 17 0 l 17 122 l 111 122 q 71 215 71 149 l 71 739 q 222 876 71 876 l 392 876 q 543 739 543 876 l 543 215 q 503 122 543 149 l 596 122 z "},"∏":{"ha":647,"x_min":8,"x_max":579,"o":"m 90 876 l 579 876 l 579 0 l 419 0 l 419 760 l 247 760 l 247 138 q 96 0 247 0 l 8 0 l 8 126 l 50 126 q 82 134 74 126 q 90 164 90 142 l 90 876 z "},"−":{"ha":703,"x_min":29,"x_max":581,"o":"m 29 375 l 29 499 l 581 499 l 581 375 l 29 375 z "},"∕":{"ha":550,"x_min":-6,"x_max":528,"o":"m 388 972 l 528 972 l 135 -143 l -6 -143 l 388 972 z "},"∙":{"ha":264,"x_min":47,"x_max":217,"o":"m 47 344 l 47 532 l 217 532 l 217 344 l 47 344 z "},"∞":{"ha":826,"x_min":31,"x_max":796,"o":"m 578 701 l 644 701 q 796 567 796 701 l 796 400 q 644 265 796 265 l 594 265 q 501 283 533 265 q 432 353 469 300 l 413 379 q 335 284 369 303 q 225 265 300 265 l 181 265 q 31 400 31 265 l 31 567 q 181 701 31 701 l 232 701 q 318 681 289 701 q 408 574 353 657 q 490 683 465 665 q 578 701 515 701 m 197 371 l 240 371 q 307 413 282 371 l 349 478 l 303 544 q 269 583 285 571 q 229 594 254 594 l 197 594 q 163 585 171 594 q 156 549 156 575 l 156 418 q 163 381 156 390 q 197 371 171 371 m 671 418 l 671 549 q 663 586 671 576 q 628 596 656 596 l 571 596 q 519 558 544 596 l 471 476 l 519 411 q 582 371 547 371 l 628 371 q 663 381 656 371 q 671 418 671 390 z "},"∫":{"ha":485,"x_min":61,"x_max":435,"o":"m 326 -43 q 175 -181 326 -181 l 61 -181 l 61 -54 l 129 -54 q 159 -47 151 -54 q 169 -17 167 -39 l 169 854 q 321 992 169 992 l 435 992 l 435 865 l 367 865 q 336 858 344 865 q 326 828 328 850 l 326 -43 z "},"≈":{"ha":711,"x_min":56,"x_max":656,"o":"m 467 253 q 378 278 417 253 q 306 327 339 303 q 245 351 274 351 q 208 341 217 351 q 200 306 200 331 l 200 254 l 56 254 l 56 340 q 85 431 56 401 q 183 460 115 460 l 246 460 q 319 444 285 460 q 372 411 353 429 q 474 361 424 361 q 504 372 497 361 q 511 408 511 382 l 511 460 l 656 460 l 656 374 q 626 283 656 314 q 528 253 596 253 l 467 253 m 467 506 q 378 531 417 506 q 306 580 339 556 q 245 604 274 604 q 208 593 217 604 q 200 557 200 582 l 200 506 l 56 506 l 56 592 q 86 683 56 653 q 183 713 117 713 l 246 713 q 319 697 285 713 q 372 664 353 682 q 474 614 424 614 q 504 624 497 614 q 511 661 511 635 l 511 711 l 656 711 l 656 625 q 626 535 656 565 q 528 506 596 506 l 467 506 z "},"≠":{"ha":694,"x_min":54,"x_max":640,"o":"m 640 507 l 640 374 l 369 374 l 251 139 l 142 139 l 260 374 l 54 374 l 54 507 l 326 507 l 443 738 l 553 738 l 436 507 l 640 507 z "},"≤":{"ha":664,"x_min":46,"x_max":601,"o":"m 601 285 l 601 169 l 46 169 l 46 285 l 601 285 m 601 625 l 182 539 l 601 450 l 601 321 l 46 476 l 46 607 l 601 751 l 601 625 z "},"≥":{"ha":664,"x_min":54,"x_max":610,"o":"m 54 169 l 54 285 l 610 285 l 610 169 l 54 169 m 474 539 l 54 625 l 54 751 l 610 607 l 610 476 l 54 321 l 54 450 l 474 539 z "},"◊":{"ha":774,"x_min":78,"x_max":696,"o":"m 460 876 l 696 439 l 460 0 l 310 0 l 78 439 l 310 876 l 460 876 m 385 131 l 538 439 l 385 746 l 236 439 l 385 131 z "},"◌":{"ha":582,"x_min":99,"x_max":479,"o":"m 243 210 l 335 210 l 335 108 l 243 108 l 243 210 m 243 674 l 335 674 l 335 572 l 243 572 l 243 674 m 388 572 l 388 674 q 479 572 479 674 l 388 572 m 388 519 l 479 519 l 479 418 l 388 418 l 388 519 m 388 364 l 479 364 l 479 263 l 388 263 l 388 364 m 388 210 l 479 210 q 454 138 479 168 q 388 108 429 108 l 388 210 m 190 572 l 99 572 q 124 647 99 619 q 190 674 149 674 l 190 572 m 99 519 l 190 519 l 190 418 l 99 418 l 99 519 m 99 364 l 190 364 l 190 263 l 99 263 l 99 364 m 190 210 l 190 108 q 124 136 150 108 q 99 210 99 164 l 190 210 z "},"":{"ha":617,"x_min":226,"x_max":390,"o":"m 226 -68 l 390 -68 l 390 -151 l 279 -347 l 226 -347 l 226 -68 z "},"ﬁ":{"ha":576,"x_min":10,"x_max":518,"o":"m 361 929 l 518 929 l 518 807 l 361 807 l 361 929 m 518 682 l 518 0 l 361 0 l 361 560 l 235 560 l 235 0 l 79 0 l 79 560 l 10 560 l 10 682 l 79 682 l 79 792 q 229 929 79 929 l 300 929 l 300 807 l 274 807 q 243 799 251 807 q 235 769 235 792 l 235 682 l 518 682 z "},"ﬂ":{"ha":576,"x_min":10,"x_max":518,"o":"m 363 929 l 518 929 l 518 0 l 363 0 l 363 560 l 235 560 l 235 0 l 79 0 l 79 560 l 10 560 l 10 682 l 79 682 l 79 792 q 229 929 79 929 l 300 929 l 300 807 l 274 807 q 243 799 251 807 q 235 769 235 792 l 235 682 l 363 682 l 363 929 z "}}}
